<?xml version="1.0" encoding="utf-8"?>
<!-- Generator: Adobe Illustrator 25.4.1, SVG Export Plug-In . SVG Version: 6.00 Build 0)  -->
<svg version="1.1" id="Capa_1" xmlns="http://www.w3.org/2000/svg" xmlns:xlink="http://www.w3.org/1999/xlink" x="0px" y="0px"
	 viewBox="0 0 210 120" style="enable-background:new 0 0 210 120;" xml:space="preserve">
<style type="text/css">
	.st0{fill:none;stroke:#FFFFFF;stroke-width:2;stroke-miterlimit:10;}
	.st1{fill:none;stroke:#FFFFFF;stroke-width:2;stroke-miterlimit:10;stroke-dasharray:0.9984,0.9984;}
	.st2{fill:none;stroke:#FFFFFF;stroke-width:2;stroke-miterlimit:10;stroke-dasharray:0.9977,0.9977;}
	.st3{fill:#FFFFFF;stroke:#FFFFFF;stroke-miterlimit:10;}
	.st4{fill:#00A19A;}
	.st5{fill:#FFFFFF;}
</style>
<rect x="3.47" y="3.63" class="st0" width="203.37" height="103.58"/>
<g>
	<g>
		<polyline class="st0" points="202.42,99.97 202.42,100.47 201.92,100.47 		"/>
		<line class="st1" x1="200.92" y1="100.47" x2="9.74" y2="100.47"/>
		<polyline class="st0" points="9.24,100.47 8.74,100.47 8.74,99.97 		"/>
		<line class="st2" x1="8.74" y1="98.98" x2="8.74" y2="9.68"/>
		<polyline class="st0" points="8.74,9.18 8.74,8.68 9.24,8.68 		"/>
		<line class="st1" x1="10.24" y1="8.68" x2="201.42" y2="8.68"/>
		<polyline class="st0" points="201.92,8.68 202.42,8.68 202.42,9.18 		"/>
		<line class="st2" x1="202.42" y1="10.18" x2="202.42" y2="99.47"/>
	</g>
</g>
<g>
	<path class="st3" d="M19.94,50.67c-0.77,0-1.42-0.26-1.94-0.77c-0.52-0.51-0.78-1.15-0.78-1.92V18.17c0-0.77,0.26-1.41,0.78-1.93
		c0.52-0.51,1.17-0.77,1.94-0.77h9.67c1.34,0,2.59,0.25,3.75,0.76c1.16,0.5,2.18,1.19,3.05,2.06c0.87,0.87,1.56,1.89,2.06,3.07
		c0.5,1.17,0.76,2.43,0.76,3.77c0,1.36-0.26,2.62-0.78,3.78c-0.52,1.16-1.23,2.19-2.13,3.07c1.3,0.95,2.34,2.15,3.12,3.59
		c0.78,1.44,1.17,3.03,1.17,4.77c0,1.47-0.28,2.83-0.83,4.08c-0.55,1.26-1.31,2.35-2.27,3.27c-0.96,0.93-2.09,1.65-3.38,2.19
		s-2.67,0.8-4.14,0.8H19.94z M22.69,20.94v8.96h6.77c0.6-0.02,1.17-0.17,1.69-0.44s0.98-0.63,1.36-1.06
		c0.38-0.43,0.69-0.92,0.91-1.46c0.22-0.54,0.33-1.1,0.33-1.66c0-0.59-0.12-1.14-0.36-1.66c-0.24-0.52-0.56-0.99-0.96-1.39
		c-0.4-0.4-0.87-0.72-1.4-0.95c-0.53-0.23-1.1-0.34-1.71-0.34H22.69z M22.69,34.86V45.2h7.1c0.73,0,1.43-0.15,2.08-0.44
		c0.65-0.29,1.21-0.68,1.69-1.15c0.48-0.48,0.86-1.03,1.14-1.66c0.28-0.63,0.43-1.3,0.43-1.99c0-0.71-0.14-1.38-0.43-2.01
		c-0.28-0.62-0.67-1.16-1.15-1.61c-0.49-0.45-1.05-0.81-1.71-1.07c-0.65-0.27-1.34-0.4-2.08-0.4H22.69z"/>
	<path class="st3" d="M74.53,21.41c0.13,0.33,0.19,0.66,0.19,1c0,0.34-0.06,0.67-0.19,1c-0.13,0.33-0.32,0.63-0.58,0.91
		c-0.27,0.26-0.58,0.45-0.92,0.59c-0.34,0.14-0.68,0.21-1.03,0.21c-0.35,0-0.69-0.06-1.03-0.18c-0.34-0.12-0.64-0.31-0.89-0.56
		c-1.25-1.25-2.63-2.16-4.14-2.75c-1.51-0.59-3.08-0.88-4.72-0.88c-1.69,0-3.28,0.32-4.77,0.96c-1.49,0.64-2.8,1.52-3.92,2.63
		c-1.12,1.11-2,2.42-2.65,3.92c-0.65,1.5-0.98,3.12-0.98,4.84c0,1.67,0.31,3.25,0.92,4.74s1.47,2.81,2.56,3.95s2.38,2.04,3.88,2.71
		c1.49,0.67,3.12,1.01,4.88,1.03c1.65,0,3.22-0.28,4.7-0.85c1.48-0.57,2.88-1.48,4.18-2.75c0.26-0.24,0.55-0.42,0.88-0.55
		c0.33-0.13,0.67-0.19,1.03-0.19s0.7,0.06,1.03,0.18s0.62,0.3,0.88,0.54c0.27,0.26,0.48,0.55,0.6,0.89
		c0.13,0.34,0.19,0.69,0.19,1.04c0,0.36-0.06,0.7-0.19,1.03c-0.13,0.33-0.31,0.62-0.55,0.88c-1.8,1.78-3.79,3.1-5.98,3.96
		C65.72,50.57,63.46,51,61.13,51c-1.63,0-3.2-0.21-4.7-0.63c-1.5-0.42-2.91-1.02-4.23-1.8c-1.32-0.78-2.52-1.71-3.6-2.81
		c-1.08-1.09-2.01-2.3-2.78-3.62c-0.77-1.32-1.37-2.74-1.79-4.25c-0.42-1.51-0.63-3.09-0.63-4.74c0-1.56,0.2-3.09,0.6-4.59
		c0.4-1.5,0.98-2.92,1.72-4.24c0.74-1.32,1.65-2.54,2.71-3.66c1.06-1.12,2.26-2.08,3.58-2.89c1.32-0.81,2.76-1.43,4.32-1.88
		c1.56-0.45,3.2-0.67,4.92-0.67c2.31,0,4.56,0.44,6.75,1.32c2.19,0.88,4.17,2.21,5.93,3.99C74.2,20.79,74.4,21.08,74.53,21.41z"/>
</g>
<polygon points="126.31,45.61 126.21,21.68 146.59,33.55 "/>
<polygon class="st4" points="146.31,45.64 146.2,21.71 166.59,33.58 "/>
<polygon class="st5" points="166.24,45.58 166.13,21.64 186.51,33.52 "/>
<g>
	<path class="st3" d="M42.07,76.56c0.28,0.14,0.46,0.34,0.53,0.61c0.07,0.26,0.03,0.54-0.11,0.82c-1.34,2.62-2.61,4.96-3.82,7.02
		c-1.2,2.07-2.31,3.7-3.34,4.9c-1.84,2.05-3.53,3.07-5.09,3.07h-0.58c-0.99-0.14-1.91-0.78-2.76-1.91c-0.6-0.88-1.15-2.07-1.64-3.55
		c-0.46-1.34-0.86-2.81-1.19-4.4c-0.34-1.59-0.65-3.2-0.93-4.82c-0.04-0.28-0.07-0.55-0.11-0.79c-0.04-0.25-0.09-0.49-0.16-0.74
		c-0.21,0.5-0.46,1.15-0.74,1.96c-0.28,0.81-0.57,1.8-0.85,2.97c-0.42,1.77-0.78,3.53-1.06,5.3c-0.28,1.77-0.46,3.37-0.53,4.82
		c0,0.28-0.1,0.51-0.29,0.69c-0.19,0.18-0.43,0.28-0.72,0.32c-0.28,0-0.53-0.09-0.74-0.26c-0.21-0.18-0.34-0.41-0.37-0.69
		c-0.25-2.3-0.37-5.97-0.37-11.02c0-5.05,0.11-11.52,0.32-19.4c0-0.71,0.03-1.34,0.11-1.91c0.07-0.56,0.16-1.04,0.27-1.43
		c0.07-0.35,0.2-0.72,0.4-1.09c0.19-0.37,0.5-0.64,0.93-0.82c0.64-0.25,1.2-0.09,1.7,0.48c0.49,0.57,0.89,1.55,1.19,2.94
		c0.3,1.4,0.42,2.99,0.34,4.8c-0.04,1.55-0.26,3.46-0.66,5.72c-0.41,2.26-1.23,4.72-2.46,7.37v3.34l0.11-0.37
		c0.25-0.92,0.49-1.75,0.72-2.49c0.23-0.74,0.47-1.4,0.72-1.96c0.39-0.81,0.75-1.4,1.09-1.78c0.34-0.37,0.7-0.59,1.09-0.66
		c0.14,0,0.34,0.04,0.61,0.11c0.27,0.07,0.52,0.3,0.77,0.69c0.18,0.39,0.32,0.81,0.42,1.27c0.07,0.39,0.14,0.77,0.21,1.14
		c0.07,0.37,0.14,0.75,0.21,1.14c0.28,1.59,0.58,3.15,0.9,4.69s0.67,2.94,1.06,4.21c0.85,2.51,1.78,3.85,2.81,4.03
		c0.88,0.14,2.12-0.65,3.71-2.38c0.99-1.09,2.05-2.66,3.18-4.69c1.13-2.03,2.37-4.3,3.71-6.81c0.14-0.25,0.34-0.42,0.61-0.5
		C41.52,76.39,41.79,76.42,42.07,76.56z M19.65,61.5c-0.07,1.77-0.12,3.44-0.16,5.04c-0.04,1.59-0.05,3.13-0.05,4.61
		c0.35-1.34,0.59-2.61,0.72-3.79c0.12-1.18,0.19-2.22,0.19-3.1c0.03-1.02,0.01-1.9-0.08-2.62c-0.09-0.72-0.19-1.3-0.29-1.72
		l-0.16-0.69c-0.04,0.28-0.07,0.61-0.11,0.98C19.67,60.58,19.65,61.01,19.65,61.5z"/>
	<path class="st3" d="M60.73,76.77c0.21,0.21,0.31,0.47,0.29,0.77c-0.02,0.3-0.13,0.54-0.34,0.72c-0.6,0.57-1.25,1.04-1.96,1.43
		c-0.71,0.39-1.44,0.72-2.2,0.98c-0.76,0.26-1.51,0.45-2.25,0.56c-0.74,0.11-1.45,0.16-2.12,0.16v0.11c0,1.34-0.14,2.66-0.42,3.95
		c-0.28,1.29-0.67,2.45-1.17,3.47c-0.64,1.27-1.4,2.25-2.28,2.94c-0.88,0.69-1.84,1.03-2.86,1.03c-2.19,0-3.9-1.06-5.14-3.18
		c-0.46-0.81-0.81-1.73-1.06-2.76c-0.25-1.02-0.37-2.1-0.37-3.23s0.16-2.31,0.48-3.55c0.32-1.24,0.72-2.28,1.22-3.13
		c0.14-0.28,0.34-0.46,0.61-0.53c0.27-0.07,0.54-0.04,0.82,0.11c0.28,0.18,0.46,0.4,0.53,0.66c0.07,0.26,0.03,0.54-0.11,0.82
		c-0.42,0.71-0.75,1.53-0.98,2.46c-0.23,0.94-0.35,1.89-0.37,2.86c-0.02,0.97,0.06,1.92,0.24,2.84c0.18,0.92,0.46,1.71,0.85,2.38
		c0.85,1.41,1.94,2.12,3.29,2.12c0.39,0,0.75-0.1,1.09-0.29c0.34-0.19,0.64-0.43,0.93-0.71c0.28-0.28,0.52-0.58,0.72-0.9
		c0.19-0.32,0.36-0.6,0.5-0.85c0.42-0.92,0.76-1.95,1.01-3.1c0.25-1.15,0.37-2.29,0.37-3.42v-0.32c-1.02-0.14-1.95-0.32-2.78-0.53
		c-0.83-0.21-1.46-0.44-1.88-0.69c-0.99-0.53-1.62-1.15-1.88-1.85c-0.27-0.71-0.31-1.36-0.13-1.96c0.14-0.71,0.56-1.33,1.27-1.86
		c0.74-0.46,1.54-0.69,2.38-0.69c0.85,0,1.62,0.23,2.31,0.69c0.69,0.46,1.26,1.1,1.72,1.91c0.46,0.81,0.78,1.82,0.95,3.02
		c0.07,0,0.11,0.01,0.13,0.03c0.02,0.02,0.04,0.03,0.08,0.03c1.13,0.04,2.36-0.17,3.68-0.61c1.33-0.44,2.45-1.09,3.37-1.93
		c0.21-0.21,0.47-0.31,0.77-0.29C60.31,76.44,60.55,76.56,60.73,76.77z M46.37,78.09c0.28,0.14,0.72,0.29,1.32,0.45
		c0.6,0.16,1.31,0.31,2.12,0.45c-0.14-0.67-0.35-1.27-0.64-1.8c-0.53-0.99-1.25-1.48-2.17-1.48c-0.5,0-0.87,0.1-1.14,0.29
		c-0.27,0.19-0.43,0.42-0.5,0.66C45.25,77.16,45.59,77.63,46.37,78.09z"/>
	<path class="st3" d="M93.54,76.56c0.28,0.14,0.46,0.34,0.53,0.61c0.07,0.26,0.04,0.54-0.11,0.82c-1.34,2.62-2.62,4.96-3.82,7.02
		c-1.2,2.07-2.31,3.7-3.34,4.9c-1.06,1.2-2.01,2.01-2.86,2.44s-1.77,0.64-2.76,0.64c-1.03-0.14-1.96-0.78-2.81-1.91
		c-0.6-0.88-1.15-2.07-1.64-3.55c-0.46-1.34-0.86-2.81-1.19-4.4c-0.34-1.59-0.65-3.2-0.93-4.82c-0.04-0.28-0.07-0.56-0.11-0.82
		c-0.04-0.27-0.09-0.54-0.16-0.82c-0.21,0.5-0.45,1.12-0.72,1.88c-0.27,0.76-0.54,1.71-0.82,2.84c-0.46,1.8-0.84,3.61-1.14,5.43
		c-0.3,1.82-0.45,3.49-0.45,5.01c-0.07,0.53-0.25,0.85-0.53,0.95c-0.28,0.11-0.46,0.16-0.53,0.16c-0.18,0-0.39-0.05-0.64-0.16
		c-0.25-0.11-0.42-0.41-0.53-0.9c0-0.64-0.04-1.42-0.13-2.36c-0.09-0.94-0.19-1.91-0.32-2.91c-0.12-1.01-0.27-2.01-0.42-3.02
		c-0.16-1.01-0.31-1.88-0.45-2.62c-0.28-1.59-0.54-2.74-0.77-3.45c-0.23-0.71-0.42-1.2-0.56-1.48c-0.11,0.18-0.24,0.44-0.4,0.79
		c-0.16,0.35-0.34,0.85-0.53,1.48c-0.19,0.64-0.41,1.43-0.64,2.38c-0.23,0.95-0.49,2.12-0.77,3.5c-0.21,0.99-0.4,1.95-0.56,2.89
		c-0.16,0.94-0.3,1.77-0.42,2.49c-0.12,0.72-0.26,1.55-0.4,2.46c-0.04,0.28-0.15,0.51-0.34,0.69c-0.19,0.18-0.43,0.25-0.72,0.21
		c-0.67-0.07-1.01-0.41-1.01-1.01c0-0.04-0.03-0.5-0.08-1.4c-0.05-0.9-0.13-2.05-0.24-3.45c-0.11-1.4-0.25-2.92-0.42-4.56
		c-0.18-1.64-0.41-3.22-0.69-4.74c-0.03-0.28,0.03-0.55,0.21-0.79c0.18-0.25,0.41-0.41,0.69-0.48c0.28-0.07,0.54-0.01,0.77,0.19
		c0.23,0.19,0.38,0.43,0.45,0.71c0.18,0.88,0.33,1.86,0.45,2.92c0.12,1.06,0.22,2.05,0.29,2.97c0.25-1.13,0.48-2.16,0.69-3.07
		c0.21-0.92,0.44-1.73,0.69-2.44c0.42-1.38,0.8-2.32,1.14-2.83c0.34-0.51,0.63-0.86,0.87-1.03c0.39-0.25,0.83-0.32,1.33-0.21
		c0.53,0.14,0.94,0.46,1.25,0.95c0.3,0.5,0.54,0.99,0.72,1.48c0.35,0.88,0.69,2.21,1.01,3.97l0.48,3.29
		c0.11-0.53,0.22-1.07,0.34-1.62c0.12-0.55,0.27-1.09,0.45-1.62c0.21-0.85,0.44-1.63,0.69-2.36c0.25-0.72,0.48-1.35,0.69-1.88
		c0.28-0.57,0.58-1.09,0.9-1.56c0.32-0.48,0.74-0.73,1.27-0.77c0.14-0.04,0.34-0.01,0.61,0.08c0.27,0.09,0.52,0.33,0.77,0.72
		c0.18,0.32,0.32,0.74,0.42,1.27l0.42,2.28c0.28,1.59,0.58,3.15,0.9,4.69s0.69,2.94,1.11,4.21c0.81,2.51,1.73,3.85,2.76,4.03
		c0.88,0.14,2.12-0.65,3.71-2.38c0.99-1.09,2.05-2.66,3.18-4.69c1.13-2.03,2.37-4.3,3.71-6.81c0.14-0.25,0.34-0.42,0.61-0.5
		S93.25,76.42,93.54,76.56z"/>
	<path class="st3" d="M110.65,76.56c0.28,0.11,0.47,0.29,0.56,0.56c0.09,0.26,0.08,0.54-0.03,0.82c-1.06,2.47-2.17,4.75-3.34,6.84
		c-1.17,2.08-2.37,3.75-3.6,4.98c-1.17,1.24-2.25,2.07-3.23,2.49c-0.99,0.42-1.86,0.64-2.6,0.64c-0.18,0-0.35-0.01-0.53-0.03
		c-0.18-0.02-0.35-0.04-0.53-0.08c-0.71-0.18-1.46-0.6-2.25-1.27s-1.48-1.86-2.04-3.55c-0.88-2.61-1.17-6.04-0.85-10.28
		c0.11-2.26,0.81-3.62,2.12-4.08c0.85-0.28,1.61-0.05,2.28,0.69c0.35,0.42,0.64,1.01,0.85,1.75s0.28,1.66,0.21,2.76
		c-0.07,1.1-0.3,2.37-0.69,3.82c-0.39,1.45-1.01,3.06-1.85,4.82c0.21,0.67,0.54,1.34,0.98,2.01c0.44,0.67,1.01,1.1,1.72,1.27
		c1.38,0.32,3.02-0.48,4.93-2.39c1.13-1.13,2.23-2.7,3.31-4.72c1.08-2.01,2.13-4.19,3.15-6.52c0.14-0.28,0.34-0.48,0.61-0.58
		C110.1,76.4,110.37,76.42,110.65,76.56z M94.33,83.76c0.67-1.8,1.06-3.34,1.17-4.61c0.11-1.27,0.03-2.24-0.21-2.92
		c-0.07-0.18-0.13-0.31-0.19-0.4c-0.05-0.09-0.1-0.15-0.13-0.19c-0.07,0.07-0.19,0.27-0.34,0.61c-0.16,0.34-0.27,0.86-0.34,1.56
		c-0.07,1.09-0.1,2.14-0.08,3.13C94.22,81.95,94.26,82.88,94.33,83.76z"/>
	<path class="st3" d="M135.03,76.56c0.28,0.14,0.48,0.34,0.58,0.61s0.09,0.54-0.05,0.82c-1.03,2.09-2.08,4.1-3.15,6.04
		c-1.08,1.94-2.13,3.53-3.15,4.77c-2.3,2.76-4.38,4.13-6.25,4.13c-0.32,0-0.64-0.05-0.95-0.16c-1.66-0.42-2.92-2.05-3.76-4.88
		c-0.35,0.92-0.76,1.77-1.22,2.54c-1.1,1.66-2.42,2.49-3.98,2.49c-0.14,0-0.25-0.02-0.32-0.05c-0.81-0.07-1.57-0.36-2.28-0.88
		c-0.71-0.51-1.31-1.23-1.8-2.15c-1.02-1.8-1.43-3.9-1.22-6.31c0.11-1.45,0.34-2.77,0.71-3.98c0.37-1.2,0.86-2.26,1.46-3.18
		c0.56-0.88,1.21-1.56,1.93-2.04c0.72-0.48,1.47-0.75,2.25-0.82c1.09-0.11,2.1,0.27,3.02,1.11c0-1.91,0.04-3.97,0.13-6.2
		c0.09-2.23,0.22-4.61,0.4-7.15c0.07-1.06,0.19-1.92,0.35-2.57c0.16-0.65,0.33-1.17,0.51-1.54c0.18-0.37,0.38-0.64,0.59-0.8
		c0.21-0.16,0.41-0.27,0.59-0.34c0.18-0.07,0.44-0.09,0.78-0.05c0.34,0.04,0.7,0.27,1.1,0.69c0.54,0.64,0.93,1.66,1.18,3.07
		c0.25,1.41,0.34,3,0.27,4.77c-0.07,1.56-0.36,3.45-0.86,5.7c-0.5,2.25-1.45,4.67-2.85,7.29v0.05c0.07,1.24,0.14,2.4,0.21,3.5
		c0.07,1.1,0.19,2.1,0.37,3.02c0.21,1.34,0.45,2.43,0.72,3.26c0.26,0.83,0.53,1.49,0.79,1.99c0.26,0.5,0.53,0.85,0.79,1.06
		c0.26,0.21,0.5,0.34,0.71,0.37c0.6,0.18,1.33-0.03,2.17-0.61c0.85-0.58,1.78-1.48,2.81-2.68c0.99-1.17,2-2.69,3.02-4.58
		c1.02-1.89,2.03-3.84,3.02-5.86c0.14-0.28,0.34-0.47,0.61-0.56S134.79,76.42,135.03,76.56z M115.26,89.28
		c0.35-0.49,0.72-1.28,1.11-2.36c0.39-1.08,0.67-2.57,0.85-4.48v-0.05c-0.07-0.42-0.12-0.88-0.13-1.35
		c-0.02-0.48-0.04-0.96-0.08-1.46c-0.07-0.07-0.14-0.21-0.21-0.42c-0.25-1.13-0.62-2.01-1.11-2.65c-0.5-0.64-1.06-0.92-1.7-0.85
		c-0.46,0.04-0.93,0.23-1.4,0.58c-0.48,0.35-0.92,0.88-1.33,1.56c-0.41,0.69-0.76,1.53-1.06,2.52c-0.3,0.99-0.5,2.12-0.61,3.39
		c-0.07,0.95-0.03,1.87,0.13,2.76c0.16,0.88,0.43,1.68,0.82,2.38c0.32,0.57,0.69,1.02,1.11,1.35c0.42,0.34,0.85,0.52,1.27,0.56
		c0.53,0.07,0.99-0.06,1.38-0.4C114.7,90.03,115.02,89.67,115.26,89.28z M119.53,61.45c-0.19,2.01-0.31,3.93-0.39,5.75
		c-0.07,1.82-0.13,3.56-0.17,5.22c0.49-1.38,0.87-2.77,1.14-4.19c0.27-1.41,0.43-2.81,0.5-4.19c0.04-1.38-0.02-2.52-0.17-3.42
		c-0.15-0.9-0.31-1.56-0.47-1.99c-0.08,0.25-0.15,0.59-0.22,1.03C119.68,60.12,119.6,60.71,119.53,61.45z"/>
	<path class="st3" d="M152.2,76.56c0.28,0.11,0.47,0.29,0.56,0.56c0.09,0.26,0.08,0.54-0.03,0.82c-1.06,2.47-2.17,4.75-3.34,6.84
		c-1.17,2.08-2.37,3.75-3.6,4.98c-1.17,1.24-2.25,2.07-3.23,2.49c-0.99,0.42-1.86,0.64-2.6,0.64c-0.18,0-0.35-0.01-0.53-0.03
		c-0.18-0.02-0.35-0.04-0.53-0.08c-0.71-0.18-1.46-0.6-2.25-1.27s-1.48-1.86-2.04-3.55c-0.88-2.61-1.17-6.04-0.85-10.28
		c0.11-2.26,0.81-3.62,2.12-4.08c0.85-0.28,1.61-0.05,2.28,0.69c0.35,0.42,0.64,1.01,0.85,1.75s0.28,1.66,0.21,2.76
		c-0.07,1.1-0.3,2.37-0.69,3.82c-0.39,1.45-1.01,3.06-1.85,4.82c0.21,0.67,0.54,1.34,0.98,2.01c0.44,0.67,1.01,1.1,1.72,1.27
		c1.38,0.32,3.02-0.48,4.93-2.39c1.13-1.13,2.23-2.7,3.31-4.72c1.08-2.01,2.13-4.19,3.15-6.52c0.14-0.28,0.34-0.48,0.61-0.58
		C151.65,76.4,151.92,76.42,152.2,76.56z M135.88,83.76c0.67-1.8,1.06-3.34,1.17-4.61c0.11-1.27,0.03-2.24-0.21-2.92
		c-0.07-0.18-0.13-0.31-0.19-0.4c-0.05-0.09-0.1-0.15-0.13-0.19c-0.07,0.07-0.19,0.27-0.34,0.61c-0.16,0.34-0.27,0.86-0.34,1.56
		c-0.07,1.09-0.1,2.14-0.08,3.13C135.77,81.95,135.81,82.88,135.88,83.76z"/>
	<path class="st3" d="M157.08,92.88c-0.21,0-0.41-0.01-0.58-0.03c-0.18-0.02-0.35-0.04-0.53-0.08c-0.67-0.18-1.4-0.6-2.2-1.27
		s-1.48-1.86-2.04-3.55c-0.88-2.58-1.18-6.01-0.9-10.28c0.11-1.55,0.46-2.64,1.06-3.26s1.2-0.93,1.8-0.93
		c0.6,0.04,1.18,0.38,1.75,1.03c0.57,0.65,0.87,1.78,0.9,3.37c0,0.28-0.11,0.53-0.32,0.74c-0.21,0.21-0.46,0.32-0.74,0.32
		c-0.28,0-0.53-0.11-0.74-0.32c-0.21-0.21-0.32-0.46-0.32-0.74c-0.04-0.71-0.12-1.24-0.26-1.59c-0.14-0.35-0.25-0.57-0.32-0.64
		c-0.07,0.07-0.19,0.27-0.34,0.61c-0.16,0.34-0.27,0.86-0.34,1.56c-0.28,3.96-0.02,7.1,0.79,9.43c0.21,0.71,0.54,1.41,0.98,2.12
		c0.44,0.71,1.03,1.15,1.78,1.33c1.38,0.32,3.02-0.48,4.93-2.39c1.09-1.13,2.19-2.7,3.29-4.72c1.09-2.01,2.16-4.19,3.18-6.52
		c0.11-0.28,0.29-0.48,0.56-0.58c0.27-0.11,0.54-0.09,0.82,0.05c0.28,0.11,0.48,0.29,0.58,0.56c0.11,0.26,0.11,0.54,0,0.82
		c-1.09,2.47-2.23,4.76-3.39,6.86c-1.17,2.1-2.35,3.77-3.55,5.01c-1.2,1.2-2.29,2.01-3.26,2.44
		C158.68,92.67,157.82,92.88,157.08,92.88z"/>
	<path class="st3" d="M188.03,76.77c0.21,0.21,0.31,0.47,0.29,0.77c-0.02,0.3-0.13,0.54-0.34,0.72c-0.6,0.57-1.25,1.04-1.96,1.43
		c-0.71,0.39-1.44,0.72-2.2,0.98s-1.51,0.45-2.25,0.56c-0.74,0.11-1.45,0.16-2.12,0.16v0.11c0,1.34-0.14,2.66-0.42,3.95
		s-0.67,2.45-1.17,3.47c-0.64,1.27-1.4,2.25-2.28,2.94c-0.88,0.69-1.84,1.03-2.86,1.03c-2.19,0-3.9-1.06-5.14-3.18
		c-0.46-0.81-0.81-1.73-1.06-2.76c-0.25-1.02-0.37-2.1-0.37-3.23s0.16-2.31,0.48-3.55c0.32-1.24,0.72-2.28,1.22-3.13
		c0.14-0.28,0.34-0.46,0.61-0.53c0.26-0.07,0.54-0.04,0.82,0.11c0.28,0.18,0.46,0.4,0.53,0.66c0.07,0.26,0.04,0.54-0.11,0.82
		c-0.42,0.71-0.75,1.53-0.98,2.46s-0.35,1.89-0.37,2.86c-0.02,0.97,0.06,1.92,0.24,2.84c0.18,0.92,0.46,1.71,0.85,2.38
		c0.85,1.41,1.94,2.12,3.29,2.12c0.39,0,0.75-0.1,1.09-0.29c0.33-0.19,0.64-0.43,0.93-0.71c0.28-0.28,0.52-0.58,0.72-0.9
		c0.19-0.32,0.36-0.6,0.5-0.85c0.42-0.92,0.76-1.95,1.01-3.1c0.25-1.15,0.37-2.29,0.37-3.42v-0.32c-1.03-0.14-1.95-0.32-2.78-0.53
		s-1.46-0.44-1.88-0.69c-0.99-0.53-1.62-1.15-1.88-1.85c-0.26-0.71-0.31-1.36-0.13-1.96c0.14-0.71,0.57-1.33,1.27-1.86
		c0.74-0.46,1.54-0.69,2.38-0.69c0.85,0,1.62,0.23,2.31,0.69c0.69,0.46,1.26,1.1,1.72,1.91c0.46,0.81,0.78,1.82,0.95,3.02
		c0.07,0,0.11,0.01,0.13,0.03s0.04,0.03,0.08,0.03c1.13,0.04,2.36-0.17,3.68-0.61c1.33-0.44,2.45-1.09,3.37-1.93
		c0.21-0.21,0.47-0.31,0.77-0.29C187.62,76.44,187.85,76.56,188.03,76.77z M173.67,78.09c0.28,0.14,0.72,0.29,1.33,0.45
		c0.6,0.16,1.31,0.31,2.12,0.45c-0.14-0.67-0.35-1.27-0.64-1.8c-0.53-0.99-1.25-1.48-2.17-1.48c-0.5,0-0.87,0.1-1.14,0.29
		c-0.26,0.19-0.43,0.42-0.5,0.66C172.55,77.16,172.89,77.63,173.67,78.09z"/>
</g>
<g>
</g>
<g>
</g>
<g>
</g>
<g>
</g>
<g>
</g>
<g>
</g>
</svg>
