<?xml version="1.0" encoding="utf-8"?>
<!-- Generator: Adobe Illustrator 25.4.1, SVG Export Plug-In . SVG Version: 6.00 Build 0)  -->
<svg version="1.1" id="Capa_1" xmlns="http://www.w3.org/2000/svg" xmlns:xlink="http://www.w3.org/1999/xlink" x="0px" y="0px"
	 viewBox="0 0 678 209" style="enable-background:new 0 0 678 209;" xml:space="preserve">
<style type="text/css">
	.st0{fill:#FFFFFF;}
	.st1{fill-rule:evenodd;clip-rule:evenodd;fill:#FFFFFF;}
</style>
<g>
	<path class="st0" d="M97.8,87.4c0,2.8-0.6,5.4-1.8,7.8s-2.8,4.4-4.8,6c2.9,1.7,5.2,4,6.9,7s2.6,6.2,2.6,9.8c0,2.8-0.5,5.4-1.6,7.8
		c-1.1,2.4-2.5,4.5-4.4,6.2c-1.9,1.8-4,3.1-6.5,4.1c-2.5,1-5.1,1.5-7.9,1.5H61.3c-1.1,0-2-0.4-2.8-1.2s-1.2-1.7-1.2-2.8V73.3
		c0-1.1,0.4-2.1,1.2-2.8c0.8-0.7,1.7-1.1,2.8-1.1h18.6c2.5,0,4.8,0.5,7,1.4s4.1,2.3,5.7,3.9c1.6,1.6,2.9,3.6,3.8,5.7
		C97.3,82.6,97.8,84.9,97.8,87.4z M65.3,77.3v21h14c1.5,0,2.9-0.3,4.1-0.9c1.3-0.6,2.4-1.4,3.3-2.4c0.9-1,1.7-2.1,2.2-3.4
		c0.5-1.3,0.8-2.6,0.8-4c0-1.4-0.3-2.7-0.8-3.9c-0.5-1.2-1.3-2.3-2.2-3.3c-0.9-0.9-2-1.7-3.3-2.3c-1.3-0.6-2.6-0.9-4-0.9L65.3,77.3
		L65.3,77.3z M65.3,105.6v24.1h14.9c1.8,0,3.4-0.3,5-1s2.9-1.6,4-2.7c1.1-1.1,2-2.4,2.6-3.9c0.6-1.5,1-3,1-4.6c0-1.7-0.3-3.2-1-4.7
		c-0.7-1.5-1.6-2.7-2.7-3.8c-1.1-1.1-2.5-1.9-4-2.5c-1.5-0.6-3.2-0.9-5-0.9L65.3,105.6L65.3,105.6z"/>
	<path class="st0" d="M167.3,81.9c0,1.1-0.4,2-1.2,2.8c-0.8,0.8-1.7,1.2-2.8,1.2c-1.1,0-2-0.4-2.8-1.1c-2.7-2.7-5.6-4.7-8.9-6
		c-3.3-1.3-6.6-2-10.1-2c-3.7,0-7.1,0.7-10.4,2.1c-3.2,1.4-6.1,3.3-8.5,5.7c-2.4,2.4-4.3,5.2-5.7,8.5c-1.4,3.2-2.1,6.7-2.1,10.4
		c0,3.6,0.7,7,2,10.2s3.2,6.1,5.6,8.5c2.4,2.4,5.2,4.4,8.4,5.9c3.2,1.5,6.7,2.2,10.6,2.2c3.5,0,6.8-0.6,10.1-1.8
		c3.2-1.2,6.2-3.2,9-5.9c0.7-0.7,1.7-1.1,2.8-1.1c1.1,0,2.1,0.4,2.8,1.1c0.8,0.8,1.2,1.7,1.2,2.9s-0.4,2.1-1.2,2.8
		c-3.5,3.5-7.3,6-11.6,7.7c-4.3,1.7-8.7,2.5-13.2,2.5c-4.8,0-9.3-0.9-13.4-2.7c-4.2-1.8-7.8-4.3-11-7.4c-3.1-3.1-5.6-6.8-7.4-11
		c-1.8-4.2-2.7-8.7-2.7-13.5c0-3.1,0.4-6,1.2-9s1.9-5.6,3.3-8.2c1.4-2.6,3.2-5,5.3-7.1s4.4-4,7-5.6c2.6-1.6,5.4-2.8,8.4-3.7
		c3-0.9,6.2-1.3,9.6-1.3c4.5,0,8.9,0.9,13.1,2.6c4.2,1.7,8.1,4.3,11.5,7.8C166.9,79.9,167.3,80.9,167.3,81.9z"/>
</g>
<g>
	<path class="st0" d="M186,141.5c0.7-0.3,1.4-0.7,2.1-1.1c0.4-0.2,0.7-0.4,1.1-0.6c1.2,1.9,3.5,2.8,5.7,2.6c2.5-0.3,4.8-1.5,7-2.5
		c0.3-0.1,0.2-0.6-0.1-0.7c-2.1-0.9-4.2-1.9-6.5-1.7c-1.2,0.1-2.3,0.2-3.5,0.5c0.2-0.1,0.3-0.2,0.5-0.3c1.3-1,2.6-2.2,3.7-3.4
		c0.5-0.6,1.1-1.2,1.6-1.8c0.1-0.1,0.2-0.2,0.3-0.3c0.7,0.4,1.7,0.2,2.3-0.1c0.8-0.4,1.4-1.3,1.4-2.3c0-0.5-0.1-1-0.4-1.5
		c-0.5-0.7-1.4-1-2.3-0.8c-0.8,0.2-1.5,0.8-1.8,1.6c-0.3,0.7-0.3,1.5,0,2.2c0,0.1-0.1,0.1-0.1,0.2c-0.5,0.7-1.1,1.4-1.7,2
		c-1.1,1.2-2.3,2.3-3.6,3.4c-1.3,1-2.6,2-4,2.8c-0.7,0.4-1.5,0.8-2.2,1.2c-0.2,0.1-0.4,0.2-0.6,0.3c0.7-1.3,1.4-2.6,1.9-4
		c0.6-1.4,1.2-2.9,1.7-4.4c0,0,0.1,0,0.1,0c1.8,0,3.4-1.2,4.5-2.5c1.5-1.8,2.3-4.1,3.6-6c0.2-0.3-0.1-0.7-0.4-0.6
		c-1.8,0.5-3.5,1.8-4.8,3.2c-0.7,0.8-1.3,1.6-1.9,2.5c-0.1,0.1-0.1,0.2-0.2,0.3c0.8-2.9,1.3-5.9,1.7-9c1-1.1,2-2.3,2.8-3.6
		c0.9,0.1,1.9,0,2.7,0c0.9-0.1,1.8-0.3,2.6-0.7c1.9-1,2.7-2.9,4.2-4.3c0.2-0.2,0.1-0.7-0.2-0.6c-3.1,0.2-6.1,1.6-8.2,3.8
		c0.1-0.2,0.3-0.5,0.4-0.7c0.6-1.2,1.2-2.3,1.6-3.6c0.2-0.4,0.4-0.9,0.5-1.4c0.9,0.1,1.9-0.1,2.5-0.7c0.7-0.7,0.9-1.9,0.4-2.8
		c-0.5-0.9-1.6-1.4-2.6-1.2c-1,0.2-1.8,1.1-2,2.1c-0.1,0.6,0.1,1.5,0.6,2.1c-0.2,0.5-0.3,1-0.4,1.5c-0.4,1.2-0.9,2.4-1.4,3.5
		c-0.9,2-2.1,3.9-3.3,5.7c0.1-1.4,0.2-2.8,0.2-4.2c0.1-3.2-0.1-6.4-0.4-9.6c1.7-0.2,2.9-2,3.4-3.5c0.9-2.5,0.4-5.4,1.9-7.7
		c0.2-0.3-0.1-0.6-0.4-0.5c-1.9,1.1-3.5,2.8-4.5,4.8c-0.4,0.9-0.8,1.8-1,2.8c-0.3-1.7-0.6-3.5-1.1-5.2c-0.2-0.9-0.5-1.9-0.7-2.8
		c0,0,0,0,0,0c1-0.6,1.6-2,1.8-3.1c0.1-0.7,0.2-1.4,0.3-2.1c0.1-0.9,0-2,0.3-2.8c0.2-0.3-0.2-0.7-0.5-0.4c-1.2,1-2.3,2.5-2.6,4
		c-0.2,0.7-0.2,1.4-0.1,2.2c-0.1-0.3-0.2-0.5-0.4-0.8c0.2-0.9,0-2-0.3-2.8c-0.3-1.1-0.8-2.2-1.6-3.1c-1.5-1.9-4-3.2-6.5-3.1
		c-0.2,0-0.5,0.2-0.5,0.4c0,2.1,1.3,3.9,2.7,5.4c0.8,0.8,1.6,1.5,2.5,2.1c0.8,0.6,1.8,1.1,2.8,1.3c0.3,1.8,0.8,3.6,1.2,5.3
		c0.3,1.1,0.5,2.2,0.7,3.2c-0.9-1.1-2-2-3.1-2.8c-1-0.8-2.1-1.5-3.2-2.2c-0.2-0.1-0.4-0.3-0.7-0.4c-0.1-0.6-0.5-1.3-1.3-1.6
		c-0.4-0.2-0.9-0.4-1.4-0.2c-0.7,0.2-1.2,0.9-1.3,1.7c-0.1,0.5-0.2,1,0.1,1.4c0.2,0.3,0.5,0.6,0.9,0.7c0.6,0.2,1.3,0.2,1.9,0
		c0.4-0.2,0.7-0.5,0.9-0.8c0.2,0.1,0.4,0.3,0.6,0.4c1,0.6,1.9,1.2,2.9,1.9c0.9,0.7,1.8,1.4,2.6,2.2c0.5,0.5,0.9,1.1,1.4,1.6
		c0,0.1,0,0.2,0.1,0.3c0.2,0.9,0.3,1.8,0.4,2.7c-0.1-0.1-0.2-0.2-0.3-0.3c-0.8-0.7-1.7-1.1-2.7-1.4c-2.3-0.7-4.5,0.1-6.7,0.7
		c-0.3,0.1-0.4,0.5-0.1,0.7c1.8,1.2,3.9,2.3,6,3c1.3,0.4,2.9,0.6,4.1-0.1c0.2,1.9,0.3,3.8,0.3,5.7c0,0.2,0,0.4,0,0.6
		c-0.1-0.3-0.2-0.5-0.3-0.8c-0.4-0.8-1.1-1.3-1.9-1.8c-0.9-0.6-1.8-1.1-2.8-1.6c-0.3-0.1-0.6,0.2-0.5,0.5c0.2,1.8,0.6,3.7,1.6,5.2
		c0.8,1.3,2.2,2.9,3.8,3.3c-0.3,4.4-1.1,8.7-2.3,12.9c-0.1-2-0.7-4-1.3-5.8c-0.5-1.6-1.2-3.1-2-4.5c-0.5-1-1.1-2.1-1.9-3
		c0-0.1,0.1-0.3,0.1-0.5c-0.1-1.3-0.6-3-2.1-3.1c-1-0.1-1.9,0.7-2.1,1.7c-0.3,1.1,0.3,2.5,1.4,2.9c0.6,0.3,1.4,0.2,2-0.1
		c0.1,0.2,0.2,0.3,0.4,0.5c0.5,0.7,0.9,1.3,1.3,2c0.8,1.4,1.5,2.8,2,4.2c0.3,0.9,0.7,1.8,0.9,2.8c-2-2.7-5.7-4.3-8.9-2.5
		c-0.2,0.1-0.3,0.4-0.1,0.6c2.2,2.7,5.8,3.9,9.2,3.1c0,0.1,0.1,0.1,0.1,0.2c0.3,1.2,0.4,2.4,0.4,3.5c-0.1,0.4-0.3,0.8-0.5,1.3
		c-1.1,2.9-2.5,5.6-4,8.3c0.3-1,0.4-2.1,0.4-3.1c-0.1-2.1-1-4-2.2-5.8c-0.2-0.3-0.7-0.3-0.8,0.2c-0.2,2.2-0.8,4.4-0.8,6.6
		c0,1.8,0.7,3.2,2,4.3c-1.9,2.9-4,5.6-6.3,8.2c-0.8,0.9-1.7,1.9-2.6,2.8c0.4-1,0.8-2,1.1-3c0.6-1.8,1.1-3.6,1.5-5.4
		c0.3-1.8,0.6-3.7,0.7-5.5c0.1-1.5,0.4-3.3-0.1-4.8c0.4-0.5,0.6-1.1,0.7-1.7c0.2-0.9-0.2-1.9-1-2.5c-0.7-0.4-1.6-0.4-2.3,0
		c-0.5,0.3-0.8,0.9-1,1.4c-0.6,1.6,0.2,3.5,2.1,3.6c0.2,0,0.4,0,0.6-0.1c0,0.4,0,0.8-0.1,1.2c0,0.9-0.1,1.8-0.1,2.8
		c-0.1,1.8-0.4,3.6-0.7,5.3c0,0.1,0,0.1,0,0.2c-0.1-1.1-0.2-2.2-0.6-3.2c-0.3-0.9-0.8-1.7-1.4-2.3c-0.7-0.7-1.6-1.3-2.2-2
		c-0.2-0.3-0.7-0.1-0.7,0.2c-0.1,2.1-0.2,4.4,0.7,6.3c0.7,1.6,2,3.1,3.6,3.8c-0.2,0.8-0.3,1.6-0.6,2.3c-0.4,1.5-0.9,3-1.4,4.5
		c-1.4,1.4-2.9,2.8-4.4,4.1c0.7-1.1,1.1-2.4,1.4-3.6c0.5-2.1,0.3-4.3,0-6.4c0-0.3-0.5-0.4-0.7-0.1c-2.3,3.2-3.9,7.6-2.1,11.4
		c0,0,0,0,0,0c-1.9,1.6-3.9,3.1-6,4.6c-1.3,0.9-2.6,1.8-4,2.7c1.4-2.2,2.5-4.5,3.4-7c0.6-1.5,1.1-3.1,1.5-4.7
		c0.3-1.2,0.8-2.5,0.9-3.8c0.6-0.2,1.2-0.6,1.3-1.3c0.1-0.8-0.4-1.7-1.2-2c-0.8-0.3-1.7,0.1-2.2,0.8c-0.3,0.5-0.3,1.2,0,1.8
		c0.3,0.4,0.7,0.7,1.1,0.8c-0.5,1.1-0.6,2.4-0.9,3.4c-0.4,1.3-0.7,2.6-1.2,3.9c0-0.3-0.1-0.5-0.1-0.7c-0.5-2.2-2.2-3.5-3.3-5.4
		c-0.2-0.3-0.7-0.3-0.8,0.1c-0.4,1.9-0.7,3.9-0.3,5.8c0.2,1,0.7,1.9,1.2,2.7c0.5,0.7,0.9,1.5,1.7,1.9c-0.6,1.5-1.3,2.9-2.1,4.3
		c-2,1.3-4.1,2.5-6.2,3.6c0.8-1.5,1.2-3.3,1.1-4.8c-0.1-2.2-1-4.4-1.6-6.5c-0.1-0.4-0.6-0.4-0.8,0c-0.7,2.3-1.5,4.6-1.8,7
		c-0.2,1.9,0.4,3.8,1.5,5.3c-2.4,1.3-4.8,2.5-7.3,3.7c-0.2,0.1-0.1,0.5,0.2,0.4c3.5-1.4,6.9-3,10.2-4.8c1.6,0.7,3.4,1.1,5.1,1.5
		c0.6,0.1,1.3,0.3,1.9,0.4c-0.8,1.4-1.1,3.1-0.4,4.7c0.8,1.7,2.5,2.7,4.3,3.2c0.3,0.1,0.5-0.2,0.4-0.4c-0.3-0.8-0.1-1.7-0.1-2.6
		c0-0.8-0.3-1.6-0.5-2.4c-0.2-0.6-0.7-1.5-1.3-2c0.5,0.1,1,0.1,1.5,0.2c1.7,0.2,3.5,0.2,5.2,0c0.9-0.1,1.8-0.2,2.6-0.4
		c0.6-0.1,1.3-0.3,1.8-0.6c0.3,0.2,0.6,0.3,1,0.4c0.7,0.2,1.4,0,1.9-0.5c0.5-0.4,0.7-1.1,0.5-1.7c-0.2-0.6-0.6-1-1.2-1.2
		c-1.2-0.4-2.4,0.4-2.6,1.6c0,0.2,0,0.4,0,0.6c-0.5,0.1-1.1,0.3-1.6,0.4c-0.8,0.2-1.7,0.3-2.5,0.4c-1.5,0.2-3,0.2-4.5,0.1
		c0.4-0.2,0.8-0.5,1.1-0.7c1.5-1.3,2.5-3.2,3.5-4.9c0.2-0.3-0.1-0.7-0.5-0.5c-1.8,0.7-3.5,1.5-5.2,2.5c-1.2,0.7-2.3,1.8-2.3,3.2
		c-1-0.2-1.9-0.3-2.9-0.5c-1.5-0.3-2.9-0.8-4.4-1c5.5-3,10.7-6.4,15.5-10.3c3.3,1,6.8,1.1,10.2,0.6c0,0.1,0,0.2,0.1,0.2
		c0.6,1.7,2.3,2.9,3.9,3.5c1.8,0.6,4.4,0.9,6.1-0.2c0.3-0.2,0.3-0.7-0.2-0.7c-1-0.1-1.9-1-2.8-1.5c-0.7-0.4-1.5-0.8-2.3-1
		c-0.8-0.3-1.7-0.4-2.5-0.5c-0.1,0-0.2,0-0.3,0c1.2-0.2,2.3-0.6,3.4-1c1.5-0.5,3.2-1.2,4.5-2.2c0.6,0.5,1.5,0.6,2.2,0.4
		c0.8-0.3,1.4-1,1.4-1.9c0-0.8-0.6-1.6-1.4-1.9c-0.6-0.2-1.2,0-1.7,0.2c-0.6,0.3-1.1,0.8-1.2,1.4c-0.1,0.4,0,0.8,0.2,1.2
		c-1.4,0.5-2.8,1.3-4.3,1.8c-1.7,0.6-3.4,1-5.2,1.3c0.7-0.5,1.4-1.2,1.8-1.8c1.3-1.6,2.1-3.6,3-5.5c0.2-0.3-0.1-0.7-0.4-0.5
		c-1.7,0.9-3.4,1.9-4.7,3.4c-1,1.1-2,2.9-1.8,4.5c0,0-0.1,0.1-0.1,0.1c-2.5,0.2-5,0-7.5-0.4c2.8-2.3,5.4-4.7,7.8-7.3
		c0.9-1,1.8-2,2.7-3c0.8,0.5,1.9,0.8,2.8,1c1,0.2,1.9,0.2,2.9-0.3c2-0.9,3.6-2.6,5.2-4.2c0.3-0.3,0-0.7-0.3-0.6
		c-3,0.3-6,0.5-8.7,1.9c2.1-2.6,4-5.4,5.6-8.3C185,141.9,185.5,141.7,186,141.5z M195.6,138.2c1.9-0.1,3.6,0.7,5.3,1.4
		c-1.7,0.9-3.5,1.6-5.3,2c-1.1,0.2-2.4,0.2-3.4-0.3c-1-0.4-1.5-1.2-2.3-1.9c0.1,0,0.1-0.1,0.2-0.1
		C191.7,138.5,193.7,138.2,195.6,138.2z M202.4,112.3c-1,1.2-1.8,2.6-3.2,3.4c-0.8,0.4-1.6,0.6-2.5,0.8c-0.7,0.1-1.4,0.1-2.1,0.1
		C196.6,114.3,199.4,112.7,202.4,112.3z M190.5,86.6c0,0.4-0.1,0.8-0.1,1.1c0,0.7-0.1,1.5-0.2,2.2c-0.2,1.3-0.7,2.3-1.5,3.2
		c-0.1-1.2-0.2-2.4,0.1-3.6C189.1,88.4,189.8,87.5,190.5,86.6z M184.6,89.1c-0.8-0.5-1.6-1.2-2.3-1.9c-1.1-1.2-2.5-2.8-2.6-4.5
		c2.1,0.2,4.1,1.1,5.5,2.7c0.7,0.8,1.2,1.8,1.5,2.8c0.2,0.7,0.2,1.4,0.3,2.1C186.2,89.9,185.3,89.6,184.6,89.1z M192.1,99.4
		c0.8-1.5,1.9-2.9,3.2-3.9c-0.6,1.6-0.7,3.3-1,5.1c-0.2,1.1-0.5,2.2-1.1,3.1c-0.6,0.8-1.3,1.2-2.1,1.6c0-0.2-0.1-0.4-0.1-0.7
		c0.1-0.7,0.1-1.4,0.2-2C191.3,101.4,191.7,100.4,192.1,99.4z M188,106.8c-0.9,0-1.8-0.2-2.7-0.5c-1.5-0.6-3-1.3-4.4-2.2
		c1.7-0.5,3.5-1,5.2-0.5c0.9,0.2,1.7,0.6,2.5,1.1c0.4,0.3,0.8,0.7,1.1,1c0,0.2,0,0.4,0.1,0.6C189.3,106.6,188.7,106.8,188,106.8z
		 M188.4,116.4c-0.6-0.6-1.1-1.2-1.6-1.9c-0.7-1.3-1.1-2.6-1.2-4.1c0.6,0.3,1.1,0.6,1.7,1c0.7,0.5,1.6,1,2,1.7c0.6,1,0.9,2.2,1,3.4
		c0,0.4,0,0.8-0.1,1.2C189.5,117.3,188.9,116.9,188.4,116.4z M169.4,141c0.3,0.4,0.7,0.7,1.1,1c0.8,0.6,1.3,1.4,1.7,2.3
		c0.7,1.7,0.7,3.4,0.8,5.2C170,148,169.1,144.3,169.4,141z M155.2,163.2c-0.4-0.8-0.8-1.7-0.9-2.6c-0.2-1.3,0-2.6,0.2-4
		c1,1.3,2.1,2.4,2.5,4c0.2,0.8,0.3,1.7,0.2,2.6c-0.1,0.7-0.4,1.3-0.5,2c0,0.1,0,0.1-0.1,0.2C156,164.9,155.6,163.9,155.2,163.2z
		 M146.2,172c-0.3-1-0.3-2-0.1-3c0.3-1.7,0.8-3.5,1.3-5.2c0.5,1.6,0.9,3.2,1.1,4.7c0.1,1.1,0,2.2-0.3,3.2c-0.3,0.9-0.7,1.7-1,2.6
		c0,0,0,0-0.1,0C146.8,173.6,146.4,172.9,146.2,172z M160.1,179.6c0.3,1.1,0,2.2,0.2,3.3c-1.4-0.5-2.6-1.3-3.2-2.6
		c-0.6-1.4-0.2-2.8,0.2-4.1c0.6,0.3,1.2,0.6,1.7,1.1C159.6,177.9,159.9,178.8,160.1,179.6z M161.4,171.9c1.1-0.6,2.2-1.1,3.3-1.6
		c-0.7,1.1-1.4,2.3-2.3,3.3c-0.5,0.5-1.1,1-1.8,1.3c-0.5,0.2-1,0.3-1.5,0.3c-0.3,0-0.5-0.1-0.8-0.1
		C158.8,173.5,160,172.7,161.4,171.9z M178.7,164.3c1,0.1,1.9,0.3,2.8,0.7c0.9,0.3,1.7,0.8,2.4,1.3c0.4,0.3,0.8,0.5,1.2,0.7
		c-1.4,0.4-3.1,0.2-4.4-0.2c-1.4-0.5-2.5-1.3-3.4-2.4C177.8,164.3,178.3,164.3,178.7,164.3z M175.1,161.3c0.4-0.9,0.9-1.8,1.6-2.5
		c1-1,2.1-1.8,3.3-2.5c-0.6,1.3-1.3,2.6-2.1,3.8c-0.5,0.7-1,1.3-1.6,1.9c-0.5,0.4-1,0.6-1.6,0.8
		C174.8,162.3,174.9,161.8,175.1,161.3z M167.5,152.1c0.2,1.7,0.3,3.5-0.1,5.2c-0.3,1.6-0.9,3-1.7,4.3
		C164.9,158.3,165.7,155,167.5,152.1z M192.1,127.5c1-1.1,2.2-1.9,3.5-2.6c-0.8,1.5-1.6,3.1-2.6,4.5c-1.1,1.4-2.4,2.4-4.1,2.8
		c0.5-0.7,0.8-1.4,1.2-2.1C190.7,129.1,191.4,128.2,192.1,127.5z M178.3,126.2c1.4-0.6,3-0.5,4.4,0c1.4,0.5,2.4,1.5,3.3,2.6
		C183.2,129.3,180.3,128.3,178.3,126.2z M180.3,142.5c-0.3-0.8-0.4-1.7-0.4-2.6c0.1-1.6,0.3-3.1,0.7-4.7c0.7,1.4,1.3,2.7,1.5,4.3
		c0.2,1.6-0.1,3.2-0.6,4.7C181,143.7,180.6,143.2,180.3,142.5z M182.3,149.7c1.4-0.3,2.9-0.4,4.3-0.5c-1.1,1.1-2.3,2.2-3.6,3
		c-1,0.6-1.9,0.8-3,0.6c-0.9-0.2-1.7-0.6-2.5-0.9c0.1-0.2,0.3-0.3,0.4-0.5C179.3,150.6,180.7,150,182.3,149.7z"/>
	<path class="st0" d="M188.1,85.6c-1.3-2.4-2.2-5.1-2.7-7.8c0-0.2-0.1-0.3-0.1-0.5c0.2-1.5,0.6-3,1.3-4.4c0.4-0.8,0.8-1.6,1.4-2.3
		c0.4-0.6,0.9-1.2,1.3-1.8c0,0,0,0,0,0.1c0.3,0.4,1,0.5,1.5,0.3c0.5-0.3,0.7-1.1,0.5-1.6c-0.3-0.5-1-0.8-1.6-0.5
		c-0.5,0.2-0.7,0.8-0.6,1.3c0,0,0,0,0,0c-1.5,0.9-2.4,2.8-3.1,4.3c-0.4,0.9-0.7,1.8-0.9,2.7c-0.5-4.1-0.2-8.3,0-12.4
		c0-0.6,0.1-1.1,0.1-1.7c0.6-0.7,1.1-1.4,1.7-2.1c0.4-0.5,0.9-0.9,1.4-1.3c0.2-0.2,0.5-0.4,0.7-0.6c0.4,0.3,0.9,0.5,1.4,0.3
		c0.6-0.2,1-0.9,0.9-1.5c-0.1-0.6-0.8-1-1.3-0.9c-0.7,0.1-1.1,0.8-1.1,1.5c0,0,0,0,0,0.1c-0.9,0.3-1.8,1.4-2.4,2.1
		c-0.3,0.4-0.7,0.8-1,1.2c0.1-1.5,0.1-3,0.1-4.5c0-1.7,0-3.5-0.3-5.2c0.9,0.1,1.9-0.4,2.7-0.8c1.1-0.7,2.1-1.6,3-2.6
		c0.2-0.2,0.1-0.5-0.2-0.6c-1.7-0.4-3.8,0.5-5.2,1.8c0.4-0.8,0.4-1.9,0.3-2.7c-0.1-1.4-0.7-2.7-1.5-3.9c-0.2-0.2-0.5-0.2-0.6,0.1
		c-0.4,1.2-0.6,2.6-0.4,3.9c0.1,0.5,0.1,1,0.3,1.5c-0.8-0.8-2-1.4-3.2-1.5c-0.3,0-0.4,0.2-0.3,0.4c0.9,1.6,2.2,3.7,4.1,3.8
		c0,2.4,0.2,4.7,0.2,7.1c0,1-0.1,2.1-0.1,3.2c-0.2-0.5-0.3-1-0.5-1.5c-0.3-0.8-0.6-1.7-1-2.5c-0.2-0.5-0.5-1-0.8-1.4
		c0.3-0.3,0.4-0.8,0.3-1.3c-0.2-0.6-0.8-0.9-1.4-0.8c-0.6,0.1-1,0.7-0.9,1.3c0,0.4,0.3,0.7,0.7,0.9c0.2,0.1,0.5,0.1,0.8,0.1
		c0.2,0.5,0.5,1,0.7,1.5c0.4,0.8,0.7,1.5,1,2.3c0.3,0.8,0.5,1.5,0.8,2.3c0.1,0.5,0.2,1,0.4,1.4c-0.1,2.3-0.3,4.6-0.3,6.9
		c-0.1-0.2-0.3-0.5-0.4-0.7c-0.6-1.1-1.4-2.2-2.1-3.3c-1.7-2.6-3.6-5-6-6.8c0.3-0.4,0.5-1.1,0.5-1.6c0.2-1.7,0-3.6-1.1-4.9
		c-0.6,1.1-1,2.3-0.9,3.6c0,0.9,0.3,1.7,0.8,2.5c-0.6-0.4-1.3-0.9-2-1.2c-0.8-1.4-1.4-2.9-1.8-4.5c0.1-0.5,0.1-0.9,0.3-1.4
		c0.2-0.6,0.4-1.1,0.7-1.7c0.5-0.9,1.2-1.5,1.8-2.3c0.1,0.1,0.3,0.2,0.5,0.2c0.4,0.1,0.8-0.2,1-0.5c0.2-0.3,0.2-0.8,0-1.2
		c-0.2-0.3-0.5-0.6-0.9-0.6c-0.3,0-0.6,0.3-0.8,0.6c-0.2,0.3-0.3,0.7-0.2,1c-0.9,0.6-1.6,1.8-2,2.7c-0.3,0.5-0.5,1.1-0.7,1.7
		c-0.2-0.8-0.3-1.7-0.3-2.5c-0.1-1.5-0.1-2.9,0-4.4c0.1-0.8,0.1-1.6,0.2-2.4c0.1-0.5,0.2-1.1,0.1-1.6c0.7,0.3,1.8,0,2.4-0.3
		c0.8-0.4,1.5-1,2.1-1.7c0.1-0.1,0.1-0.4-0.1-0.4c-1.5-0.2-2.9,0.2-4,1.2c0.2-0.7,0.3-1.4,0.4-2c0.1-1,0-2.1-0.5-3
		c-0.1-0.2-0.3-0.1-0.4,0c-0.5,1-0.9,2.1-1,3.2c0,0.5-0.1,1.1,0,1.7c-0.9-0.9-2.1-1.5-3.3-1.3c-0.2,0-0.3,0.2-0.2,0.4
		c0.6,0.9,1.2,1.9,2.3,2.4c0.4,0.2,1,0.4,1.5,0.3c-0.1,0.4-0.1,0.9-0.2,1.4c-0.1,0.7-0.2,1.5-0.2,2.2c0,0.6-0.1,1.2-0.1,1.8
		c-0.8-1.6-1.7-2.7-3.4-3.4c-0.3-0.1-1.3-0.4-1.6-0.3c0.5,1,1.1,2.1,1.9,2.9c0.8,0.8,2,1.2,3.1,0.9c0,0.9,0,1.8,0.1,2.6
		c0.2,2.7,1,5.5,2.5,7.8c-0.2-0.1-0.4-0.2-0.5-0.2c-0.3-0.1-0.5-0.2-0.8-0.3c0-0.1,0-0.1-0.1-0.2c-1-0.7-1.8-1.4-2.6-2.2
		c0.6-2.8-1.7-5.1-4.1-6.1c-0.2-0.1-0.4,0-0.4,0.3c-0.1,1.6,0.1,3.1,1,4.4c0.7,0.9,1.9,1.9,3.1,1.8c0.5,0.5,1,1.1,1.6,1.5
		c-3.1-1.1-6.3-2.1-8.8-4.4c0.4-0.2,0.7-0.7,0.8-1.1c0.3-1,0-2.3,0-3.3c0-0.2-0.3-0.3-0.4-0.2c-0.8,0.8-1.4,2.2-1.3,3.4
		c0,0-0.1-0.1-0.1-0.1c0.5-2-0.6-3.7-1.7-5.2c-0.1-0.2-0.4-0.1-0.5,0.1c-0.3,1.1-0.3,2.3,0.1,3.4c0.3,0.9,0.9,1.9,1.8,2.2
		c-0.4-0.1-0.9-0.1-1.3-0.1c-1.1,0-2.2,0.1-3.2,0.7c-0.2,0.1-0.2,0.4,0,0.5c0.9,0.4,2,1.1,3.1,0.9c0.7-0.1,1.8-0.5,2.1-1.2
		c1.2,1.5,2.9,2.6,4.7,3.4c1.4,0.7,2.9,1.2,4.4,1.7c-0.4,0-0.7,0-1.1,0.1c-1,0.1-2.1,0.2-2.9,0.7c-0.1-0.2-0.4-0.3-0.6-0.3
		c-0.3,0-0.6,0.1-0.8,0.3c-0.2,0.2-0.4,0.6-0.3,0.9c0,0.3,0.3,0.6,0.6,0.8c0.1,0,0.2,0.1,0.4,0.1c0.4,0,0.8-0.2,1-0.5
		c0.1-0.2,0.2-0.5,0.1-0.8c0.9-0.2,1.7-0.5,2.6-0.6c0.5-0.1,1.1-0.1,1.7-0.1c0.2,0,0.5,0,0.7-0.1c0.2,0.1,0.5,0.2,0.7,0.3
		c1.5,0.6,2.8,1.3,4,2.3c-1.7-0.1-3.4,0.5-4.8,1.6c-0.2,0.2-0.1,0.5,0.2,0.5c1.9,0.1,4.4,0.4,5.8-1.2c0.2,0.2,0.4,0.3,0.6,0.5
		c1.7,1.7,3.1,3.6,4.5,5.6c0.3,0.4,0.6,0.8,0.9,1.3c-0.8-0.5-1.8-0.8-2.5-1c-0.8-0.3-1.7-0.4-2.5-0.5c-0.6-0.1-1.2-0.2-1.8,0
		c0-0.1-0.1-0.3-0.3-0.4c-0.2-0.2-0.5-0.3-0.8-0.3c-0.2,0.1-0.5,0.2-0.6,0.5c-0.2,0.2-0.2,0.5-0.2,0.8c0.1,0.3,0.3,0.6,0.6,0.6
		c0.3,0.1,0.6,0,0.9-0.2c0.1-0.1,0.3-0.3,0.3-0.5c0.5,0.2,1.2,0.1,1.8,0.2c0.6,0.1,1.1,0.2,1.7,0.3c-0.4,0.1-0.8,0.2-1.1,0.3
		c-1,0.3-2.3,0.8-3.1,1.6c-0.1-0.1-0.4-0.2-0.6-0.2c-0.3,0-0.6,0.1-0.8,0.3c-0.2,0.2-0.4,0.6-0.3,0.9c0,0.3,0.3,0.6,0.6,0.8
		c0.1,0,0.2,0.1,0.4,0.1c0.4,0,0.8-0.2,1-0.5c0.2-0.3,0.2-0.6,0-0.9c1-0.4,1.8-1.1,2.8-1.4c0.6-0.2,1.2-0.3,1.8-0.4
		c0.3,0,0.6,0,0.9,0c1,0.3,2,0.8,2.7,1.5c0,0,0,0,0,0c0,0,0.1,0.1,0.1,0.1c0.5,0.8,0.8,1.7,1.1,2.6c0.1,1.5,0.2,3,0.4,4.4
		c-0.5-0.7-1.1-1.3-1.7-1.8c-0.3-0.2-0.6-0.5-0.9-0.7c-0.1-1-1.2-1.8-2.1-2.1c-1.4-0.4-2.5,0.2-3.8,0.7c-0.2,0.1-0.3,0.4-0.1,0.6
		c1.5,1,3.7,2,5.5,1.2c0.4,0.3,0.7,0.6,1.1,0.9c0.4,0.3,0.7,0.7,1,1.1c-0.6-0.3-1.3-0.5-2-0.4c-1,0.1-1.9,0.4-2.8,0.7
		c0.8,0.3,1.6,0.6,2.5,0.8c0.9,0.1,1.8,0,2.5-0.4c0.1,0,0.1-0.1,0.2-0.1c0.3,0.3,0.6,0.7,0.9,1c0.6,2.9,1.7,5.7,3.5,8.2
		C187.9,86.1,188.2,85.8,188.1,85.6z M180.3,73.2c-0.5-0.2-1-0.4-1.5-0.6c-0.2-0.1-0.3,0.3-0.1,0.4c0.5,0.3,1.1,0.6,1.6,0.9
		c-1.4,0.2-2.9-0.4-4.1-1.1c0.7-0.3,1.5-0.6,2.3-0.5C179.4,72.3,179.9,72.7,180.3,73.2z M159,51.1c-0.6,0.5-1.5,0.9-2.3,0.8
		c-0.6-0.1-1.2-0.3-1.8-0.6c0.7-0.3,1.4-0.4,2.1-0.3C157.6,51,158.4,50.9,159,51.1z M158.4,49.7c-0.5-0.5-0.9-1-1.1-1.7
		c-0.3-0.8-0.3-1.6-0.2-2.4C157.9,46.8,158.7,48.2,158.4,49.7z M159.6,50.8c0-0.6-0.1-1.2,0-1.8c0.1-0.5,0.3-1,0.6-1.4
		c0,0.6,0.1,1.1,0.1,1.7c0,0.5,0,0.9-0.3,1.3C159.9,50.6,159.7,50.7,159.6,50.8z M167.1,53.2c-0.8-0.9-1.4-2.1-2.3-2.9
		c-0.1-0.1-0.3,0-0.3,0.2c0.1,0.7,0.7,1.3,1.2,1.9c0.3,0.4,0.6,0.7,0.9,1.1c-2-0.8-3-2.9-2.9-5.1C165.5,49.3,167.2,51,167.1,53.2z
		 M167.7,38.7c0.7,0.4,1.3,0.8,1.8,1.4c-0.5,0-1,0-1.5-0.3c-0.7-0.4-1.2-1-1.6-1.6C166.9,38.3,167.3,38.5,167.7,38.7z M170.2,38.7
		c-0.1,0.2-0.2,0.4-0.4,0.7c-0.1-0.2-0.1-0.5-0.2-0.8c-0.1-0.5-0.1-1,0-1.6c0.1-0.8,0.3-1.6,0.7-2.4c0.3,0.8,0.3,1.7,0.2,2.6
		C170.5,37.7,170.4,38.2,170.2,38.7z M170.4,39.7c0.9-1,2.3-1.5,3.7-1.5c-0.5,0.5-1.1,0.9-1.8,1.1C171.7,39.6,171.1,39.5,170.4,39.7
		z M172.9,46.6C172.9,46.6,172.9,46.7,172.9,46.6C172.9,46.7,172.9,46.7,172.9,46.6L172.9,46.6z M174.9,59.8c0.1,0,0.1,0.1,0.2,0.1
		c-0.8,0.5-1.5,1-2.6,1c-0.7,0.1-1.3,0-2,0C171.9,60.2,173.4,59.8,174.9,59.8z M180.6,46.4c1.4,0.4,2.5,1.3,3.3,2.5
		c0,0.1,0,0.2,0,0.3c-0.6-0.1-1.1-0.2-1.7-0.7C181.6,47.8,181,47.1,180.6,46.4z M184.4,48.4C184.4,48.4,184.4,48.4,184.4,48.4
		c0-0.1-0.1-0.2-0.1-0.2c-0.2-0.9-0.6-1.8-0.6-2.8c-0.1-0.9,0-1.9,0.2-2.8c0.5,0.8,0.9,1.8,1,2.8C184.9,46.6,184.7,47.5,184.4,48.4z
		 M184.8,49.9C184.8,49.8,184.8,49.8,184.8,49.9c0.1-0.1,0.1-0.3,0-0.4c1.1-1.3,3-2.5,4.8-2.4c-0.7,0.7-1.4,1.4-2.2,1.9
		c-0.5,0.3-0.9,0.5-1.4,0.7C185.6,49.7,185.2,49.7,184.8,49.9z"/>
	<path class="st0" d="M106.2,18.6c-0.6-0.5-1.2-0.9-1.8-1.3c-0.3-0.2-0.6-0.4-1-0.6c1.1-1.8,0.8-4.1-0.4-5.8
		c-1.3-1.9-3.3-3.3-5.1-4.7c-0.3-0.2-0.6,0.1-0.5,0.3c0.2,2.1,0.4,4.3,1.5,6.1c0.6,0.9,1.2,1.8,2,2.6c-0.2-0.1-0.3-0.1-0.5-0.2
		c-1.4-0.6-2.9-1.1-4.4-1.5c-0.7-0.2-1.4-0.4-2.2-0.5c-0.1,0-0.3-0.1-0.4-0.1c0-0.7-0.6-1.5-1.1-1.9c-0.7-0.5-1.7-0.6-2.5-0.2
		c-0.4,0.2-0.8,0.5-1,1c-0.3,0.7-0.2,1.6,0.4,2.2c0.5,0.6,1.3,0.8,2.1,0.8c0.7-0.1,1.4-0.4,1.8-1c0.1,0,0.1,0,0.2,0
		c0.8,0.1,1.6,0.3,2.4,0.5c1.5,0.4,2.9,0.9,4.3,1.5c1.4,0.6,2.8,1.3,4.1,2.1c0.7,0.4,1.3,0.8,2,1.3c0.2,0.1,0.3,0.2,0.5,0.4
		c-1.4,0-2.7,0-4.1,0.2c-1.5,0.1-2.9,0.3-4.4,0.6c0,0,0,0,0-0.1c-0.7-1.5-2.5-2.2-4-2.6c-2.2-0.5-4.4-0.1-6.6-0.3
		c-0.3,0-0.5,0.4-0.3,0.6c1.3,1.3,3,2.1,4.7,2.5c1,0.2,1.9,0.4,2.9,0.5c0.1,0,0.2,0,0.3,0c-2.7,0.6-5.4,1.5-8.1,2.6
		c-1.3-0.4-2.8-0.6-4.2-0.7c-0.3-0.8-0.8-1.5-1.2-2.2c-0.5-0.7-1-1.3-1.7-1.8c-1.6-1.1-3.6-1-5.4-1.6c-0.3-0.1-0.6,0.2-0.4,0.5
		c1.5,2.4,4,4.3,6.7,5.1c-0.2,0-0.5,0-0.7,0c-1.2,0-2.4,0.1-3.6,0.3c-0.4,0.1-0.9,0.1-1.4,0.2c-0.3-0.7-0.9-1.5-1.6-1.7
		c-0.9-0.3-2,0.1-2.5,0.9c-0.5,0.8-0.4,1.9,0.2,2.6c0.6,0.7,1.7,1,2.6,0.7c0.6-0.2,1.2-0.8,1.4-1.4c0.5-0.1,0.9-0.2,1.4-0.3
		c1.2-0.2,2.3-0.3,3.5-0.4c2.1-0.1,4.1,0,6.1,0.2c-1.2,0.5-2.4,1.1-3.6,1.7c-2.7,1.4-5.2,2.9-7.7,4.6c-0.9-1.3-2.9-1.5-4.3-1.3
		c-2.4,0.4-4.6,2-7.1,1.8c-0.3,0-0.5,0.4-0.2,0.5c1.8,1.1,3.8,1.6,5.9,1.6c0.9,0,1.8-0.2,2.7-0.4c-1.3,1-2.6,2.1-3.8,3.2
		c-0.7,0.6-1.3,1.2-2,1.8c0,0,0,0,0,0c-1-0.6-2.3-0.4-3.4-0.1c-0.6,0.2-1.3,0.4-1.9,0.7c-0.7,0.3-1.7,0.9-2.5,1
		c-0.3,0-0.5,0.4-0.1,0.6c1.4,0.6,3,0.8,4.5,0.4c0.7-0.2,1.3-0.5,1.8-0.9c-0.2,0.2-0.3,0.4-0.5,0.6c-0.8,0.3-1.6,0.9-2.2,1.4
		c-0.8,0.7-1.4,1.6-1.8,2.6c-0.9,2.1-0.8,4.7,0.3,6.7c0.1,0.2,0.3,0.3,0.5,0.2c1.7-1,2.6-2.8,3.2-4.6c0.3-1,0.5-2,0.6-3
		c0.1-0.9,0.1-2-0.2-2.9c1.3-1,2.5-2.2,3.8-3.4c0.8-0.7,1.5-1.4,2.3-2c-0.5,1.2-0.8,2.6-0.9,3.8c-0.2,1.2-0.3,2.4-0.4,3.5
		c0,0.2,0,0.5-0.1,0.7c-0.5,0.3-0.8,1-0.8,1.8c0,0.5,0.1,0.9,0.4,1.3c0.5,0.5,1.3,0.5,2,0.4c0.4-0.1,0.9-0.3,1.1-0.7
		c0.2-0.3,0.3-0.7,0.2-1c-0.1-0.6-0.4-1.2-0.9-1.5c-0.3-0.3-0.7-0.4-1-0.4c0-0.2,0-0.5,0.1-0.7c0.1-1.1,0.2-2.1,0.3-3.2
		c0.1-1.1,0.3-2.1,0.7-3.1c0.2-0.6,0.5-1.2,0.7-1.8c0.1-0.1,0.1-0.1,0.2-0.2c0.7-0.5,1.4-1,2.1-1.5c0,0.1-0.1,0.2-0.1,0.4
		c-0.2,0.9-0.2,1.9,0,2.8c0.5,2.1,2.1,3.6,3.5,5.1c0.2,0.2,0.6,0.1,0.6-0.2c0.2-2,0.2-4.2-0.2-6.2c-0.2-1.2-0.8-2.6-1.9-3.3
		c1.5-1,3-1.9,4.5-2.8c0.2-0.1,0.4-0.2,0.5-0.3c-0.2,0.2-0.3,0.4-0.5,0.6c-0.5,0.7-0.6,1.5-0.7,2.4c-0.1,1-0.1,2,0,3
		c0,0.3,0.4,0.4,0.6,0.2c1.4-0.9,2.7-2.1,3.6-3.6c0.7-1.2,1.4-3.1,1-4.6c3.7-1.7,7.6-3,11.6-3.8c-1.6,1-3,2.3-4.2,3.6
		c-1,1.1-2,2.3-2.8,3.6c-0.5,0.9-1.2,1.9-1.6,2.9c-0.1,0-0.3,0.1-0.4,0.2c-1,0.6-2.2,1.8-1.6,3.1c0.4,0.8,1.4,1.2,2.3,1
		c1.1-0.3,1.9-1.3,1.8-2.4c-0.1-0.6-0.4-1.3-1-1.6c0.1-0.2,0.2-0.3,0.3-0.5c0.3-0.7,0.7-1.3,1.1-1.9c0.8-1.2,1.6-2.4,2.6-3.5
		c0.6-0.7,1.2-1.3,1.9-2c-1.3,2.8-1,6.5,1.8,8.4c0.2,0.1,0.5,0,0.6-0.2c1.2-3,0.6-6.5-1.5-8.9c0-0.1,0-0.1,0.1-0.2
		c0.8-0.7,1.7-1.4,2.7-1.9c0.4-0.1,0.8-0.1,1.2-0.2c2.8-0.4,5.7-0.5,8.5-0.3c-1,0.2-1.9,0.6-2.7,1.1c-1.7,1-2.8,2.6-3.8,4.3
		c-0.2,0.3,0.1,0.7,0.5,0.6c1.9-0.8,4-1.3,5.7-2.3c1.4-0.8,2.3-2,2.7-3.5c3.2,0.3,6.4,0.8,9.5,1.6c1.1,0.3,2.3,0.6,3.4,0.9
		c-1,0.1-2,0.3-2.9,0.4c-1.7,0.3-3.4,0.7-5.1,1.2c-1.6,0.5-3.2,1.1-4.8,1.9c-1.3,0.6-2.9,1.2-3.9,2.2c-0.6-0.1-1.2,0-1.7,0.2
		c-0.8,0.2-1.5,1-1.6,1.9c-0.1,0.8,0.4,1.5,1,1.9c0.5,0.3,1.1,0.3,1.6,0.2c1.6-0.2,2.8-1.7,2-3.3c-0.1-0.2-0.2-0.3-0.3-0.4
		c0.4-0.2,0.7-0.3,1-0.5c0.8-0.4,1.5-0.8,2.3-1.1c1.5-0.7,3.1-1.3,4.6-1.8c0,0,0.1,0,0.1,0c-0.9,0.5-1.7,1.2-2.3,1.9
		c-0.6,0.6-1,1.4-1.3,2.2c-0.3,0.9-0.3,1.8-0.7,2.7c-0.1,0.3,0.2,0.6,0.5,0.4c1.8-0.8,3.6-1.8,4.9-3.4c1-1.3,1.6-3,1.5-4.7
		c0.7-0.2,1.4-0.4,2.2-0.6c1.4-0.3,2.8-0.6,4.2-0.9c1.8,0.5,3.5,1.1,5.3,1.8c-1.2,0-2.4,0.1-3.6,0.5c-2,0.6-3.6,1.7-5.3,2.9
		c-0.2,0.2-0.1,0.6,0.2,0.6c3.6,0.4,7.9-0.2,10.3-3.3c0,0,0,0,0,0c2.2,0.9,4.3,1.8,6.4,2.9c1.3,0.7,2.6,1.4,3.9,2.1
		c-2.4-0.2-4.8-0.1-7.2,0.3c-1.5,0.2-3,0.5-4.5,0.8c-1.1,0.3-2.4,0.4-3.5,1c-0.4-0.4-1-0.7-1.7-0.5c-0.7,0.3-1.2,1.1-1.1,1.9
		c0.1,0.8,0.9,1.4,1.6,1.4c0.6,0,1.2-0.3,1.4-0.8c0.2-0.4,0.3-0.8,0.1-1.2c1.1-0.1,2.2-0.5,3.2-0.8c1.2-0.3,2.5-0.5,3.7-0.8
		c-0.2,0.1-0.4,0.3-0.5,0.4c-1.5,1.4-1.9,3.4-2.9,5.1c-0.2,0.3,0,0.7,0.4,0.6c1.7-0.5,3.5-1.1,4.9-2.3c0.7-0.6,1.2-1.4,1.7-2.2
		c0.4-0.7,0.8-1.4,0.8-2.2c1.5-0.1,3-0.2,4.4-0.2c1.9,1.1,3.8,2.3,5.7,3.5c-1.6,0-3.2,0.5-4.5,1.2c-1.8,1.1-3.1,2.8-4.6,4.2
		c-0.3,0.2-0.1,0.7,0.3,0.7c2.2-0.4,4.4-0.8,6.5-1.6c1.6-0.6,3-2,3.7-3.6c2.1,1.4,4.2,2.8,6.2,4.3c0.2,0.1,0.4-0.2,0.2-0.3
		c-2.7-2.2-5.5-4.3-8.5-6.2c-0.1-1.6-0.6-3.3-1.1-4.8c-0.2-0.6-0.3-1.2-0.5-1.8c1.5,0,3-0.5,4-1.7c1.1-1.4,1.1-3.3,0.7-4.9
		c-0.1-0.3-0.4-0.3-0.5-0.1c-0.5,0.6-1.4,0.8-2.1,1.2c-0.6,0.4-1.2,0.9-1.7,1.5c-0.4,0.5-0.9,1.2-1.1,2c-0.2-0.4-0.3-0.9-0.5-1.3
		c-0.6-1.5-1.4-2.9-2.3-4.3c-0.5-0.7-1-1.4-1.5-2c-0.4-0.4-0.8-0.9-1.3-1.2c0.1-0.3,0-0.6-0.1-1c-0.2-0.6-0.6-1.1-1.2-1.3
		c-0.5-0.2-1.2-0.1-1.6,0.3c-0.4,0.4-0.5,0.9-0.4,1.5c0.2,1.1,1.4,1.8,2.5,1.5c0.2-0.1,0.4-0.2,0.5-0.3c0.3,0.4,0.7,0.8,1,1.1
		c0.5,0.6,1,1.2,1.4,1.9c0.8,1.2,1.5,2.4,2,3.6c-0.4-0.2-0.7-0.4-1.1-0.6c-1.7-0.7-3.7-0.6-5.5-0.7c-0.4,0-0.5,0.4-0.2,0.6
		c1.4,1.1,2.8,2.2,4.4,3.1c1.1,0.6,2.5,1.1,3.7,0.5c0.3,0.9,0.6,1.7,0.8,2.6c0.4,1.3,0.6,2.7,1.1,4.1c-4.8-3.2-9.9-5.9-15.2-8.1
		c-0.7-3.1-2.1-6.1-4-8.6c0.1,0,0.1-0.1,0.1-0.2c1.1-1.2,1.4-3.1,1.1-4.7c-0.3-1.8-1.2-4-2.8-4.9c-0.3-0.2-0.7,0.1-0.5,0.5
		c0.4,0.9,0,2,0,2.9c0,0.8,0,1.6,0.2,2.4c0.1,0.8,0.4,1.6,0.7,2.3c0,0.1,0.1,0.2,0.1,0.2c-0.7-0.8-1.5-1.6-2.3-2.4
		c-1.1-1-2.4-2.1-3.8-2.7c0.1-0.7-0.1-1.5-0.6-2c-0.6-0.5-1.5-0.7-2.1-0.3c-0.7,0.4-1.1,1.2-0.9,1.9c0.1,0.5,0.5,1,0.9,1.3
		c0.5,0.3,1.1,0.5,1.7,0.4c0.4-0.1,0.7-0.4,0.9-0.7c1.1,0.9,2.3,1.7,3.3,2.7c1.2,1.1,2.3,2.3,3.3,3.7c-0.7-0.4-1.6-0.6-2.2-0.7
		c-1.9-0.3-3.9-0.1-5.8-0.1c-0.3,0-0.5,0.4-0.2,0.6c1.5,1,3.1,1.9,4.9,2.3c1.3,0.3,3.2,0.3,4.5-0.5c0,0,0.1,0,0.1,0
		c1.3,2,2.2,4.1,3,6.3c-3.1-1.2-6.2-2.3-9.4-3.2c-1.2-0.3-2.4-0.6-3.6-0.9c0.1-0.9-0.2-1.9-0.4-2.7c-0.3-0.9-0.7-1.7-1.5-2.2
		c-1.7-1.2-3.8-1.8-5.7-2.4c-0.3-0.1-0.6,0.3-0.4,0.5c1.6,2.3,3.1,4.7,5.4,6.3c-3.1-0.5-6.1-0.9-9.2-1
		C107,19.2,106.6,18.9,106.2,18.6z M99.3,12.2c-0.9-1.5-1-3.2-1.2-4.9c1.4,1,2.9,2.2,4,3.5c0.7,0.8,1.2,1.8,1.3,2.9
		c0.1,1-0.3,1.8-0.5,2.7c-0.1,0-0.1-0.1-0.2-0.1C101.3,15.2,100.1,13.7,99.3,12.2z M75.1,18c1.4,0.3,2.9,0.3,4.2,1.1
		c0.7,0.5,1.2,1.1,1.7,1.7c0.4,0.5,0.7,1.1,1,1.7C79.2,21.9,76.8,20.3,75.1,18z M59.3,39.1c0.3-0.1,0.7-0.2,1-0.4
		c0.6-0.3,1.2-0.6,1.9-0.8c1.2-0.4,2.2-0.4,3.3-0.2c-0.9,0.6-1.9,1.2-3,1.5C61.4,39.5,60.4,39.3,59.3,39.1z M63.9,42.8
		c-0.1,0.9-0.2,1.8-0.5,2.7c-0.4,1.4-1.2,3.3-2.5,4.1c-0.7-1.8-0.9-3.8-0.2-5.7c0.4-0.9,0.9-1.7,1.6-2.4c0.5-0.5,1.1-0.8,1.6-1.2
		C63.9,41.2,64,42,63.9,42.8z M69.1,32.1c-1.6,0-3.2-0.3-4.6-0.9c1.6-0.2,3-0.9,4.6-1.4c1-0.3,2-0.6,3-0.4c0.9,0.1,1.6,0.5,2.2,1.1
		c-0.2,0.1-0.3,0.2-0.5,0.4c-0.6,0.2-1.2,0.5-1.8,0.7C71.1,31.9,70.1,32.1,69.1,32.1z M76.9,32.2c0.4,0.7,0.6,1.6,0.7,2.4
		c0.2,1.5,0.3,3,0.1,4.5c-1.1-1.2-2.3-2.4-2.8-4c-0.2-0.8-0.3-1.7-0.2-2.5c0.1-0.5,0.2-0.9,0.4-1.3c0.2-0.1,0.3-0.2,0.5-0.3
		C76.2,31.3,76.6,31.7,76.9,32.2z M84.6,27.7c-0.2,0.8-0.5,1.5-0.9,2.1C83,31,82.1,31.9,81,32.6c0-0.6,0-1.2,0.1-1.8
		c0.1-0.8,0.1-1.7,0.5-2.4c0.6-0.9,1.4-1.7,2.3-2.3c0.3-0.2,0.7-0.3,1-0.5C84.8,26.4,84.8,27,84.6,27.7z M113.1,32.4
		c0.1-0.4,0.2-0.9,0.3-1.4c0.2-0.9,0.5-1.7,1.1-2.4c1-1.4,2.5-2.1,3.9-2.9C118.6,28.8,115.9,31.2,113.1,32.4z M137.6,34.2
		c-0.5,0.7-1,1.4-1.7,1.8c-1,0.7-2.2,1.2-3.3,1.6c0.6-1.3,1.1-2.8,2.1-3.8c0.6-0.6,1.3-1,2.1-1.3c0.6-0.2,1.2-0.3,1.9-0.4
		c0.1,0,0.1,0,0.2,0C138.6,32.8,138,33.6,137.6,34.2z M148.8,37.7c-0.7,0.7-1.5,1.1-2.4,1.4c-1.6,0.5-3.2,0.9-4.8,1.2
		c1.1-1.1,2.2-2.2,3.4-3c0.8-0.6,1.8-0.9,2.8-1.1c0.9-0.2,1.7-0.2,2.6-0.3c0,0,0,0,0.1,0C149.8,36.5,149.3,37.2,148.8,37.7z
		 M148.8,23c0.8-0.7,1.8-1,2.6-1.6c0.2,1.3,0.1,2.7-0.8,3.8c-0.8,1.1-2.2,1.4-3.5,1.7c0-0.7-0.1-1.3,0.2-1.9
		C147.6,24.1,148.2,23.5,148.8,23z M141.9,25.3c-0.9-0.6-1.9-1.3-2.7-2c1.2,0,2.5,0.1,3.7,0.4c0.7,0.2,1.3,0.5,1.9,0.9
		c0.4,0.3,0.7,0.7,0.9,1.1c0.1,0.2,0.2,0.5,0.3,0.7C144.4,26.7,143.2,26.1,141.9,25.3z M128.1,14.5c-0.3-0.8-0.6-1.7-0.7-2.6
		c-0.1-0.8-0.1-1.7,0-2.5c0-0.4,0.1-0.8,0.1-1.3c0.9,1,1.5,2.4,1.7,3.7c0.2,1.4,0,2.6-0.5,3.8C128.5,15.2,128.2,14.8,128.1,14.5z
		 M127.2,18.7c-0.9,0.1-1.8,0-2.7-0.2c-1.3-0.3-2.4-0.9-3.5-1.6c1.3,0,2.7-0.1,4,0c0.8,0.1,1.5,0.2,2.2,0.5c0.5,0.2,0.9,0.6,1.4,0.9
		C128.1,18.5,127.7,18.7,127.2,18.7z M123.1,29c1.3-0.9,2.7-1.8,4.3-2.2c1.4-0.4,2.8-0.5,4.3-0.5C129.2,28.4,126.2,29.3,123.1,29z
		 M92,19.8c-1.3-0.4-2.6-0.9-3.7-1.7c1.6,0,3.2-0.1,4.8,0.1c1.7,0.2,3,0.9,4.1,2.1c-0.7-0.1-1.5,0-2.3-0.1C94,20.1,93,20,92,19.8z
		 M97.1,31.6c-1.1-0.9-1.7-2.2-1.9-3.6c-0.2-1.3,0.2-2.6,0.6-3.8C97.4,26.3,97.9,29.1,97.1,31.6z M109.5,22.8
		c-0.5,0.6-1.2,1.1-2,1.4c-1.3,0.6-2.7,1.1-4.1,1.5c0.8-1.2,1.7-2.3,2.8-3.1c1.2-0.9,2.7-1.3,4.1-1.6
		C110.2,21.7,110,22.3,109.5,22.8z M114.6,17.9c-0.8-1-1.6-2.2-2.3-3.3c1.4,0.4,2.8,0.9,4.1,1.6c0.9,0.5,1.5,1.2,1.8,2.2
		c0.2,0.8,0.2,1.6,0.4,2.4c-0.2,0-0.4-0.1-0.6-0.1C116.7,20,115.5,19.1,114.6,17.9z"/>
	<path class="st0" d="M58,41.4c-1.6,2.2-3.7,4.2-5.9,5.8c-0.1,0.1-0.3,0.2-0.4,0.3c-1.5,0.4-3,0.7-4.5,0.7c-0.9,0-1.8-0.1-2.7-0.2
		c-0.7-0.1-1.5-0.4-2.2-0.4c0,0,0,0,0-0.1c0.2-0.5,0.1-1.1-0.4-1.5c-0.5-0.4-1.3-0.2-1.6,0.3c-0.4,0.5-0.2,1.3,0.2,1.6
		c0.4,0.3,1.1,0.3,1.5,0c0,0,0,0,0,0c1.4,0.9,3.6,1,5.2,1c0.9,0,1.9-0.1,2.8-0.3c-3.5,2.2-7.4,3.8-11.3,5.3c-0.5,0.2-1,0.4-1.5,0.6
		c-0.9-0.2-1.8-0.4-2.6-0.6c-0.6-0.2-1.2-0.4-1.8-0.7c-0.3-0.1-0.6-0.3-0.8-0.3c0.1-0.5,0.1-1-0.3-1.4c-0.4-0.5-1.2-0.6-1.7-0.2
		c-0.5,0.4-0.5,1.1-0.2,1.6c0.4,0.5,1.2,0.6,1.8,0.4c0,0,0,0,0,0c0.7,0.7,2,1.1,2.9,1.3c0.5,0.1,1,0.3,1.5,0.4
		c-1.4,0.6-2.8,1.2-4.2,1.8c-1.6,0.7-3.2,1.5-4.6,2.5c-0.3-0.9-1.2-1.6-1.9-2.1c-1.1-0.7-2.4-1.2-3.6-1.6c-0.2-0.1-0.5,0.2-0.4,0.4
		c0.4,1.7,2.1,3.2,3.9,3.9c-0.9,0-1.9,0.5-2.6,0.9c-1.2,0.7-2.2,1.8-2.8,3c-0.1,0.3,0.1,0.6,0.4,0.5c1.3-0.2,2.6-0.6,3.7-1.3
		c0.4-0.3,0.8-0.5,1.2-0.9c-0.4,1.1-0.4,2.4,0,3.5c0.1,0.2,0.4,0.3,0.5,0.1c1.1-1.5,2.4-3.5,1.7-5.4c2.1-1,4.2-2.2,6.3-3.2
		c1-0.4,1.9-0.8,2.9-1.2c-0.4,0.4-0.8,0.7-1.1,1.1c-0.6,0.6-1.3,1.3-1.8,2c-0.3,0.4-0.7,0.9-0.9,1.4c-0.4-0.1-1,0-1.3,0.3
		c-0.4,0.4-0.5,1.2-0.1,1.6c0.4,0.5,1.1,0.6,1.6,0.3c0.3-0.2,0.5-0.6,0.6-1c0-0.3-0.1-0.5-0.2-0.7c0.4-0.4,0.7-0.9,1.1-1.3
		c0.5-0.7,1.1-1.3,1.7-1.9c0.6-0.6,1.2-1.1,1.8-1.7c0.4-0.3,0.8-0.6,1.1-1c2.1-0.9,4.3-1.7,6.3-2.7c-0.2,0.2-0.3,0.4-0.5,0.6
		c-0.7,1.1-1.4,2.2-2.1,3.3c-1.6,2.6-3,5.4-3.6,8.3c-0.5-0.1-1.1,0-1.7,0.2c-1.6,0.6-3.3,1.5-4,3.1c1.2,0.1,2.5-0.1,3.6-0.7
		c0.8-0.4,1.4-1,1.9-1.8c-0.1,0.8-0.2,1.6-0.2,2.4c-0.9,1.4-2,2.6-3.3,3.6c-0.4,0.1-0.9,0.3-1.3,0.3c-0.6,0.1-1.2,0.1-1.8,0.1
		c-1-0.1-1.9-0.4-2.9-0.6c0.1-0.2,0.1-0.4,0-0.5c-0.1-0.4-0.5-0.7-0.9-0.7c-0.4,0-0.8,0.2-1.1,0.5c-0.2,0.3-0.3,0.7-0.2,1
		c0.2,0.3,0.5,0.5,0.9,0.5c0.4,0.1,0.8,0,1-0.3c1,0.5,2.3,0.7,3.3,0.7c0.6,0,1.2,0,1.8-0.1c-0.7,0.5-1.4,1-2.2,1.4
		c-1.3,0.7-2.6,1.3-4,1.8c-0.8,0.3-1.5,0.6-2.3,0.8c-0.5,0.2-1,0.3-1.5,0.5c-0.1-0.8-0.8-1.6-1.3-2.1c-0.7-0.6-1.6-1-2.5-1.2
		c-0.2,0-0.3,0.1-0.3,0.3c0.4,1.5,1.4,2.6,2.7,3.1c-0.7,0.1-1.4,0.3-2,0.5c-1,0.3-1.9,0.8-2.5,1.7c-0.1,0.2,0,0.3,0.2,0.4
		c1.1,0.1,2.3-0.1,3.3-0.5c0.4-0.2,1-0.4,1.5-0.7c-0.4,1.2-0.4,2.6,0.2,3.5c0.1,0.2,0.4,0.2,0.5,0c0.6-0.9,1.2-1.9,1.2-3.1
		c0-0.5-0.1-1.1-0.4-1.5c0.4-0.1,0.9-0.3,1.3-0.4c0.7-0.2,1.4-0.5,2.1-0.8c0.6-0.2,1.1-0.4,1.7-0.7c-1.1,1.4-1.8,2.7-1.6,4.5
		c0,0.3,0.2,1.4,0.4,1.6c0.7-0.9,1.4-1.9,1.8-3c0.3-1.1,0.2-2.3-0.5-3.2c0.8-0.4,1.6-0.8,2.4-1.2c2.4-1.4,4.6-3.2,6-5.6
		c0,0.2,0,0.4,0,0.6c0,0.3,0,0.6,0.1,0.8c-0.1,0-0.1,0-0.1,0.1c-0.2,1.2-0.5,2.3-0.9,3.3c-2.8,0.7-3.9,3.8-3.8,6.4
		c0,0.2,0.2,0.3,0.4,0.3c1.4-0.6,2.8-1.4,3.6-2.8c0.5-1,0.9-2.5,0.3-3.5c0.3-0.7,0.5-1.4,0.7-2.1c0.3,3.3,0.8,6.6-0.2,9.8
		c-0.3-0.2-0.9-0.3-1.3-0.2c-1.1,0.2-2.1,0.9-3,1.4c-0.2,0.1-0.2,0.4,0,0.5c1.1,0.4,2.6,0.3,3.6-0.3c0,0.1,0,0.1-0.1,0.2
		c-2,0.4-3,2.1-4,3.8c-0.1,0.2,0.1,0.4,0.3,0.4c1.1-0.2,2.2-0.7,3-1.5c0.6-0.6,1.3-1.6,1.2-2.6c0.1,0.4,0.3,0.8,0.5,1.2
		c0.4,1,1.1,1.9,2,2.5c0.2,0.1,0.4,0,0.4-0.2c0-1,0.1-2.3-0.5-3.2c-0.4-0.6-1.2-1.4-2-1.4c0.8-1.7,1.1-3.7,1.1-5.7
		c0-1.6-0.2-3.1-0.3-4.7c0.2,0.3,0.4,0.6,0.5,0.9c0.5,0.8,1.1,1.8,1.9,2.4c-0.1,0.2-0.1,0.5,0,0.7c0.1,0.3,0.4,0.5,0.7,0.6
		c0.3,0.1,0.7,0.1,1-0.1c0.3-0.2,0.5-0.5,0.4-0.8c0-0.1,0-0.2-0.1-0.4c-0.2-0.4-0.5-0.6-0.9-0.7c-0.3,0-0.5,0.1-0.7,0.3
		c-0.5-0.7-1.2-1.4-1.6-2.1c-0.3-0.5-0.6-1-0.8-1.4c-0.1-0.2-0.2-0.4-0.4-0.6c0-0.3,0-0.5-0.1-0.8c-0.1-1.6,0-3.1,0.3-4.6
		c0.7,1.6,1.9,2.9,3.5,3.7c0.3,0.1,0.5-0.1,0.4-0.4c-0.7-1.7-1.5-4.1-3.6-4.7c0.1-0.2,0.2-0.5,0.2-0.7c0.8-2.3,1.9-4.4,3.1-6.4
		c0.3-0.4,0.5-0.9,0.8-1.3c-0.1,0.9,0.1,1.9,0.2,2.7c0.1,0.9,0.3,1.7,0.6,2.5c0.2,0.5,0.3,1.2,0.7,1.6C46,62,46,62.1,45.9,62.3
		c-0.1,0.3-0.1,0.6,0.1,0.8c0.2,0.2,0.4,0.3,0.7,0.3c0.3,0,0.6,0,0.8-0.2c0.2-0.2,0.4-0.5,0.3-0.8c-0.1-0.3-0.3-0.6-0.6-0.7
		c-0.2-0.1-0.4-0.1-0.6-0.1c-0.1-0.6-0.4-1.1-0.6-1.7c-0.2-0.5-0.3-1.1-0.5-1.6c0.2,0.3,0.5,0.6,0.7,0.9c0.7,0.8,1.7,1.8,2.8,2.2
		c-0.1,0.2,0,0.4,0,0.6c0.1,0.3,0.4,0.5,0.7,0.6c0.3,0.1,0.7,0.1,1-0.1c0.3-0.2,0.5-0.5,0.4-0.8c0-0.1,0-0.2-0.1-0.4
		c-0.2-0.4-0.5-0.6-0.9-0.7c-0.3,0-0.6,0.1-0.8,0.4c-0.8-0.7-1.7-1.2-2.5-2c-0.4-0.5-0.8-1-1.2-1.5c-0.2-0.3-0.3-0.5-0.4-0.8
		c-0.1-1-0.1-2.1,0.3-3.1c0,0,0,0,0-0.1c0,0,0.1-0.1,0.1-0.1c0.5-0.8,1.2-1.5,1.8-2.1c1.3-0.7,2.6-1.4,3.8-2.3
		c-0.4,0.7-0.7,1.5-0.9,2.3c-0.1,0.4-0.2,0.7-0.2,1.1c-0.9,0.5-1.1,1.8-0.9,2.8c0.3,1.4,1.3,2.2,2.2,3.2c0.2,0.2,0.5,0.1,0.6-0.1
		c0.3-1.8,0.2-4.2-1.2-5.5c0.1-0.5,0.2-0.9,0.3-1.4c0.1-0.5,0.3-0.9,0.5-1.4c-0.1,0.7,0.1,1.4,0.5,2c0.5,0.8,1.2,1.5,1.8,2.2
		c-0.1-0.9-0.1-1.7-0.4-2.6c-0.3-0.8-0.7-1.6-1.4-2.1c-0.1,0-0.1-0.1-0.2-0.1c0.2-0.4,0.4-0.8,0.5-1.2c2.4-1.8,4.4-4,5.9-6.7
		C58.5,41.4,58.2,41.2,58,41.4z M50.1,53.7c0,0.5,0,1.1,0.1,1.6c0,0.2,0.4,0.2,0.4,0c0-0.6,0.1-1.2,0.2-1.8c0.7,1.2,0.9,2.8,0.7,4.2
		c-0.6-0.5-1.2-1.1-1.5-1.9C49.7,54.9,49.8,54.3,50.1,53.7z M39.3,82.5c0.7,0.3,1.5,0.9,1.7,1.7c0.2,0.6,0.2,1.2,0.2,1.8
		c-0.5-0.5-0.9-1.1-1.2-1.8C39.7,83.7,39.4,83.1,39.3,82.5z M38.3,83.6c-0.3,0.6-0.5,1.2-1.1,1.7c-0.6,0.6-1.3,0.9-2.1,1.2
		C35.8,85.2,36.8,83.9,38.3,83.6z M38.7,82c-0.5,0.3-1,0.6-1.7,0.8c-0.5,0.1-1.1,0.1-1.6,0c0.5-0.3,1-0.5,1.5-0.8
		c0.4-0.2,0.9-0.4,1.3-0.3C38.5,81.8,38.6,81.9,38.7,82z M37.7,74.2c-0.5,1.1-1.3,2.2-1.7,3.3c-0.1,0.2,0.2,0.3,0.3,0.2
		c0.6-0.4,0.9-1.2,1.2-1.9c0.2-0.4,0.4-0.8,0.6-1.2c0.1,2.2-1.4,3.9-3.4,4.9C34.9,77.3,35.7,75.1,37.7,74.2z M24.3,79.8
		c0.1-0.8,0.2-1.5,0.5-2.2c0.2,0.5,0.4,0.9,0.4,1.5c-0.1,0.8-0.4,1.5-0.8,2.1C24.3,80.7,24.3,80.3,24.3,79.8z M23.2,77.6
		c0.3,0,0.5,0,0.8,0c-0.2,0.2-0.4,0.3-0.6,0.5c-0.4,0.3-0.9,0.5-1.4,0.7c-0.8,0.3-1.6,0.4-2.5,0.4c0.6-0.7,1.4-1,2.3-1.3
		C22.2,77.7,22.7,77.6,23.2,77.6z M24,76.9c-1.3-0.4-2.4-1.4-2.9-2.7c0.7,0.2,1.3,0.6,1.8,1.1C23.4,75.8,23.6,76.4,24,76.9z
		 M29.2,71.7C29.3,71.7,29.3,71.7,29.2,71.7L29.2,71.7L29.2,71.7z M40.3,64.3c0-0.1,0-0.1,0.1-0.2c0.8,0.5,1.5,1,2,1.9
		c0.3,0.6,0.6,1.2,0.8,1.8C42,66.9,41,65.7,40.3,64.3z M25.8,64.9c-0.2-1.4,0.1-2.8,0.9-4c0.1,0,0.2-0.1,0.2-0.1
		c0.2,0.6,0.3,1.1,0.1,1.8C26.7,63.4,26.3,64.2,25.8,64.9z M26,60.6C26,60.6,26,60.6,26,60.6c-0.1,0.1-0.1,0.1-0.1,0.2
		c-0.7,0.6-1.4,1.3-2.2,1.8c-0.8,0.5-1.7,0.8-2.6,1c0.5-0.8,1.2-1.6,2.1-2.1C24.1,60.9,25,60.7,26,60.6z M27.1,59.6
		C27.1,59.6,27.1,59.6,27.1,59.6c-0.2,0-0.3,0-0.4,0.1c-1.7-0.4-3.5-1.7-4.2-3.3c0.9,0.3,1.8,0.6,2.6,1.2c0.5,0.3,0.9,0.6,1.2,1
		C26.6,58.9,26.8,59.3,27.1,59.6z"/>
	<path class="st0" d="M36.5,148.2c-0.1,0.8-0.2,1.6-0.2,2.4c0,0.4,0,0.8,0,1.2c-2.3,0-4.2,1.5-5.2,3.5c-1.1,2.2-1.3,4.9-1.6,7.3
		c0,0.3,0.4,0.5,0.6,0.3c1.8-1.3,3.8-2.6,4.9-4.6c0.6-1,1.1-2.1,1.4-3.2c0,0.2,0,0.4,0.1,0.6c0.2,1.7,0.5,3.3,0.9,4.9
		c0.2,0.8,0.4,1.5,0.7,2.3c0,0.1,0.1,0.3,0.1,0.4c-0.7,0.4-1.1,1.3-1.2,2c-0.1,0.9,0.4,1.9,1.2,2.4c0.4,0.3,0.9,0.5,1.5,0.4
		c0.8-0.1,1.6-0.7,1.8-1.5c0.3-0.8,0.1-1.7-0.4-2.4c-0.4-0.6-1.1-1-1.9-1.1c0-0.1-0.1-0.1-0.1-0.2c-0.3-0.8-0.6-1.7-0.8-2.5
		c-0.4-1.6-0.7-3.2-1-4.8c-0.2-1.6-0.3-3.3-0.3-4.9c0-0.8,0.1-1.7,0.1-2.5c0-0.2,0-0.4,0.1-0.7c0.7,1.3,1.5,2.5,2.3,3.7
		c0.9,1.3,1.8,2.6,2.9,3.8c0,0,0,0-0.1,0.1c-1,1.5-0.8,3.5-0.3,5.1c0.7,2.3,2.3,4.1,3.2,6.3c0.1,0.3,0.6,0.3,0.7,0
		c0.5-1.9,0.3-3.9-0.2-5.7c-0.3-1-0.7-2-1.1-3c0-0.1-0.1-0.2-0.1-0.3c2.1,2.2,4.3,4.3,6.7,6.1c0.4,1.5,0.9,2.9,1.6,4.3
		c-0.6,0.7-1,1.6-1.4,2.3c-0.4,0.8-0.7,1.7-0.8,2.6c-0.2,2.1,1,3.9,1.4,5.9c0.1,0.3,0.5,0.4,0.6,0.1c1.5-2.7,1.9-6,1.1-9
		c0.1,0.2,0.3,0.5,0.4,0.7c0.7,1.1,1.4,2.2,2.2,3.2c0.3,0.4,0.6,0.8,0.9,1.2c-0.5,0.7-0.9,1.6-0.7,2.4c0.2,1,1.2,1.8,2.2,1.8
		c1,0,2-0.6,2.4-1.6c0.4-0.9,0-2.1-0.7-2.8c-0.5-0.4-1.4-0.7-2.1-0.6c-0.3-0.4-0.7-0.8-1-1.1c-0.8-1-1.5-2-2.2-3
		c-1.2-1.9-2.2-3.8-3.1-5.8c1.1,0.8,2.3,1.7,3.5,2.4c2.7,1.8,5.5,3.3,8.4,4.7c-0.7,1.5,0.2,3.5,1.1,4.7c1.6,2.1,4.4,3.2,5.5,5.7
		c0.1,0.3,0.6,0.2,0.6-0.1c0.1-2.2-0.5-4.4-1.7-6.3c-0.5-0.8-1.1-1.6-1.9-2.3c1.6,0.7,3.3,1.3,5,1.9c0.9,0.3,1.8,0.6,2.7,0.9
		c0,0,0,0,0,0c0,1.2,0.9,2.4,1.7,3.2c0.5,0.5,1.1,0.9,1.6,1.4c0.7,0.5,1.8,1,2.2,1.8c0.2,0.3,0.7,0.2,0.6-0.2
		c-0.2-1.6-0.9-3.3-2-4.4c-0.5-0.5-1.1-0.9-1.8-1.2c0.3,0,0.6,0.1,0.8,0.1c0.7,0.6,1.7,1,2.5,1.2c1.1,0.3,2.3,0.4,3.4,0.3
		c2.5-0.3,4.8-1.7,6-3.9c0.1-0.2,0.1-0.5-0.1-0.6c-1.8-1.1-4-1-6-0.6c-1.1,0.2-2.1,0.6-3.1,1c-0.9,0.4-1.9,0.9-2.6,1.7
		c-1.7-0.7-3.4-1.2-5.2-1.8c-1.1-0.3-2.1-0.7-3.1-1.1c1.4-0.2,2.8-0.7,4-1.1c1.2-0.5,2.4-1,3.5-1.5c0.2-0.1,0.4-0.2,0.7-0.3
		c0.6,0.3,1.4,0.2,2.1-0.2c0.4-0.3,0.8-0.6,0.9-1.1c0.2-0.7-0.2-1.5-0.7-2c-0.3-0.3-0.7-0.6-1.2-0.7c-0.4,0-0.8,0.1-1.1,0.3
		c-0.5,0.4-0.9,1-1,1.6c-0.1,0.5,0,0.9,0.2,1.2c-0.2,0.1-0.5,0.2-0.7,0.3c-1,0.5-2.1,1-3.2,1.4c-1.1,0.4-2.1,0.8-3.3,1.1
		c-0.7,0.2-1.4,0.2-2.1,0.3c-0.1,0-0.2-0.1-0.3-0.1c-0.9-0.3-1.7-0.7-2.5-1.1c0.1,0,0.3-0.1,0.4-0.1c1-0.3,1.9-0.8,2.6-1.5
		c1.8-1.6,2.2-3.9,2.9-6c0.1-0.3-0.2-0.6-0.5-0.5c-2,0.9-4,2.1-5.7,3.5c-1,0.9-2,2.2-2,3.5c-1.7-0.8-3.4-1.7-5-2.7
		c-0.2-0.1-0.4-0.2-0.6-0.3c0.3,0.1,0.6,0.1,0.8,0.1c0.9,0.1,1.7-0.3,2.6-0.6c1-0.4,1.9-0.9,2.8-1.5c0.3-0.2,0.1-0.6-0.1-0.7
		c-1.6-0.8-3.4-1.4-5.3-1.4c-1.5,0-3.6,0.3-4.8,1.5c-3.5-2.6-6.8-5.5-9.7-8.8c1.8,0.9,3.8,1.5,5.6,1.9c1.6,0.4,3.2,0.6,4.9,0.6
		c1.1,0,2.4,0.1,3.5,0c0.1,0.1,0.2,0.2,0.4,0.3c1.1,0.6,2.9,1.1,3.8-0.1c0.6-0.8,0.4-2-0.3-2.7c-0.8-0.9-2.3-1-3.2-0.3
		c-0.5,0.4-0.9,1.1-1,1.8c-0.2,0-0.4,0-0.6,0c-0.8,0-1.6,0-2.4,0c-1.6-0.1-3.1-0.2-4.6-0.5c-0.9-0.2-1.9-0.4-2.9-0.7
		c3.4-0.3,6.6-2.6,6.8-6.2c0-0.3-0.2-0.5-0.5-0.4c-3.4,0.5-6.4,2.9-7.5,6.2c-0.1,0-0.1,0-0.2,0c-1.1-0.4-2.2-0.9-3.2-1.5
		c-0.3-0.3-0.6-0.7-0.8-1.1c-1.9-2.4-3.5-5.1-4.9-7.8c0.7,0.8,1.5,1.4,2.5,2c1.9,1,3.9,1.2,6,1.2c0.4,0,0.6-0.5,0.3-0.7
		c-1.7-1.3-3.3-3-5.2-4.1c-1.5-0.9-3.1-1.1-4.7-0.6c-1.4-3.1-2.6-6.4-3.6-9.7c-0.4-1.2-0.7-2.4-1-3.7c0.6,0.9,1.3,1.7,2,2.5
		c1.2,1.5,2.5,2.8,3.8,4.1c1.4,1.3,2.8,2.4,4.3,3.5c1.2,0.9,2.6,2.1,4.2,2.5c0.2,0.6,0.7,1.1,1.1,1.5c0.7,0.7,1.8,0.9,2.6,0.4
		c0.7-0.4,1.2-1.2,1.2-2c0-0.6-0.3-1.2-0.7-1.6c-1.1-1.3-3.1-1.7-4.2-0.1c-0.1,0.2-0.2,0.4-0.2,0.5c-0.3-0.2-0.7-0.5-1-0.7
		c-0.8-0.5-1.5-1-2.3-1.6c-1.4-1-2.8-2.2-4.2-3.4c0,0-0.1-0.1-0.1-0.1c1,0.5,2,0.9,3,1.2c0.9,0.2,1.8,0.2,2.7,0
		c1-0.2,1.9-0.7,2.9-0.8c0.3,0,0.4-0.5,0.2-0.7c-1.7-1.2-3.6-2.4-5.8-2.7c-1.8-0.2-3.7,0.1-5.2,1.1c-0.6-0.6-1.2-1.1-1.7-1.7
		c-1.1-1.1-2-2.3-3.1-3.5c-0.4-2-0.8-3.9-1.1-5.9c0.6,1.1,1.4,2.2,2.3,3.1c1.6,1.5,3.5,2.5,5.5,3.4c0.3,0.1,0.6-0.2,0.5-0.5
		c-1.5-3.6-4.4-7.3-8.5-7.8c0,0,0,0,0,0c-0.3-2.5-0.6-5-0.7-7.5c-0.1-1.6-0.1-3.2-0.2-4.8c1.1,2.4,2.5,4.6,4.1,6.6
		c1,1.3,2.1,2.5,3.2,3.7c0.8,0.9,1.7,2.1,2.8,2.7c-0.2,0.6-0.1,1.3,0.5,1.8c0.6,0.6,1.7,0.6,2.3,0c0.6-0.5,0.8-1.5,0.4-2.3
		c-0.3-0.5-0.9-0.9-1.5-0.9c-0.5,0-0.9,0.2-1.2,0.5c-0.7-1-1.7-1.8-2.4-2.6c-0.9-1-1.8-2-2.7-3.1c0.2,0.1,0.5,0.2,0.7,0.3
		c2.1,0.7,4.2,0,6.3,0c0.3,0,0.7-0.4,0.4-0.7c-1.4-1.3-2.9-2.7-4.8-3.3c-0.9-0.3-1.9-0.4-2.9-0.4c-0.9,0-1.7,0-2.5,0.5
		c-0.9-1.3-1.8-2.6-2.6-4c0-2.4,0.1-4.8,0.2-7.1c0.9,1.4,2.1,2.7,3.5,3.5c2,1.1,4.3,1.4,6.4,2.1c0.4,0.1,0.7-0.3,0.4-0.6
		c-1.5-1.8-3.1-3.7-5-5.2c-1.5-1.2-3.4-1.7-5.3-1.6c0.2-2.7,0.4-5.4,0.7-8.1c0-0.3-0.4-0.3-0.4,0c-0.6,3.7-1.1,7.5-1.3,11.2
		c-1.5,1-2.7,2.4-4,3.6c-0.5,0.5-0.9,0.9-1.4,1.4c-0.8-1.4-2.1-2.6-3.8-2.8c-1.9-0.2-3.6,0.7-5,2c-0.2,0.2-0.1,0.5,0.2,0.6
		c0.9,0.2,1.5,0.8,2.3,1.3c0.7,0.4,1.5,0.6,2.3,0.8c0.7,0.1,1.6,0.2,2.4,0c-0.3,0.4-0.6,0.8-0.9,1.2c-1.1,1.4-2,2.9-2.8,4.5
		c-0.4,0.8-0.8,1.6-1,2.5c-0.2,0.6-0.4,1.3-0.4,1.9c-0.3,0.1-0.6,0.3-0.9,0.6c-0.5,0.5-0.7,1.2-0.6,1.8c0.1,0.6,0.6,1.1,1.2,1.3
		c0.6,0.2,1.2,0,1.6-0.4c1-0.8,0.9-2.3,0-3.1c-0.2-0.2-0.4-0.3-0.5-0.3c0.2-0.5,0.4-1.1,0.5-1.5c0.3-0.8,0.6-1.6,1-2.3
		c0.7-1.3,1.4-2.6,2.3-3.8c0,0.5,0,0.9,0.1,1.3c0.3,2,1.4,3.8,2.3,5.5c0.2,0.3,0.6,0.2,0.7-0.1c0.3-1.9,0.6-3.8,0.6-5.7
		c0-1.4-0.3-2.9-1.5-3.7c0.6-0.7,1.3-1.5,2-2.2c1-1.1,2.2-2.1,3.2-3.2c-0.4,6.2-0.2,12.4,0.6,18.6c-2.6,2.3-4.5,5.2-5.9,8.3
		c-0.1-0.1-0.2-0.1-0.2,0c-1.7-0.4-3.7,0.4-5,1.5c-1.5,1.2-3.1,3.2-3,5.3c0,0.4,0.5,0.6,0.7,0.3c0.6-0.8,1.8-1.1,2.7-1.5
		c0.8-0.4,1.5-0.9,2.1-1.4c0.7-0.5,1.3-1.2,1.8-1.8c0.1-0.1,0.1-0.1,0.2-0.2c-0.4,1.1-0.7,2.2-1,3.4c-0.4,1.6-0.7,3.3-0.5,5
		c-0.7,0.3-1.4,0.9-1.5,1.6c-0.2,0.8,0.2,1.7,0.9,2.2c0.7,0.4,1.7,0.4,2.3-0.2c0.4-0.4,0.6-1,0.7-1.5c0.1-0.6-0.1-1.3-0.5-1.8
		c-0.3-0.3-0.7-0.5-1.1-0.4c0.3-1.5,0.4-3.1,0.7-4.6c0.4-1.7,0.9-3.4,1.6-5.1c0,0.9,0.3,1.8,0.6,2.4c0.7,1.9,2,3.7,3,5.5
		c0.2,0.3,0.6,0.3,0.7-0.1c0.2-1.9,0.2-3.9-0.4-5.8c-0.5-1.4-1.4-3.2-2.8-3.9c0-0.1,0-0.1,0-0.1c1.2-2.2,2.6-4.3,4.3-6.2
		c0.5,3.5,1.2,7,2.1,10.5c0.3,1.3,0.7,2.6,1.1,3.8c-0.9,0.4-1.7,1.2-2.3,1.8c-0.7,0.7-1.2,1.5-1.3,2.6c-0.3,2.2,0.3,4.5,0.9,6.6
		c0.1,0.4,0.5,0.4,0.7,0.1c1.3-2.7,2.8-5.4,2.9-8.4c1.1,3.1,2.4,6.2,4,9.1C36.7,147.1,36.6,147.7,36.5,148.2z M34.3,158.1
		c-0.9,1.6-2.5,2.7-4,3.8c0.2-1.9,0.5-3.8,1.1-5.6c0.4-1.1,1.1-2.1,2-2.8c0.9-0.6,1.8-0.7,2.8-1c0,0.1,0,0.2,0,0.2
		C36,154.6,35.2,156.5,34.3,158.1z M52.7,177.6c-0.5-1.5-1.3-2.9-1.2-4.5c0.1-0.9,0.3-1.7,0.7-2.6c0.3-0.7,0.6-1.2,1-1.8
		C54,171.6,53.9,174.8,52.7,177.6z M80.7,181.1c-0.3-0.2-0.6-0.5-0.9-0.7c-0.6-0.4-1.2-0.8-1.8-1.3c-1-0.9-1.6-1.8-2-3
		c1.1,0.5,2.1,1.1,3,2C80,178.9,80.3,180,80.7,181.1z M81.7,174.7c0.9-0.4,1.8-0.7,2.8-1c1.6-0.4,3.7-0.7,5.2,0.2
		c-1.3,1.7-3.1,2.9-5.2,3.2c-1,0.2-2.1,0.1-3.1-0.2c-0.7-0.2-1.3-0.6-2-0.9C80.2,175.6,80.9,175.1,81.7,174.7z M69,175.7
		c0.9,1.4,1.5,3.1,1.6,4.8c-1-1.4-2.4-2.4-3.7-3.6c-0.8-0.7-1.6-1.6-2-2.6c-0.4-0.9-0.4-1.7-0.2-2.6c0.2,0.1,0.4,0.2,0.6,0.3
		c0.5,0.4,1.1,0.8,1.6,1.3C67.7,173.9,68.4,174.7,69,175.7z M64.9,168.2c0.5-0.8,1.1-1.4,1.9-2c1.3-1,2.7-1.9,4.2-2.6
		c-0.5,1.7-1,3.5-2.3,4.7c-0.6,0.6-1.4,1.1-2.3,1.5c-0.5,0.2-1,0.3-1.4,0.4c-0.2-0.1-0.4-0.2-0.5-0.3
		C64.4,169.4,64.5,168.8,64.9,168.2z M56.5,163.5c0.8-0.2,1.6-0.3,2.5-0.3c1.5,0,2.9,0.4,4.1,1.1c-0.6,0.3-1.1,0.6-1.7,0.9
		c-0.8,0.4-1.6,0.8-2.5,0.8c-1.2,0-2.3-0.4-3.4-1c-0.3-0.2-0.7-0.4-1-0.7C55.2,164,55.8,163.7,56.5,163.5z M45.7,134.4
		c-0.5,0.1-1,0.3-1.5,0.4c-0.9,0.3-1.9,0.4-2.8,0.3c-1.8-0.3-3.3-1.2-4.8-2.1C39.4,131.2,43.1,132.4,45.7,134.4z M34.3,110.6
		c0.9,0.1,1.8,0.2,2.6,0.6c1.2,0.6,2.2,1.4,3.2,2.3c-1.6,0.2-3.2,0.5-4.7,0c-0.8-0.2-1.6-0.7-2.3-1.2c-0.5-0.4-0.9-1-1.4-1.5
		c0-0.1-0.1-0.1-0.1-0.2C32.4,110.4,33.5,110.5,34.3,110.6z M31.6,98.3c1,0.3,1.8,0.8,2.6,1.5c1.3,1.2,2.5,2.5,3.7,3.8
		c-1.6-0.4-3.2-0.9-4.6-1.5c-1-0.5-1.8-1.2-2.5-2c-0.6-0.7-1.1-1.5-1.7-2.3c0,0,0,0,0-0.1C29.9,97.9,30.8,98.1,31.6,98.3z
		 M17.8,106.1c-1.1-0.3-1.9-1.2-2.9-1.5c1.1-0.9,2.5-1.5,3.9-1.3c1.5,0.2,2.5,1.3,3.4,2.3c-0.6,0.4-1.1,0.8-1.9,0.9
		C19.5,106.6,18.6,106.4,17.8,106.1z M23.6,111.3c-0.1,1.2-0.2,2.4-0.4,3.6c-0.6-1.2-1.2-2.4-1.6-3.6c-0.2-0.7-0.3-1.5-0.2-2.2
		c0.1-0.5,0.3-1,0.6-1.5c0.2-0.2,0.3-0.4,0.5-0.6C23.7,108.2,23.7,109.7,23.6,111.3z M21,130c-0.6,0.7-1.3,1.4-2,2
		c-0.7,0.6-1.5,1-2.4,1.4c-0.4,0.2-0.8,0.4-1.2,0.6c0.4-1.4,1.4-2.7,2.5-3.6c1.2-1,2.4-1.4,3.8-1.6C21.4,129.2,21.2,129.7,21,130z
		 M25.4,128.5c0.6,0.8,1,1.7,1.3,2.7c0.4,1.4,0.5,2.8,0.4,4.2c-0.8-1.2-1.5-2.4-2.1-3.7c-0.4-0.8-0.6-1.5-0.7-2.4
		c-0.1-0.6,0.1-1.2,0.2-1.8C24.7,127.8,25.1,128.1,25.4,128.5z M37.2,126.9c-1.6-0.8-3.1-1.6-4.4-2.8c-1.2-1.1-2-2.4-2.7-3.7
		C33.4,121.5,35.8,123.9,37.2,126.9z M45.2,160.8c0.4,1.4,0.5,2.9,0.3,4.3c-0.9-1.5-1.8-3-2.5-4.6c-0.7-1.7-0.8-3.3-0.2-4.9
		c0.3,0.7,0.8,1.5,1.1,2.2C44.5,158.8,44.9,159.8,45.2,160.8z M53.5,149.8c-0.2,1.5-1.1,2.8-2.3,3.7c-1.2,0.9-2.5,1.3-3.9,1.5
		C48.4,152.3,50.7,150.3,53.5,149.8z M38.6,142.9c0.9,0.1,1.7,0.6,2.4,1.1c1.3,0.9,2.5,2,3.6,3c-1.5-0.1-3-0.3-4.4-1
		c-1.4-0.7-2.7-1.8-3.7-3C37.3,142.9,37.9,142.8,38.6,142.9z M31.4,140.8c-0.5,1.3-1.2,2.6-1.8,3.9c-0.4-1.5-0.7-3.1-0.7-4.7
		c0-1.1,0.3-2,1.1-2.8c0.6-0.6,1.4-1.1,2.1-1.7c0.1,0.2,0.1,0.4,0.2,0.6C32.3,137.7,32,139.3,31.4,140.8z"/>
	<path class="st0" d="M87.1,183.3c2.8-0.3,5.6-0.1,8.3,0.4c0.2,0,0.3,0.1,0.5,0.1c1.3,0.8,2.5,1.7,3.6,2.8c0.6,0.7,1.2,1.4,1.6,2.1
		c0.4,0.6,0.7,1.3,1.2,1.9c0,0-0.1,0-0.1,0c-0.5,0.2-0.9,0.7-0.8,1.3c0.1,0.6,0.7,1.1,1.3,1c0.6-0.1,1.1-0.7,1-1.3
		c0-0.5-0.5-1-1-1.1c0,0,0,0,0,0c-0.3-1.7-1.7-3.3-2.8-4.5c-0.7-0.7-1.4-1.3-2.2-1.8c4,1.1,7.8,2.9,11.5,4.7c0.5,0.2,1,0.5,1.5,0.7
		c0.4,0.8,0.9,1.5,1.3,2.3c0.3,0.6,0.5,1.2,0.7,1.8c0.1,0.3,0.2,0.6,0.3,0.9c-0.4,0.2-0.8,0.6-0.8,1.1c-0.1,0.6,0.4,1.3,1,1.4
		c0.6,0.1,1.2-0.3,1.3-0.9c0.1-0.6-0.3-1.3-0.9-1.6c0,0,0,0,0,0c0.1-1-0.6-2.2-1-3c-0.2-0.5-0.5-0.9-0.7-1.4
		c1.4,0.6,2.7,1.3,4.1,1.8c1.6,0.7,3.2,1.3,4.9,1.6c-0.5,0.8-0.4,1.9-0.2,2.8c0.2,1.3,0.7,2.5,1.2,3.7c0.1,0.2,0.4,0.2,0.6,0
		c1-1.5,1-3.7,0.2-5.5c0.6,0.6,1.7,1,2.4,1.3c1.4,0.4,2.8,0.4,4.2,0c0.3-0.1,0.4-0.4,0.1-0.6c-1-0.9-2.2-1.5-3.4-1.9
		c-0.5-0.1-1-0.2-1.5-0.3c1.1-0.5,2-1.3,2.6-2.4c0.1-0.2,0-0.5-0.3-0.4c-1.8,0.2-4.2,0.6-5.1,2.4c-2.2-0.9-4.5-1.6-6.6-2.5
		c-1-0.4-1.9-0.9-2.9-1.3c0.5,0,1.1,0.1,1.6,0.1c0.9,0.1,1.8,0.1,2.7,0c0.5,0,1.1-0.1,1.6-0.3c0.2,0.4,0.6,0.7,1.1,0.7
		c0.6,0,1.2-0.4,1.3-1c0.1-0.6-0.3-1.2-0.9-1.4c-0.4-0.1-0.8,0-1.1,0.3c-0.2,0.2-0.3,0.4-0.4,0.7c-0.6-0.1-1.1,0-1.7,0.1
		c-0.8,0.1-1.7,0.1-2.6,0.1c-0.8,0-1.6-0.1-2.4-0.2c-0.5-0.1-1-0.1-1.5-0.2c-2.1-1-4.2-2-6.3-2.8c0.3,0,0.5-0.1,0.8-0.1
		c1.3-0.2,2.5-0.4,3.8-0.7c3-0.6,6-1.5,8.6-3c0.3,0.5,0.8,0.8,1.3,1.1c1.5,0.8,3.4,1.4,5,0.8c-0.8-1-1.8-1.8-2.9-2.2
		c-0.8-0.3-1.7-0.4-2.6-0.2c0.7-0.4,1.3-0.9,1.9-1.4c1.6-0.2,3.3-0.2,4.9,0c0.4,0.3,0.8,0.5,1.2,0.8c0.5,0.4,0.9,0.8,1.3,1.3
		c0.6,0.8,1,1.7,1.5,2.5c-0.2,0.1-0.3,0.2-0.4,0.3c-0.2,0.3-0.2,0.8,0.1,1.1c0.2,0.3,0.7,0.5,1.1,0.5c0.4,0,0.8-0.2,0.9-0.6
		c0.1-0.3,0-0.7-0.2-1c-0.2-0.3-0.6-0.6-0.9-0.5c-0.3-1.1-1.1-2.1-1.7-2.9c-0.4-0.4-0.8-0.9-1.3-1.3c0.8,0.2,1.7,0.4,2.5,0.7
		c1.4,0.5,2.7,1,4,1.7c0.7,0.4,1.4,0.7,2.2,1.1c0.5,0.2,0.9,0.6,1.4,0.7c-0.5,0.6-0.6,1.6-0.6,2.4c0,0.9,0.4,1.8,0.8,2.6
		c0.1,0.1,0.3,0.2,0.4,0c0.8-1.3,0.9-2.8,0.4-4.1c0.5,0.5,1.2,0.8,1.7,1.2c0.9,0.5,1.9,0.8,2.9,0.7c0.2,0,0.2-0.3,0.1-0.4
		c-0.7-0.9-1.6-1.6-2.6-2.1c-0.4-0.2-1-0.5-1.6-0.7c1.1-0.5,2.2-1.4,2.4-2.5c0-0.2-0.1-0.4-0.3-0.4c-1.1,0.2-2.3,0.4-3.1,1.2
		c-0.3,0.3-0.7,0.8-0.9,1.3c-0.4-0.2-0.8-0.4-1.2-0.7c-0.6-0.4-1.3-0.7-2-1c-0.5-0.3-1.1-0.5-1.6-0.8c1.8-0.1,3.2-0.5,4.4-1.9
		c0.2-0.2,0.9-1.1,0.8-1.4c-1.2,0.1-2.3,0.2-3.4,0.7c-1,0.5-1.9,1.4-2,2.5c-0.8-0.3-1.6-0.7-2.5-0.9c-2.6-0.8-5.5-1.2-8.2-0.6
		c0.1-0.1,0.3-0.3,0.4-0.4c0.2-0.2,0.4-0.4,0.6-0.6c0.1,0,0.1,0.1,0.2,0c1-0.6,2-1.2,3.1-1.6c2.4,1.6,5.4,0.3,7.2-1.5
		c0.2-0.2,0.1-0.4-0.1-0.5c-1.4-0.7-2.9-1.1-4.5-0.7c-1.1,0.3-2.5,1-2.8,2.2c-0.7,0.3-1.4,0.6-2,0.9c2.2-2.5,4.3-5.1,7.4-6.5
		c0.1,0.4,0.4,0.9,0.7,1.1c0.8,0.7,2.1,0.9,3.1,1.2c0.2,0.1,0.4-0.2,0.3-0.4c-0.5-1-1.5-2.1-2.7-2.5c0.1,0,0.1,0,0.2,0
		c1.6,1.2,3.6,0.8,5.4,0.4c0.2-0.1,0.3-0.3,0.1-0.5c-0.9-0.7-2-1.1-3.2-1.2c-0.9,0-2.1,0.2-2.7,0.9c0.2-0.4,0.4-0.8,0.6-1.2
		c0.5-1,0.7-2.1,0.5-3.2c0-0.2-0.3-0.3-0.5-0.2c-0.8,0.7-1.8,1.4-2,2.5c-0.2,0.7-0.2,1.8,0.3,2.4c-1.8,0.5-3.5,1.7-4.9,3.1
		c-1.1,1.1-2.2,2.3-3.2,3.4c0.1-0.3,0.2-0.7,0.3-1c0.3-0.9,0.6-2,0.5-3c0.2,0,0.4-0.2,0.6-0.5c0.1-0.3,0.1-0.6,0-0.9
		c-0.1-0.3-0.4-0.5-0.7-0.6c-0.3-0.1-0.7,0-0.9,0.3c-0.1,0.1-0.1,0.2-0.2,0.3c-0.2,0.4-0.1,0.8,0.1,1.1c0.2,0.2,0.4,0.3,0.7,0.4
		c-0.2,0.9-0.2,1.8-0.5,2.7c-0.1,0.5-0.3,1.1-0.5,1.6c-0.1,0.2-0.1,0.4-0.2,0.7c-0.2,0.2-0.4,0.4-0.5,0.6c-1.1,1.1-2.3,2.1-3.6,2.9
		c0.7-1.6,0.8-3.4,0.3-5.1c-0.1-0.3-0.4-0.3-0.6,0c-0.8,1.7-2,3.9-1,5.8c-0.2,0.1-0.5,0.2-0.7,0.3c-2.2,1-4.5,1.5-6.8,2
		c-0.5,0.1-1,0.2-1.5,0.3c0.7-0.5,1.4-1.3,1.9-1.9c0.5-0.7,1-1.4,1.5-2.1c0.3-0.5,0.6-1,0.7-1.6c0.2,0,0.3,0,0.5-0.1
		c0.3-0.1,0.5-0.3,0.5-0.6c0-0.3-0.1-0.5-0.2-0.7c-0.2-0.2-0.4-0.4-0.7-0.5c-0.3-0.1-0.6,0.1-0.8,0.3c-0.2,0.2-0.2,0.6-0.1,0.9
		c0.1,0.2,0.2,0.3,0.3,0.5c-0.4,0.4-0.6,1.1-0.8,1.6c-0.3,0.5-0.6,1-0.9,1.4c0.1-0.4,0.1-0.8,0.2-1.1c0.1-1.1,0.2-2.5-0.3-3.5
		c0.2-0.1,0.3-0.2,0.4-0.4c0.1-0.3,0.1-0.6,0-0.9c-0.1-0.3-0.4-0.6-0.7-0.6c-0.3-0.1-0.7,0-0.9,0.3c-0.1,0.1-0.1,0.2-0.2,0.3
		c-0.2,0.4-0.1,0.8,0.1,1.1c0.2,0.3,0.5,0.4,0.8,0.4c0.1,1,0.3,2.1,0.2,3.1c0,0.6-0.1,1.3-0.3,1.9c-0.1,0.3-0.2,0.6-0.3,0.9
		c-0.7,0.8-1.5,1.5-2.4,1.9c0,0,0,0,0,0c0,0-0.1,0-0.1,0c-1,0.2-1.9,0.1-2.8,0.1c-1.4-0.5-2.8-0.9-4.3-1.3c0.8-0.2,1.6-0.5,2.3-0.9
		c0.3-0.2,0.7-0.4,1-0.6c1,0.3,2.1-0.4,2.7-1.2c0.9-1.2,0.8-2.4,0.8-3.8c0-0.2-0.3-0.5-0.5-0.3c-1.5,1-3.2,2.7-3.2,4.6
		c-0.4,0.2-0.8,0.5-1.2,0.7c-0.4,0.2-0.9,0.4-1.4,0.5c0.5-0.4,0.9-1,1.1-1.7c0.3-0.9,0.3-1.9,0.4-2.9c-0.6,0.6-1.2,1.3-1.6,2
		c-0.4,0.7-0.7,1.6-0.6,2.5c0,0.1,0,0.2,0.1,0.2c-0.4,0.1-0.8,0.3-1.2,0.5c-2.9-0.5-5.9-0.6-8.9,0.2
		C86.8,182.9,86.9,183.3,87.1,183.3z M101.6,180.8c0.4-0.3,0.8-0.7,1.1-1.1c0.2-0.2-0.1-0.4-0.3-0.3c-0.5,0.4-0.9,0.8-1.5,1.1
		c0.4-1.3,1.4-2.5,2.6-3.4c0,0.8,0,1.6-0.4,2.4C102.7,180.2,102.2,180.5,101.6,180.8z M130,169.2c-0.3-0.7-0.3-1.7,0.1-2.4
		c0.3-0.5,0.8-1,1.2-1.4c0,0.7-0.2,1.4-0.5,2.1C130.6,168,130.4,168.7,130,169.2z M131.5,169.2c0.6-0.2,1.2-0.4,2-0.4
		c0.8,0.1,1.6,0.3,2.3,0.7C134.4,169.9,132.8,170.1,131.5,169.2z M130.1,169.9c0.6,0.2,1.2,0.3,1.7,0.7c0.4,0.3,0.8,0.7,1.1,1.1
		c-0.5-0.2-1.1-0.3-1.6-0.6c-0.4-0.2-0.9-0.4-1.1-0.8C130.1,170.3,130.1,170.1,130.1,169.9z M125,176c1.2-0.4,2.5-0.5,3.6-1
		c0.2-0.1,0.1-0.3-0.1-0.4c-0.7-0.1-1.5,0.2-2.2,0.4c-0.4,0.1-0.9,0.2-1.3,0.4c1.5-1.5,3.8-1.7,5.8-0.8
		C129.3,175.9,127,176.8,125,176z M138.2,182c-0.6,0.5-1.2,0.9-1.9,1.2c0.2-0.5,0.3-0.9,0.8-1.3c0.6-0.5,1.4-0.7,2.1-0.9
		C138.9,181.4,138.6,181.7,138.2,182z M137.3,184.3c-0.2-0.2-0.3-0.4-0.5-0.6c0.3,0,0.5,0.1,0.8,0.1c0.5,0.1,1,0.3,1.5,0.6
		c0.7,0.4,1.4,0.9,2,1.5c-0.9,0-1.7-0.3-2.5-0.8C138.1,185,137.7,184.7,137.3,184.3z M136.3,184.2c0.6,1.2,0.6,2.7,0,3.9
		c-0.3-0.6-0.4-1.3-0.4-2.1C135.9,185.4,136.2,184.8,136.3,184.2z M129,183.9C129,183.8,128.9,183.8,129,183.9
		C128.9,183.8,128.9,183.8,129,183.9L129,183.9z M116,180.8c-0.1,0-0.1,0.1-0.2,0.1c-0.2-1-0.3-1.8,0-2.8c0.2-0.6,0.5-1.2,0.8-1.8
		C116.8,177.8,116.6,179.3,116,180.8z M126.3,191c-0.9,1.1-2.2,1.8-3.6,2.1c-0.1,0-0.2-0.1-0.2-0.1c0.3-0.5,0.6-1,1.3-1.3
		C124.6,191.4,125.4,191.2,126.3,191z M123,193.8C123,193.8,123,193.8,123,193.8c0.1,0,0.2,0,0.2,0c0.9,0.1,1.9,0.1,2.8,0.5
		c0.9,0.3,1.7,0.7,2.5,1.2c-1,0.2-2,0.1-3-0.1C124.5,195,123.8,194.5,123,193.8z M121.5,193.7C121.5,193.7,121.5,193.7,121.5,193.7
		c0.1,0.2,0.2,0.2,0.4,0.2c0.8,1.5,1.2,3.7,0.5,5.3c-0.4-0.9-0.7-1.8-0.9-2.7c-0.1-0.5-0.1-1.1-0.1-1.6
		C121.3,194.5,121.5,194.1,121.5,193.7z"/>
	<path class="st1" d="M159.4,29.7c0.3-0.2,0.6-0.3,0.9-0.5c0.7-0.4,1.2-0.1,1.3,0.7c0,0.7-0.3,1.1-0.9,1.5c0.1,0.4,0.2,0.9,0.2,1.3
		c0.1,0.4,0.2,0.8,0.3,1.4c0.1-0.2,0.2-0.3,0.2-0.4c0.1-0.4,0.2-0.7,0.4-1.1c0.2-0.4,0.3-0.8,0.1-1.3c-0.2-0.4,0-0.9,0.2-1.2
		c0.4-0.6,1.2-0.5,1.5,0.2c0.3,0.7,0,1.4-0.7,1.7c-0.2,0.1-0.4,0.2-0.5,0.4c-0.3,0.9-0.7,1.8-0.8,2.9c0.6-0.6,1.2-1,1.7-1.5
		c-0.2-0.9-0.1-1.2,0.4-1.4c0.6-0.2,1.1,0,1.5,0.6c0,0.1-0.1,0.3-0.1,0.4c-0.1,0.4-0.4,0.6-0.8,0.6c-0.5,0-0.8,0.2-1.1,0.5
		c-0.6,0.5-1.2,1-1.8,1.6c-0.1,0.1-0.2,0.2-0.3,0.4c-0.1,0.4-0.2,0.8-0.3,1.2c0,0.1,0,0.3,0,0.4c0.2,1.5,0.5,2.9,0.7,4.4
		c0.1,0.9,0.2,1.9,0.3,2.8c0,0.1,0,0.2,0,0.3c0,0.1-0.1,0.2-0.2,0.3c-0.1-0.1-0.2-0.1-0.3-0.2c-0.1-0.4,0-0.7-0.1-1.1
		c-0.1-0.9-0.2-1.8-0.4-2.7c-0.1-0.4-0.2-0.8-0.4-1.1c-0.6-0.7-1.2-1.3-2-1.8c-1,0.5-1.6,0.1-1.7-1.2c0.4-0.2,0.7-0.6,1.2-0.4
		c0.5,0.2,0.6,0.7,0.7,1.1c0.6,0.6,1.2,1.1,1.9,1.7c0-0.5,0-1-0.2-1.3c-0.1-0.3-0.1-0.5-0.2-0.8c-0.1-0.7-0.2-1.3-0.4-2
		c-0.1-0.5-0.3-0.9-0.4-1.4c-0.1-0.5-0.3-0.8-0.6-1.1c-0.3-0.3-0.5-0.4-0.9-0.4c-0.7,0-1.4,0-2.1,0c-0.4,0-0.7,0-1,0.3
		c-0.4,0.3-1,0.3-1.4,0c-0.4-0.3-0.5-1-0.3-1.5c0.2-0.4,0.5-0.5,0.9-0.6c0.4,0,0.8,0.1,1,0.5c0.1,0.2,0.2,0.4,0.3,0.7
		c0.9,0,1.7,0.1,2.8,0.1c-0.6-0.9-1.3-1.4-1.9-2.1c-0.6-0.7-1.1-1.4-1.6-2.1c-0.3,0.1-0.6,0.1-0.9,0.2c-0.3,0-0.7,0-0.8-0.4
		c-0.2-0.3-0.1-0.6,0.1-0.9c0.1-0.1,0.2-0.3,0.3-0.4c0.3-0.6,0.6-0.7,1.2-0.5c0.5,0.2,0.8,0.6,0.7,1.1c-0.1,0.5,0,0.9,0.3,1.3
		c0.4,0.5,0.8,1,1.3,1.4c0-0.1,0-0.3,0-0.4c-0.1-0.5-0.3-1.1-0.4-1.6c-0.1-0.3-0.3-0.6-0.6-0.9c-0.5-0.4-0.5-1-0.1-1.3
		c0.3-0.3,0.9-0.3,1.4,0c0.3,0.2,0.3,0.6,0.1,1.1c0,0,0,0.1-0.1,0.1c-0.5,0.4-0.4,0.9-0.2,1.4c0.2,0.7,0.4,1.5,0.6,2.2
		c0,0.1,0.1,0.2,0.1,0.3c0.5,0.5,0.9,1.1,1.5,1.7c-0.3-1.3-0.6-2.4-0.9-3.5c-0.3-1.3-0.7-2.6-1-3.9c-0.1-0.4-0.3-0.5-0.6-0.6
		c-0.7-0.2-0.8-0.4-0.5-1.1c0.3-0.6,0.8-0.8,1.4-0.9c0.4-0.1,0.8,0.1,0.9,0.4c0.2,0.4,0.2,1.1-0.1,1.4c-0.2,0.2-0.3,0.3-0.6,0.5
		c0.4,1.5,0.8,3.1,1.2,4.7c0.4-0.7,0.8-3.6,0.8-4.6c-0.6-0.2-0.9-0.7-0.9-1.4c0-0.3,0.2-0.5,0.5-0.5c0.1,0,0.2,0,0.3-0.1
		c0.4-0.1,0.8,0,1,0.4c0.2,0.3,0.2,0.8-0.1,1c-0.5,0.7-0.3,1.4-0.4,2.1c0.7-0.7,1.5-1.5,1.6-2.6c-0.2-0.2-0.4-0.4-0.5-0.6
		c-0.3-0.4-0.2-0.8,0.2-1.1c0.2-0.1,0.4-0.3,0.6-0.4c0.4-0.2,0.7-0.2,1,0.2c0.4,0.6,0.4,1.5-0.4,1.8c-0.2,0.1-0.4,0.3-0.4,0.5
		c-0.1,0.4-0.4,0.8-0.7,1.2c-0.3,0.4-0.5,0.8-0.8,1.1c-0.1,0.2-0.3,0.4-0.5,0.5c-0.3,0.2-0.4,0.5-0.5,0.8
		C159.6,28.8,159.5,29.3,159.4,29.7c-0.1,0.2-0.1,0.4-0.2,0.5c-0.3,0.4-0.2,0.8-0.1,1.2c0.1,0.5,0.3,1,0.5,1.4
		c0.2,0.5,0.2,1,0.7,1.3c-0.3,0.6-0.1,1.8,0.3,2.5c0.2-0.5,0.3-1,0.5-1.4c0-0.1,0-0.1,0-0.2c-0.3-1.1-0.5-2.3-0.8-3.4
		c0-0.2-0.1-0.5-0.3-0.6C159.6,30.7,159.4,30.2,159.4,29.7z M157.3,24.5c0.4-0.1,0.7-0.4,0.6-0.8c-0.1-0.4-0.3-0.6-0.6-0.5
		c-0.4,0.1-0.8,0.5-0.8,0.8C156.5,24.3,156.9,24.5,157.3,24.5z M154.7,32.4c0-0.5-0.3-0.7-0.6-0.7c-0.3,0-0.6,0.3-0.5,0.7
		c0,0.4,0.2,0.8,0.7,0.8C154.6,33.1,154.7,32.9,154.7,32.4z M153.4,28.2c0.6,0,0.8-0.1,1.1-0.5c0.2-0.3,0.2-0.6-0.1-0.8
		c-0.2-0.2-0.5-0.2-0.7,0.2c-0.1,0.1-0.1,0.3-0.2,0.5C153.5,27.8,153.5,28,153.4,28.2z M160.6,30.8c0.5-0.3,0.5-0.6,0.5-1
		c0-0.3-0.2-0.4-0.4-0.2c-0.2,0.2-0.4,0.4-0.4,0.7C160.2,30.4,160.5,30.6,160.6,30.8z M159.5,24.6c0.4,0,0.6-0.4,0.6-0.6
		c0-0.2-0.2-0.3-0.4-0.3c-0.2,0-0.5,0.4-0.4,0.6C159.3,24.4,159.4,24.6,159.5,24.6z M162.3,22.5c-0.2,0.2-0.3,0.4-0.4,0.6
		c-0.1,0.2-0.1,0.4,0.1,0.5c0.2,0.1,0.5,0,0.6-0.2C162.6,23.1,162.6,22.8,162.3,22.5z M162.9,31.4c0.5-0.6,0.5-0.9,0-1.2
		c-0.2,0.2-0.3,0.4-0.5,0.7C162.6,31,162.8,31.2,162.9,31.4z M157.7,38.7c0.4-0.1,0.6-0.4,0.4-0.7c-0.1-0.1-0.3-0.2-0.4-0.3
		c-0.1,0.1-0.3,0.3-0.3,0.4C157.5,38.3,157.6,38.5,157.7,38.7z M164.3,33.7c0.2-0.3,0.4-0.4,0.4-0.6c0-0.1-0.3-0.3-0.4-0.3
		c-0.3,0-0.4,0.2-0.4,0.4C163.9,33.4,164.1,33.5,164.3,33.7z M155.7,26.8c0.3,0.1,0.5,0.3,0.6,0.3c0.2-0.1,0.3-0.3,0.4-0.4
		c0.1-0.2-0.1-0.4-0.3-0.3C156.2,26.5,156,26.6,155.7,26.8z"/>
	<path class="st1" d="M198,77.6c0.3-0.2,0.6-0.3,0.9-0.5c0.7-0.4,1.2-0.1,1.3,0.7c0,0.7-0.2,1.1-0.9,1.5c0.1,0.4,0.2,0.9,0.2,1.3
		c0.1,0.4,0.2,0.8,0.3,1.4c0.1-0.2,0.2-0.3,0.2-0.4c0.1-0.4,0.2-0.7,0.4-1.1c0.2-0.4,0.3-0.8,0.1-1.3c-0.2-0.4,0-0.9,0.2-1.2
		c0.4-0.6,1.2-0.5,1.5,0.2c0.3,0.7,0,1.4-0.7,1.7c-0.2,0.1-0.4,0.2-0.5,0.4c-0.3,0.9-0.7,1.8-0.8,2.9c0.6-0.6,1.2-1,1.7-1.5
		c-0.2-0.9-0.1-1.2,0.4-1.4c0.6-0.2,1.1,0,1.5,0.6c0,0.1-0.1,0.3-0.1,0.4c-0.1,0.4-0.4,0.6-0.8,0.6c-0.5,0-0.8,0.2-1.1,0.5
		c-0.6,0.5-1.2,1-1.8,1.6c-0.1,0.1-0.2,0.2-0.3,0.4c-0.1,0.4-0.2,0.8-0.3,1.2c0,0.1,0,0.3,0,0.4c0.2,1.5,0.5,2.9,0.7,4.4
		c0.1,0.9,0.2,1.9,0.3,2.8c0,0.1,0,0.2,0,0.3c0,0.1-0.1,0.2-0.2,0.3c-0.1-0.1-0.2-0.1-0.3-0.2c-0.1-0.4,0-0.7-0.1-1.1
		c-0.1-0.9-0.2-1.8-0.4-2.7c-0.1-0.4-0.2-0.8-0.4-1.1c-0.6-0.7-1.2-1.3-2-1.8c-1,0.5-1.6,0.1-1.7-1.2c0.4-0.2,0.7-0.6,1.2-0.4
		c0.5,0.2,0.6,0.7,0.7,1.1c0.6,0.6,1.2,1.1,1.9,1.7c0-0.5,0-1-0.2-1.3c-0.1-0.3-0.1-0.5-0.2-0.8c-0.1-0.7-0.2-1.3-0.4-2
		c-0.1-0.5-0.3-0.9-0.4-1.4c-0.1-0.5-0.3-0.8-0.6-1.1c-0.3-0.3-0.5-0.4-0.9-0.4c-0.7,0-1.4,0-2.1,0c-0.4,0-0.7,0-1,0.3
		c-0.4,0.3-1,0.3-1.4,0c-0.4-0.3-0.5-1-0.3-1.5c0.2-0.4,0.5-0.5,0.9-0.6c0.4,0,0.8,0.1,1,0.5c0.1,0.2,0.2,0.4,0.3,0.7
		c0.9,0,1.7,0.1,2.8,0.1c-0.6-0.9-1.3-1.4-1.9-2.1c-0.6-0.7-1.1-1.4-1.6-2.1c-0.3,0.1-0.6,0.1-0.9,0.2c-0.3,0-0.7,0-0.8-0.4
		c-0.2-0.3-0.1-0.6,0.1-0.9c0.1-0.1,0.2-0.3,0.3-0.4c0.3-0.6,0.6-0.7,1.2-0.5c0.5,0.2,0.8,0.6,0.7,1.1c-0.1,0.5,0,0.9,0.3,1.3
		c0.4,0.5,0.8,1,1.3,1.4c0-0.1,0-0.3,0-0.4c-0.1-0.5-0.3-1.1-0.4-1.6c-0.1-0.3-0.3-0.6-0.6-0.9c-0.5-0.4-0.5-1-0.1-1.3
		c0.3-0.3,0.9-0.3,1.4,0c0.3,0.2,0.3,0.6,0.1,1.1c0,0,0,0.1-0.1,0.1c-0.5,0.4-0.4,0.9-0.2,1.4c0.2,0.7,0.4,1.5,0.6,2.2
		c0,0.1,0,0.2,0.1,0.3c0.5,0.5,0.9,1.1,1.5,1.7c-0.3-1.3-0.6-2.4-0.9-3.5c-0.3-1.3-0.7-2.6-1-3.9c-0.1-0.4-0.3-0.5-0.6-0.6
		c-0.7-0.2-0.8-0.4-0.5-1.1c0.3-0.6,0.8-0.8,1.4-0.9c0.4-0.1,0.8,0.1,0.9,0.4c0.2,0.4,0.2,1.1-0.1,1.4c-0.2,0.2-0.3,0.3-0.6,0.5
		c0.4,1.5,0.8,3.1,1.2,4.7c0.4-0.7,0.8-3.6,0.8-4.6c-0.6-0.2-0.9-0.7-0.9-1.4c0-0.3,0.2-0.5,0.5-0.5c0.1,0,0.2,0,0.3-0.1
		c0.4-0.1,0.8,0,1,0.4c0.2,0.3,0.2,0.8-0.1,1c-0.5,0.7-0.3,1.4-0.4,2.1c0.7-0.7,1.5-1.5,1.6-2.6c-0.2-0.2-0.4-0.3-0.5-0.6
		c-0.3-0.4-0.2-0.8,0.2-1.1c0.2-0.1,0.4-0.3,0.6-0.4c0.4-0.2,0.7-0.2,1,0.2c0.4,0.6,0.4,1.5-0.4,1.8c-0.2,0.1-0.4,0.3-0.4,0.5
		c-0.1,0.5-0.4,0.8-0.7,1.2c-0.3,0.4-0.5,0.8-0.8,1.1c-0.1,0.2-0.3,0.4-0.5,0.5c-0.3,0.2-0.4,0.5-0.5,0.8
		C198.2,76.7,198.1,77.2,198,77.6c-0.1,0.2-0.1,0.4-0.2,0.5c-0.3,0.4-0.2,0.8-0.1,1.2c0.1,0.5,0.3,1,0.5,1.4c0.2,0.5,0.2,1,0.7,1.3
		c-0.3,0.6-0.1,1.8,0.3,2.5c0.2-0.5,0.3-1,0.5-1.4c0-0.1,0-0.1,0-0.2c-0.3-1.1-0.5-2.3-0.8-3.4c0-0.2-0.1-0.5-0.3-0.6
		C198.2,78.6,198,78.2,198,77.6z M195.9,72.4c0.4-0.1,0.7-0.4,0.6-0.8c-0.1-0.4-0.3-0.6-0.6-0.5c-0.4,0.1-0.8,0.5-0.8,0.8
		C195.1,72.3,195.5,72.5,195.9,72.4z M193.3,80.3c0-0.5-0.3-0.7-0.6-0.7c-0.3,0-0.6,0.3-0.5,0.7c0,0.4,0.2,0.8,0.7,0.8
		C193.2,81,193.3,80.8,193.3,80.3z M192,76.1c0.6,0,0.8-0.1,1.1-0.5c0.2-0.3,0.2-0.6-0.1-0.8c-0.2-0.2-0.5-0.2-0.7,0.2
		c-0.1,0.1-0.1,0.3-0.2,0.5C192.1,75.7,192.1,75.9,192,76.1z M199.2,78.7c0.5-0.3,0.5-0.6,0.5-1c0-0.3-0.2-0.4-0.4-0.2
		c-0.2,0.2-0.4,0.4-0.4,0.7C198.8,78.3,199.1,78.5,199.2,78.7z M198.1,72.6c0.4,0,0.6-0.4,0.6-0.6c0-0.2-0.2-0.3-0.4-0.3
		c-0.2,0-0.5,0.4-0.4,0.6C197.9,72.4,198,72.5,198.1,72.6z M200.9,70.5c-0.2,0.2-0.3,0.4-0.4,0.6c-0.1,0.2-0.1,0.4,0.1,0.5
		c0.2,0.1,0.5,0,0.6-0.2C201.2,71.1,201.2,70.8,200.9,70.5z M201.5,79.3c0.5-0.6,0.5-0.9,0-1.2c-0.2,0.2-0.3,0.4-0.5,0.7
		C201.2,79,201.4,79.1,201.5,79.3z M196.3,86.7c0.4-0.1,0.6-0.4,0.4-0.7c-0.1-0.1-0.3-0.2-0.4-0.3c-0.1,0.1-0.3,0.3-0.3,0.4
		C196.1,86.3,196.2,86.5,196.3,86.7z M202.9,81.6c0.2-0.3,0.4-0.4,0.4-0.6c0-0.1-0.3-0.3-0.4-0.3c-0.3,0-0.4,0.2-0.4,0.4
		C202.5,81.3,202.7,81.4,202.9,81.6z M194.3,74.8c0.3,0.1,0.5,0.3,0.6,0.3c0.2-0.1,0.3-0.3,0.4-0.4c0.1-0.2-0.1-0.4-0.3-0.3
		C194.8,74.4,194.6,74.5,194.3,74.8z"/>
	<path class="st1" d="M87.6,192.7c0,0.3,0,0.7,0,1c0.1,0.8-0.5,1.2-1.2,0.8c-0.6-0.3-0.9-0.8-0.9-1.5c-0.4-0.1-0.8-0.3-1.2-0.4
		c-0.4-0.1-0.8-0.2-1.4-0.3c0.1,0.2,0.2,0.3,0.2,0.4c0.3,0.3,0.6,0.5,0.8,0.8c0.3,0.3,0.6,0.6,1.1,0.6c0.5,0,0.8,0.4,1,0.8
		c0.3,0.6-0.1,1.3-0.8,1.3c-0.8,0-1.3-0.6-1.2-1.4c0-0.2,0-0.5-0.2-0.6c-0.7-0.7-1.3-1.4-2.2-2.1c0.2,0.8,0.4,1.5,0.5,2.2
		c0.9,0.3,1.1,0.5,1,1c0,0.6-0.5,1-1.2,1c-0.1-0.1-0.2-0.2-0.3-0.3c-0.3-0.3-0.4-0.6-0.2-1c0.2-0.4,0.2-0.8,0.1-1.2
		c-0.2-0.8-0.4-1.6-0.5-2.3c0-0.1-0.1-0.3-0.2-0.4c-0.3-0.3-0.6-0.6-0.9-0.9c-0.1-0.1-0.2-0.2-0.3-0.2c-1.4-0.5-2.8-0.9-4.2-1.4
		c-0.9-0.3-1.8-0.7-2.6-1c-0.1,0-0.2-0.1-0.2-0.1c-0.1-0.1-0.1-0.2-0.2-0.3c0.1,0,0.2-0.2,0.3-0.1c0.3,0.1,0.7,0.3,1,0.4
		c0.8,0.3,1.7,0.6,2.5,0.9c0.4,0.1,0.8,0.2,1.1,0.1c0.9-0.2,1.7-0.4,2.5-0.9c0-1.2,0.6-1.5,1.8-0.9c0.1,0.4,0.2,0.9-0.2,1.3
		c-0.4,0.4-0.9,0.2-1.2,0.1c-0.8,0.3-1.5,0.6-2.4,0.9c0.5,0.3,0.9,0.4,1.3,0.4c0.3,0,0.5,0.1,0.8,0.2c0.6,0.2,1.3,0.4,1.9,0.6
		c0.5,0.1,0.9,0.2,1.4,0.3c0.4,0.1,0.8,0.1,1.3,0c0.4-0.1,0.6-0.3,0.8-0.6c0.3-0.6,0.7-1.2,1-1.8c0.2-0.3,0.3-0.6,0.2-1
		c-0.1-0.5,0.2-1.1,0.7-1.2c0.5-0.2,1.1,0,1.4,0.4c0.3,0.3,0.2,0.7,0.1,1c-0.2,0.4-0.5,0.7-0.9,0.7c-0.2,0-0.5-0.1-0.8-0.1
		c-0.4,0.7-0.9,1.5-1.4,2.4c1-0.1,1.9-0.5,2.7-0.7c0.9-0.2,1.8-0.3,2.6-0.5c0.1-0.3,0.2-0.6,0.3-0.9c0.1-0.3,0.3-0.6,0.7-0.6
		c0.4,0,0.6,0.2,0.7,0.5c0.1,0.1,0.2,0.3,0.2,0.4c0.4,0.6,0.3,0.9-0.1,1.3c-0.4,0.4-0.9,0.5-1.3,0.1c-0.4-0.4-0.8-0.4-1.3-0.3
		c-0.6,0.1-1.2,0.2-1.8,0.5c0.1,0.1,0.3,0.2,0.4,0.2c0.5,0.1,1.1,0.3,1.6,0.4c0.4,0.1,0.7,0,1.1-0.1c0.6-0.2,1.1,0,1.2,0.5
		c0.1,0.4-0.2,1-0.7,1.2c-0.3,0.2-0.7,0-1-0.4c0,0-0.1-0.1-0.1-0.1c-0.1-0.7-0.6-0.8-1.1-0.9c-0.8-0.1-1.5-0.3-2.3-0.5
		c-0.1,0-0.2-0.1-0.3,0c-0.7,0.2-1.4,0.3-2.2,0.5c1.3,0.3,2.4,0.6,3.5,0.9c1.3,0.3,2.6,0.6,3.9,0.9c0.4,0.1,0.6,0,0.8-0.3
		c0.5-0.6,0.8-0.5,1.2,0.1c0.4,0.5,0.3,1.1,0.2,1.6c-0.1,0.4-0.4,0.6-0.8,0.6c-0.5,0-1-0.3-1.2-0.7c-0.1-0.2-0.1-0.4-0.2-0.8
		c-1.5-0.4-3.1-0.7-4.7-1.1c0.4,0.6,2.8,2.4,3.7,2.8c0.5-0.5,1.1-0.5,1.7-0.1c0.2,0.2,0.3,0.4,0.2,0.6c0,0.1-0.1,0.2-0.1,0.3
		c-0.1,0.4-0.4,0.7-0.8,0.7c-0.4,0-0.8-0.2-0.9-0.5c-0.3-0.7-1.1-1-1.7-1.3c0.3,1,0.6,2,1.5,2.6c0.3-0.1,0.5-0.2,0.7-0.2
		c0.5-0.1,0.8,0.2,0.8,0.7c0,0.2,0,0.5,0.1,0.7c0,0.4-0.2,0.7-0.6,0.8c-0.7,0.1-1.5-0.4-1.5-1.2c0-0.2-0.1-0.5-0.2-0.6
		c-0.3-0.3-0.5-0.7-0.7-1.2c-0.2-0.4-0.4-0.8-0.6-1.2c-0.1-0.2-0.2-0.5-0.2-0.7c0-0.4-0.2-0.6-0.5-0.8C88.4,193.2,88,193,87.6,192.7
		c-0.1-0.1-0.3-0.3-0.4-0.4c-0.2-0.4-0.6-0.5-1-0.6c-0.5-0.1-1-0.2-1.5-0.3c-0.5-0.1-1-0.3-1.5,0c-0.4-0.5-1.5-0.9-2.3-0.9
		c0.4,0.4,0.7,0.7,1,1.1c0,0,0.1,0,0.2,0.1c1.1,0.3,2.2,0.6,3.4,0.9c0.2,0.1,0.5,0.1,0.7,0C86.7,192.3,87.2,192.4,87.6,192.7z
		 M93.3,193.2c-0.1,0.4,0,0.8,0.4,0.9c0.4,0.1,0.6,0,0.7-0.3c0.1-0.4-0.1-1-0.4-1.1C93.7,192.6,93.4,192.9,93.3,193.2z M87.5,187.2
		c0.4,0.2,0.8,0.1,0.9-0.2c0.1-0.3,0-0.6-0.3-0.8c-0.4-0.1-0.8-0.2-1,0.3C86.9,186.8,87,187,87.5,187.2z M91.8,188.1
		c-0.3,0.6-0.3,0.8-0.1,1.2c0.1,0.3,0.4,0.4,0.7,0.3c0.3-0.1,0.4-0.3,0.2-0.7c-0.1-0.2-0.2-0.3-0.3-0.4
		C92.1,188.4,92,188.2,91.8,188.1z M86.1,193.2c0,0.6,0.3,0.8,0.6,0.9c0.2,0.1,0.5,0,0.4-0.3c-0.1-0.3-0.2-0.5-0.4-0.7
		C86.7,193.1,86.4,193.2,86.1,193.2z M92.1,195.1c-0.2,0.3,0,0.7,0.3,0.8c0.2,0.1,0.4,0,0.5-0.2c0.1-0.2-0.1-0.6-0.4-0.6
		C92.4,195,92.2,195.1,92.1,195.1z M92.6,198.6c-0.1-0.2-0.2-0.5-0.4-0.7c-0.1-0.2-0.3-0.3-0.5-0.1c-0.2,0.1-0.2,0.4-0.1,0.6
		C92,198.6,92.2,198.7,92.6,198.6z M84.5,195c0.3,0.7,0.6,0.9,1.1,0.6c-0.1-0.2-0.2-0.5-0.4-0.8C85,194.9,84.8,194.9,84.5,195z
		 M80.5,186.9c-0.1,0.4,0.1,0.7,0.4,0.7c0.1,0,0.3-0.1,0.5-0.2c-0.1-0.1-0.1-0.4-0.2-0.4C80.9,186.9,80.7,187,80.5,186.9z
		 M81.8,195.2c0.1,0.3,0.2,0.5,0.4,0.6c0.1,0.1,0.4-0.1,0.5-0.2c0.1-0.2,0-0.5-0.2-0.6C82.3,195,82.1,195.1,81.8,195.2z M91.9,190.7
		c-0.3,0.2-0.5,0.3-0.5,0.4c0,0.2,0.1,0.4,0.2,0.5c0.1,0.2,0.4,0.1,0.4-0.2C92,191.3,92,191.1,91.9,190.7z"/>
	<path class="st1" d="M50.2,37.8c-0.3-0.2-0.6-0.3-0.9-0.5c-0.7-0.3-0.8-1-0.1-1.4c0.5-0.4,1.1-0.4,1.7,0c0.3-0.3,0.6-0.6,1-0.9
		c0.3-0.3,0.6-0.6,1-1c-0.2,0-0.3,0-0.5,0c-0.4,0.1-0.8,0.2-1.1,0.3c-0.4,0.1-0.8,0.2-1.1,0.6c-0.3,0.4-0.7,0.5-1.2,0.5
		c-0.7,0-1-0.8-0.7-1.4c0.4-0.7,1.2-0.8,1.8-0.3c0.2,0.1,0.4,0.2,0.6,0.2c0.9-0.2,1.9-0.4,2.9-0.9c-0.8-0.3-1.5-0.5-2.1-0.7
		c-0.7,0.6-0.9,0.7-1.4,0.4c-0.5-0.4-0.6-0.9-0.3-1.6c0.1,0,0.3-0.1,0.4-0.1c0.4-0.1,0.7,0,1,0.4c0.2,0.4,0.6,0.6,1,0.7
		c0.8,0.2,1.5,0.5,2.3,0.7c0.1,0,0.3,0,0.5,0c0.4-0.1,0.8-0.2,1.2-0.3c0.1,0,0.3-0.1,0.4-0.2c1.1-1,2.2-1.9,3.3-2.9
		c0.7-0.6,1.5-1.2,2.2-1.8c0.1-0.1,0.1-0.1,0.2-0.1c0.1,0,0.2,0,0.3,0c0,0.1,0,0.3-0.1,0.4c-0.3,0.2-0.6,0.4-0.9,0.7
		c-0.7,0.6-1.4,1.1-2.1,1.7c-0.3,0.3-0.6,0.6-0.7,0.9c-0.2,0.9-0.5,1.7-0.5,2.6c1,0.6,1,1.3-0.1,2.1c-0.4-0.2-0.9-0.2-1-0.8
		c-0.1-0.6,0.2-0.9,0.5-1.1c0.1-0.8,0.3-1.6,0.4-2.5c-0.5,0.2-0.8,0.5-1,0.9c-0.2,0.3-0.4,0.4-0.6,0.6c-0.5,0.4-1,0.9-1.5,1.4
		c-0.3,0.3-0.6,0.7-1,1c-0.3,0.3-0.5,0.7-0.6,1.1c-0.1,0.4-0.1,0.7,0.1,1c0.4,0.6,0.7,1.2,1.1,1.8c0.2,0.3,0.4,0.6,0.8,0.7
		c0.5,0.2,0.8,0.7,0.7,1.2c-0.1,0.5-0.6,1-1.1,1.1c-0.4,0.1-0.7-0.1-0.9-0.5c-0.3-0.4-0.4-0.7-0.1-1.2c0.1-0.2,0.3-0.4,0.5-0.6
		c-0.4-0.8-0.9-1.5-1.4-2.4c-0.4,1-0.5,1.9-0.8,2.7c-0.3,0.8-0.6,1.7-0.9,2.5c0.2,0.2,0.5,0.4,0.6,0.7c0.2,0.3,0.3,0.6,0.1,0.9
		c-0.2,0.3-0.5,0.4-0.8,0.4c-0.2,0-0.3,0-0.5,0c-0.7,0-0.9-0.2-1.1-0.8c-0.1-0.6,0-1,0.6-1.1c0.5-0.2,0.8-0.5,0.9-0.9
		c0.2-0.6,0.4-1.2,0.5-1.8C52,40,51.8,40,51.7,40.1c-0.4,0.4-0.8,0.8-1.1,1.2c-0.2,0.3-0.4,0.6-0.5,1c-0.1,0.6-0.6,0.9-1.1,0.8
		c-0.5-0.1-0.8-0.6-0.7-1.2c0-0.4,0.3-0.6,0.9-0.6c0,0,0.1,0,0.1,0c0.6,0.3,1-0.1,1.3-0.6c0.5-0.6,1-1.1,1.6-1.7
		c0.1-0.1,0.2-0.2,0.2-0.3c0.2-0.7,0.4-1.4,0.6-2.2c-0.9,0.9-1.8,1.8-2.6,2.6c-0.9,1-1.8,2-2.7,2.9c-0.3,0.3-0.3,0.5-0.2,0.9
		c0.2,0.7,0.1,0.9-0.7,1c-0.7,0.1-1.1-0.3-1.5-0.7c-0.3-0.3-0.3-0.7-0.1-1c0.2-0.4,0.8-0.7,1.2-0.7c0.2,0,0.4,0.1,0.8,0.2
		c1.1-1.1,2.2-2.3,3.4-3.5c-0.7,0-3.5,1.2-4.3,1.8c0.1,0.7-0.1,1.2-0.8,1.5c-0.3,0.1-0.5,0.1-0.7-0.1c-0.1-0.1-0.2-0.2-0.2-0.3
		c-0.3-0.3-0.4-0.7-0.2-1.1c0.2-0.4,0.6-0.5,0.9-0.5c0.8,0.1,1.4-0.4,2-0.8c-1-0.2-2-0.5-3,0c-0.1,0.3-0.1,0.5-0.2,0.7
		c-0.2,0.5-0.6,0.6-1,0.4c-0.2-0.1-0.4-0.2-0.6-0.3c-0.4-0.2-0.5-0.5-0.4-0.9c0.3-0.7,1.1-1.1,1.7-0.7c0.2,0.1,0.4,0.2,0.6,0.1
		c0.5-0.1,0.9-0.1,1.4,0c0.5,0.1,0.9,0,1.4,0.1c0.2,0,0.5,0,0.7,0.2c0.3,0.2,0.6,0.1,0.9,0C49.3,38.2,49.8,38,50.2,37.8
		c0.2-0.1,0.4-0.1,0.5-0.1c0.5,0.1,0.8-0.2,1.1-0.5c0.3-0.4,0.6-0.8,1-1.1c0.3-0.4,0.8-0.7,0.8-1.3c0.6-0.1,1.6-0.8,2-1.6
		c-0.5,0.1-1,0.2-1.4,0.3c-0.1,0-0.1,0.1-0.2,0.1c-0.8,0.8-1.7,1.6-2.5,2.4c-0.2,0.2-0.3,0.4-0.4,0.6C51,37.2,50.6,37.6,50.2,37.8z
		 M46.9,42.4c-0.3-0.3-0.7-0.4-1-0.1c-0.3,0.3-0.3,0.5-0.1,0.8c0.2,0.3,0.9,0.4,1.1,0.2C47.1,43.1,47.1,42.7,46.9,42.4z M55,40.5
		c-0.4,0.3-0.5,0.6-0.3,0.9c0.2,0.3,0.6,0.3,0.8,0.1c0.3-0.2,0.6-0.6,0.3-1C55.6,40.2,55.4,40.2,55,40.5z M52.1,43.8
		c-0.3-0.6-0.5-0.7-1-0.7c-0.3,0-0.6,0.2-0.6,0.5c0,0.3,0.1,0.5,0.5,0.5c0.2,0,0.3-0.1,0.5-0.1C51.7,43.9,51.8,43.8,52.1,43.8z
		 M50.5,36.3c-0.5-0.3-0.8-0.1-1.1,0.1c-0.2,0.1-0.2,0.4,0,0.5c0.3,0.1,0.6,0.1,0.8,0C50.3,36.8,50.4,36.5,50.5,36.3z M45.8,40.4
		c-0.2-0.3-0.6-0.3-0.9-0.2c-0.2,0.2-0.2,0.4,0,0.5c0.1,0.2,0.6,0.2,0.7,0C45.8,40.7,45.8,40.5,45.8,40.4z M42.6,39.2
		c0.3,0,0.5,0,0.8,0c0.2,0,0.4-0.1,0.3-0.3c0-0.2-0.3-0.4-0.5-0.4C42.9,38.6,42.7,38.7,42.6,39.2z M49.8,34c-0.8-0.1-1,0.1-1.1,0.6
		c0.3,0,0.5,0,0.8,0.1C49.6,34.4,49.7,34.2,49.8,34z M58.8,34.6c-0.3-0.3-0.6-0.3-0.8,0c-0.1,0.1,0,0.3-0.1,0.5c0.2,0,0.4,0.1,0.5,0
		C58.5,35,58.6,34.8,58.8,34.6z M51,31.6c-0.3,0-0.5-0.1-0.7,0c-0.1,0-0.1,0.4-0.1,0.5c0.1,0.2,0.4,0.3,0.6,0.1
		C50.9,32.1,50.9,31.8,51,31.6z M49.7,42.5c0-0.3,0-0.6-0.1-0.6c-0.1-0.1-0.4-0.1-0.6-0.1c-0.2,0-0.2,0.3-0.1,0.4
		C49.1,42.3,49.3,42.4,49.7,42.5z"/>
</g>
<g>
	<path class="st0" d="M289.6,58h0.3c2.2,0.2,3.3,1.3,3.3,3.2c0,4.9-3.8,13.8-11.3,26.6c-2.5,4.1-6.5,9.6-12.1,16.4
		c-5.5,6.7-8.2,10.4-8.2,11.3c-0.5,1.3-0.9,3.9-1.2,7.8c0.1,0.3,0,0.4-0.3,0.4H260c0.9-0.9,2.1-2.9,3.7-6.1c2.5-3,5.1-4.6,7.8-4.6
		c3.4,0,6.3,3.1,8.6,9.2c1.6,3.5,3.1,5.6,4.7,6.3c0.5,0.2,1.1,0.4,1.7,0.4h0.9c2.3,0,5-1.5,7.9-4.4c2.1-2.9,3.7-5.9,4.9-9
		c0.9-3.8,2.2-5.7,3.7-5.7c1.6,0.1,2.4,0.9,2.4,2.4c-1,4.8-3.4,10-7.3,15.4c-3.4,3.9-7.5,5.9-12.5,5.9c-5.3,0-9.2-3.6-11.8-10.9
		c-1.7-3.1-2.7-4.6-3.3-4.6c-0.2-0.1-0.3-0.1-0.3-0.1h-0.1c-2.4,0-5.1,4.2-8.2,12.7l-1.4,7.5c-0.6,0.5-1.3,0.9-2,1.2
		c-2,0-3.1-1.8-3.3-5.4c-0.3-1.9-0.5-3.7-0.6-5.4c0-9.2,1.3-16.3,3.8-21.2c8.3-19.6,14.4-32.1,18.5-37.4c3.1-4.6,5.6-7.7,7.4-9.5
		C286.8,58.8,288.3,58,289.6,58z M267.3,101.2c0-0.4-0.3-0.6-0.6-0.6c0.5,0,2.5-2.6,5.9-7.8c4.3-5.4,8.1-11.9,11.6-19.3
		c1.7-3.5,2.9-6.7,3.6-9.6v-0.1c0,0.1,0,0.1-0.1,0.1c-0.2,0-1.9,2.2-5,6.6c-5.5,8.1-8.3,12.7-8.3,13.8c-3.5,7.4-5.9,12.9-7.1,16.4
		V101.2z"/>
	<path class="st0" d="M309,108.8c4,0,6.6,1.5,7.8,4.4c0.4,1.1,0.7,2.2,0.7,3.3c0,1.4-0.2,2.9-0.6,4.6c0,0.3,0.2,0.4,0.7,0.4h2.2
		c7.7,0,16.3-3.6,25.6-10.7c1.3-0.8,2.3-1.2,3.2-1.2h0.5c1,0.5,1.4,1.2,1.4,2.2c-0.1,1.2-2.3,3.2-6.5,5.9
		c-8.5,5.6-17.6,8.5-27.2,8.5c-0.7-0.1-1.2-0.1-1.6-0.1c-0.5,0-1.3,0.9-2.5,2.7c-3.2,3.8-6.7,5.7-10.5,5.7H301c-3.4,0-5.7-1.9-7-5.8
		c-0.1-0.7-0.2-1.5-0.2-2.3v-0.7c0-6.2,3.2-11.5,9.7-15.8C305.7,109.1,307.5,108.8,309,108.8z M298.4,125.8c0,2.2,0.8,3.6,2.4,4.3
		c0.3,0.1,0.7,0.2,1.2,0.2c2.5,0,5-1.7,7.5-5.2l0.1-0.4c0-0.1-1.1-0.7-3.4-1.8c-2.1-1.3-3.5-3.3-4.3-6l0.3,0.1h-0.2
		c-0.7,0.3-1.8,2.4-3.3,6.2C298.7,123.3,298.6,124.2,298.4,125.8z M307,116.4c0,1.2,1,2.4,3.1,3.5c0.7,0.4,1.3,0.6,1.6,0.6h0.1
		c0.1,0,0.3-1.2,0.7-3.7c0-2.2-0.9-3.3-2.6-3.3C308,113.6,307,114.6,307,116.4z"/>
	<path class="st0" d="M349.7,107.5c1.3,0.3,2,0.8,2,1.5v0.4c0,0.4-1,2.5-2.9,6.3c-1.1,2.8-1.7,4.4-1.7,4.8v-0.5
		c-0.4,0,0.4-0.9,2.5-2.8c2.3-1.5,4.1-2.3,5.5-2.3h1.5c3.3,0,5.5,2.2,6.6,6.5c0,0-0.2-0.1-0.4-0.1h-0.1c0.2-0.2,1-1.3,2.3-3.3
		c2.3-2,4.6-3,6.8-3c3,0,5.5,1.7,7.5,5.2c0.9,1.7,2.1,3.1,3.5,4.3c3.2,2.3,5.5,3.4,7,3.4h0.4c4.2,0,8.1-1.9,11.8-5.6
		c3.3-2.7,5.5-5.2,6.8-7.6c1.7-3.2,3.2-4.8,4.7-4.8h0.1c1.1,0,1.9,0.7,2.3,2.2c-1.1,3.1-3.8,6.9-7.9,11.4c-6.2,5.9-11.6,8.9-16,8.9
		h-2.1c-4.3,0-8.7-2.4-13.4-7.2c-2.4-3.8-4-5.8-4.8-5.8h-0.3c-2.1,0-4,2.5-5.8,7.6c-1.7,3.9-2.9,5.8-3.6,5.8l-0.7,0.1
		c-1.9,0-3-2.6-3.2-7.7c-0.5-3.9-1.2-5.8-2.2-5.8c0-0.2,0-0.3-0.1-0.3h-0.1c-2.3,0-6.8,4.8-13.5,14.5c-1.3,1.4-2.4,2.1-3.1,2.1h-0.2
		c-1.6-0.2-2.3-1.1-2.3-2.6c2.5-7.4,5.7-14.9,9.4-22.4C347,108.7,348.2,107.5,349.7,107.5z"/>
	<path class="st0" d="M428.8,97.9h0.7c3.6,0.5,5.5,1.9,5.5,4.1c-0.5,3.2-3.4,6.4-8.6,9.8c-1.2,0.6-5,1.9-11.5,3.9
		c-0.1,0.1-0.2,0.2-0.2,0.3v0.1c1,3.4,2.7,5.8,4.9,7.1c2.2,1.2,4.8,1.8,7.9,1.8h1.3c9.8,0,18.9-4.2,27.2-12.5
		c1.2-2.2,2.4-3.3,3.6-3.3h0.1c1.1,0,1.9,0.7,2.4,2.2c-0.7,2.7-4.9,7-12.7,12.6c-7.9,3.5-14,5.3-18.3,5.3c-0.5,0-1.8,0.1-4,0.3
		c-2.2,0-5.5-0.8-10-2.5c-2.7-2.2-4.8-4.5-6.3-7c-0.5,0-1-1.6-1.4-4.9c0-1.8,1.4-4.8,4.2-9.1c4.3-4,7.7-6.3,10.2-6.8
		C425.6,98.3,427.2,97.9,428.8,97.9z M416,110.7c0,0-0.2-0.1-0.5-0.1h0.1c1.4,0,4.1-0.9,8-2.7c3.8-2.8,5.6-4.7,5.6-5.6
		c0-0.2-0.1-0.3-0.4-0.3h-0.3c-4.9,1.2-8.5,3.3-11,6.3C416.6,109.6,416,110.4,416,110.7z"/>
	<path class="st0" d="M497.3,63c3,0,4.5,1.5,4.5,4.6c0.1,0,0.1,0.4,0.1,1.3c-0.4,5.1-0.7,8.7-1,10.9c0-0.6,0-0.9,0.1-0.9
		c0,4.9-2.9,15.7-8.7,32.5c-2.2,4.3-3.3,6.8-3.3,7.5v0.3c1.6,4.2,5.5,6.3,11.7,6.4h1.3c9.8,0,18.9-4.2,27.2-12.5
		c1.2-2.2,2.4-3.3,3.6-3.3h0.1c1.1,0,1.9,0.7,2.4,2.2c-0.7,2.7-4.9,7-12.7,12.6c-7.9,3.5-14,5.3-18.3,5.3c-0.5,0-1.8,0.1-4,0.3
		c-2,0-5.2-0.8-9.6-2.3c-1.2-0.6-2.7-2-4.7-4.1c0.4,0.2,0.2,0.7-0.5,1.5c-3.4,4.7-8.1,7.8-14,9.3c-1.4,0.6-3.1,0.9-5,0.8
		c-7.1,0.1-11.8-3.2-14.2-10.2c-0.1-0.5-0.2-1-0.2-1.4v-1.6c0.1-4.5,2.6-9.2,7.4-14.1c3.2-2.6,7.5-4.3,13.1-4.9l3.8,0.2
		c1.6,0.4,4,1.1,7.1,1.9c-2.4,2.1-3.4,2-3-0.2c0-0.1,0-0.7-0.1-1.7c0.2-7.3,1.7-14.9,4.7-22.5l4.6-9.7c1.7-3.5,3.6-6,5.6-7.6
		C496.1,63.1,496.8,63,497.3,63z M457.1,121.9c0,4.2,2.2,7.1,6.7,8.8c1,0.2,1.8,0.3,2.3,0.3c5.8-0.4,11.1-3.5,15.8-9.2
		c0.8-1.5,1.2-2.4,1.2-2.9c-0.9-2.6-1.6-5.9-2.2-9.9c0,0-0.9-0.1-2.8-0.4c-1-0.7-2.1-1-3.5-1c-7.7,0-13.4,3.8-16.9,11.5
		C457.2,120.4,457.1,121.4,457.1,121.9z M485.7,97.8c0-0.6,0-0.9,0.1-0.9c0,0.9-0.1,3.3-0.4,7.2c0.5,5.4,0.8,8.1,0.9,8.1
		c0.2,0,0.5-0.7,0.9-2c2.1-3.9,5-13.6,8.8-28.9l0.7-12.7c-0.1-0.3,0-0.5,0.2-0.5c-0.9,0.2-3.2,4.5-6.9,12.8
		C487.9,86.8,486.4,92.4,485.7,97.8z"/>
	<path class="st0" d="M548.4,97.9h0.7c3.6,0.5,5.5,1.9,5.5,4.1c-0.5,3.2-3.4,6.4-8.6,9.8c-1.2,0.6-5,1.9-11.5,3.9
		c-0.1,0.1-0.2,0.2-0.2,0.3v0.1c1,3.4,2.7,5.8,4.9,7.1c2.2,1.2,4.8,1.8,7.9,1.8h1.3c9.8,0,18.9-4.2,27.2-12.5
		c1.2-2.2,2.4-3.3,3.6-3.3h0.1c1.1,0,1.9,0.7,2.4,2.2c-0.7,2.7-4.9,7-12.7,12.6c-7.9,3.5-14,5.3-18.3,5.3c-0.5,0-1.8,0.1-4,0.3
		c-2.2,0-5.5-0.8-10-2.5c-2.7-2.2-4.8-4.5-6.3-7c-0.5,0-1-1.6-1.4-4.9c0-1.8,1.4-4.8,4.2-9.1c4.3-4,7.7-6.3,10.2-6.8
		C545.2,98.3,546.8,97.9,548.4,97.9z M535.6,110.7c0,0-0.2-0.1-0.5-0.1h0.1c1.4,0,4.1-0.9,8-2.7c3.8-2.8,5.6-4.7,5.6-5.6
		c0-0.2-0.1-0.3-0.4-0.3h-0.3c-4.9,1.2-8.5,3.3-11,6.3C536.2,109.6,535.6,110.4,535.6,110.7z"/>
	<path class="st0" d="M595.4,99.7c2.8,0,5.1,1.6,6.9,4.8v0.6c0,1.1-0.6,1.8-1.8,2.1c-0.9,0-2.3-1-4.1-3c-0.7-0.3-1.1-0.4-1.4-0.4
		h-1.5c-2.3,0-5.5,1.8-9.4,5.3c-2.1,3.1-3.2,6.1-3.2,9c0,3.5,2.7,6.5,8.2,9.1c1.5,0.5,3.6,0.9,6.3,1.1c5.2,0,10.7-1.4,16.4-4.3
		c4.7-3.3,8.9-7.7,12.8-13c0-0.6,0.7-1,2-1.2h0.7c1.4,0,2.1,0.7,2.1,2.1c0,1.4-3.7,5.8-11.2,13c-3.1,3.1-7.9,5.4-14.4,6.8
		c-0.3,0.1-1.6,0.3-3.9,0.6v0.3l0.9-0.4h-0.7c-2.4,0.4-4,0.6-4.8,0.6c-4.7,0-8.9-1.3-12.7-3.9c-4.5-3.4-6.8-6.9-6.8-10.5
		c0-2,0.6-4.5,1.7-7.5c1.9-4,5.6-7.3,11.3-10C590.7,100.1,592.9,99.7,595.4,99.7z"/>
	<path class="st0" d="M632.1,108.8c4,0,6.6,1.5,7.8,4.4c0.4,1.1,0.7,2.2,0.7,3.3c0,1.4-0.2,2.9-0.6,4.6c0,0.3,0.2,0.4,0.7,0.4h2.2
		c7.7,0,16.3-3.6,25.6-10.7c1.3-0.8,2.3-1.2,3.2-1.2h0.5c1,0.5,1.4,1.2,1.4,2.2c-0.1,1.2-2.3,3.2-6.5,5.9
		c-8.5,5.6-17.6,8.5-27.2,8.5c-0.7-0.1-1.2-0.1-1.6-0.1c-0.5,0-1.3,0.9-2.5,2.7c-3.2,3.8-6.7,5.7-10.5,5.7h-1.3
		c-3.4,0-5.7-1.9-7-5.8c-0.1-0.7-0.2-1.5-0.2-2.3v-0.7c0-6.2,3.2-11.5,9.7-15.8C628.8,109.1,630.6,108.8,632.1,108.8z M621.5,125.8
		c0,2.2,0.8,3.6,2.4,4.3c0.3,0.1,0.7,0.2,1.2,0.2c2.5,0,5-1.7,7.5-5.2l0.1-0.4c0-0.1-1.1-0.7-3.4-1.8c-2.1-1.3-3.5-3.3-4.3-6
		l0.3,0.1H625c-0.7,0.3-1.8,2.4-3.3,6.2C621.8,123.3,621.7,124.2,621.5,125.8z M630.1,116.4c0,1.2,1,2.4,3.1,3.5
		c0.7,0.4,1.3,0.6,1.6,0.6h0.1c0.1,0,0.3-1.2,0.7-3.7c0-2.2-0.9-3.3-2.6-3.3C631.1,113.6,630.1,114.6,630.1,116.4z"/>
</g>
</svg>
