<?xml version="1.0" encoding="utf-8"?>
<!-- Generator: Adobe Illustrator 25.4.1, SVG Export Plug-In . SVG Version: 6.00 Build 0)  -->
<svg version="1.1" id="Capa_1" xmlns="http://www.w3.org/2000/svg" xmlns:xlink="http://www.w3.org/1999/xlink" x="0px" y="0px"
	 viewBox="0 0 678 209" style="enable-background:new 0 0 678 209;" xml:space="preserve">
<style type="text/css">
	.st0{fill:#FFFFFF;}
	.st1{fill:none;stroke:#FFFFFF;stroke-width:4;stroke-miterlimit:10;}
</style>
<g>
	<path class="st0" d="M102.1,117.6c0,3.6-0.7,6.9-2.2,9.9c-1.5,3-3.5,5.6-6.1,7.7c3.7,2.2,6.6,5.1,8.8,8.8c2.2,3.7,3.3,7.9,3.3,12.5
		c0,3.6-0.7,6.9-2,9.9c-1.3,3-3.2,5.7-5.5,7.9c-2.4,2.2-5.1,4-8.3,5.3c-3.2,1.3-6.5,1.9-10.1,1.9H55.6c-1.4,0-2.6-0.5-3.6-1.5
		c-1-1-1.5-2.2-1.5-3.6v-77c0-1.5,0.5-2.7,1.5-3.6s2.2-1.4,3.6-1.4h23.6c3.2,0,6.2,0.6,8.9,1.8c2.8,1.2,5.2,2.9,7.3,5
		c2.1,2.1,3.7,4.5,4.9,7.3S102.1,114.4,102.1,117.6z M60.7,104.7v26.7h17.8c1.9,0,3.7-0.4,5.3-1.1c1.6-0.7,3-1.8,4.2-3
		c1.2-1.3,2.1-2.7,2.8-4.3c0.7-1.6,1-3.3,1-5.1c0-1.7-0.3-3.4-1-5c-0.7-1.6-1.6-3-2.8-4.2c-1.2-1.2-2.6-2.2-4.2-2.9
		c-1.6-0.7-3.3-1.1-5.1-1.1L60.7,104.7L60.7,104.7z M60.7,140.7v30.7h18.9c2.3,0,4.4-0.4,6.3-1.3s3.6-2,5.1-3.4
		c1.4-1.4,2.5-3.1,3.4-5c0.8-1.9,1.2-3.8,1.2-5.9c0-2.1-0.4-4.1-1.3-6c-0.8-1.9-2-3.5-3.4-4.8c-1.5-1.4-3.2-2.4-5.1-3.2
		c-2-0.8-4.1-1.2-6.3-1.2L60.7,140.7L60.7,140.7z"/>
	<path class="st0" d="M190.5,110.6c0,1.4-0.5,2.5-1.5,3.5c-1,1-2.2,1.6-3.6,1.6s-2.6-0.5-3.6-1.4c-3.4-3.4-7.2-5.9-11.4-7.6
		s-8.5-2.5-12.9-2.5c-4.7,0-9.1,0.9-13.2,2.7c-4.1,1.8-7.7,4.2-10.8,7.2c-3.1,3.1-5.5,6.7-7.2,10.8c-1.8,4.1-2.7,8.5-2.7,13.3
		c0,4.6,0.8,8.9,2.5,13c1.7,4.1,4.1,7.7,7.1,10.8c3,3.1,6.6,5.6,10.7,7.5c4.1,1.9,8.6,2.8,13.4,2.8c4.4,0,8.7-0.8,12.8-2.3
		c4.1-1.6,7.9-4.1,11.4-7.5c1-1,2.1-1.4,3.6-1.4c1.4,0,2.6,0.5,3.6,1.4c1,1,1.6,2.2,1.5,3.6c0,1.4-0.5,2.6-1.5,3.6
		c-4.4,4.4-9.3,7.7-14.7,9.8c-5.4,2.1-11,3.2-16.8,3.2c-6.1,0-11.8-1.2-17.1-3.5c-5.3-2.3-10-5.5-14-9.5c-4-4-7.1-8.7-9.4-14
		s-3.4-11.1-3.4-17.2c0-3.9,0.5-7.7,1.5-11.4c1-3.7,2.4-7.2,4.3-10.5s4.1-6.3,6.7-9.1c2.6-2.8,5.6-5.2,8.9-7.1
		c3.3-2,6.8-3.5,10.7-4.7c3.8-1.1,7.9-1.7,12.2-1.7c5.7,0,11.3,1.1,16.7,3.3s10.3,5.5,14.7,9.9C190,108,190.5,109.2,190.5,110.6z"/>
</g>
<g>
	<path class="st0" d="M306.3,170.2c-0.4,0.4-1,0.7-1.7,0.7c-0.6,0-1.2-0.2-1.6-0.7c-0.4-0.4-0.6-1-0.6-1.6v-20.9
		c0-5.6-1.2-9.9-3.7-12.8c-2.4-2.9-5.7-4.3-10-4.3c-2.2,0-4.2,0.4-6.1,1.3c-1.9,0.9-3.5,2.1-4.9,3.6s-2.5,3.3-3.3,5.4
		c-0.8,2.1-1.2,4.3-1.2,6.7v20.8c0,0.6-0.2,1.2-0.6,1.6c-0.4,0.5-1,0.7-1.6,0.7c-0.6,0-1.2-0.2-1.6-0.7c-0.4-0.5-0.7-1-0.7-1.6
		v-56.2c0-0.6,0.2-1.2,0.7-1.6c0.4-0.5,1-0.7,1.6-0.7s1.2,0.2,1.6,0.7c0.4,0.5,0.6,1,0.6,1.6v23.3c0.9-1.4,2-2.7,3.1-3.9
		c1.2-1.2,2.4-2.2,3.8-3c1.4-0.8,2.8-1.5,4.3-1.9s3.1-0.7,4.7-0.7c2.7,0,5.1,0.5,7.3,1.5s4,2.4,5.6,4.3c1.5,1.9,2.7,4.1,3.6,6.8
		c0.8,2.7,1.3,5.7,1.3,9.1v20.9C306.9,169.3,306.7,169.8,306.3,170.2z"/>
	<path class="st0" d="M315.3,139.9c1.2-2.8,2.8-5.2,4.9-7.2s4.5-3.7,7.2-4.8s5.7-1.8,8.8-1.8c3.1,0,6.1,0.6,8.8,1.8
		c2.7,1.2,5.1,2.8,7.2,4.8c2,2,3.7,4.5,4.8,7.2c1.2,2.8,1.8,5.7,1.8,8.9c0,3.1-0.6,6-1.8,8.8s-2.8,5.2-4.8,7.2c-2,2-4.4,3.7-7.2,4.8
		c-2.7,1.2-5.7,1.8-8.8,1.8c-3.1,0-6-0.6-8.8-1.8c-2.8-1.2-5.2-2.8-7.2-4.8c-2.1-2-3.7-4.4-4.9-7.2c-1.2-2.8-1.8-5.7-1.8-8.8
		C313.5,145.7,314.1,142.7,315.3,139.9z M319.5,155.8c0.9,2.2,2.2,4.1,3.8,5.7c1.6,1.6,3.5,3,5.7,3.9c2.2,1,4.6,1.5,7.1,1.5
		c2.6,0,5-0.5,7.2-1.5c2.2-1,4.1-2.3,5.7-3.9c1.6-1.6,2.9-3.6,3.8-5.7c0.9-2.2,1.4-4.5,1.4-7c0-2.5-0.5-4.9-1.4-7.1
		c-0.9-2.2-2.2-4.1-3.8-5.8c-1.6-1.6-3.5-2.9-5.7-3.9c-2.2-1-4.6-1.4-7.1-1.4s-4.9,0.5-7.1,1.4c-2.2,1-4.1,2.2-5.7,3.9
		c-1.6,1.6-2.9,3.6-3.8,5.8c-0.9,2.2-1.4,4.6-1.4,7.1C318.1,151.3,318.5,153.6,319.5,155.8z"/>
	<path class="st0" d="M370.2,132.4c1.4-1.9,3.1-3.5,5.1-4.6c2-1.2,4.2-1.8,6.6-1.8c2.8,0,5.4,0.7,7.6,2.1c2.2,1.4,4,3.2,5.3,5.4
		c0.8-1.1,1.6-2.1,2.7-3c1-0.9,2.1-1.7,3.4-2.4c1.2-0.7,2.5-1.2,3.8-1.5c1.3-0.4,2.7-0.5,4.1-0.5c2.1,0,4,0.4,5.8,1.1
		c1.8,0.8,3.3,1.8,4.7,3.1c1.3,1.3,2.4,2.9,3.2,4.7c0.8,1.8,1.2,3.7,1.3,5.7c0,0.1,0,0.2,0,0.4v27.5c0,0.6-0.2,1.2-0.6,1.6
		c-0.4,0.4-1,0.7-1.6,0.7c-0.6,0-1.1-0.2-1.6-0.7c-0.5-0.4-0.7-1-0.7-1.6v-27.5c0-1.5-0.3-2.9-0.9-4.1c-0.6-1.3-1.4-2.4-2.4-3.3
		c-1-0.9-2.1-1.7-3.5-2.2s-2.7-0.8-4.1-0.8c-1.5,0-2.9,0.3-4.3,0.9c-1.4,0.6-2.6,1.4-3.6,2.4c-1,1-1.9,2.1-2.5,3.4
		c-0.6,1.3-1,2.7-1,4.1v27.2c0,0.6-0.2,1.2-0.6,1.6c-0.4,0.4-1,0.7-1.6,0.7s-1.2-0.2-1.6-0.7c-0.4-0.4-0.7-1-0.7-1.6v-27.4
		c0-1.5-0.3-2.9-0.9-4.2c-0.6-1.3-1.4-2.4-2.4-3.3c-1-0.9-2.1-1.7-3.4-2.2c-1.3-0.5-2.7-0.8-4.1-0.8c-1.5,0-3,0.3-4.3,0.9
		c-1.4,0.6-2.6,1.3-3.6,2.3c-1,1-1.9,2.1-2.5,3.4c-0.6,1.3-1,2.7-1,4.1v27.2c0,0.6-0.2,1.2-0.6,1.6s-1,0.7-1.6,0.7
		c-0.6,0-1.2-0.2-1.6-0.7c-0.4-0.5-0.7-1-0.7-1.6v-40.2c0-0.6,0.2-1.2,0.7-1.6c0.4-0.4,1-0.7,1.6-0.7c0.6,0,1.2,0.2,1.6,0.7
		c0.4,0.4,0.6,1,0.6,1.6L370.2,132.4L370.2,132.4z"/>
	<path class="st0" d="M434.8,150.8c0.2,2.3,0.8,4.4,1.8,6.4c1,2,2.3,3.7,3.9,5.1c1.6,1.5,3.4,2.6,5.4,3.5c2,0.8,4.2,1.3,6.6,1.3
		c2.7,0,5.3-0.6,7.6-1.7c2.4-1.1,4.3-2.6,5.7-4.5c0.8-0.6,1.5-0.8,2.3-0.6c0.4,0.1,0.7,0.4,1,0.9c0.4,0.4,0.5,0.9,0.5,1.5
		c0,0.6-0.3,1.1-0.8,1.6c-1.8,2.1-4.1,3.8-6.9,5.1c-2.7,1.3-5.9,2-9.5,2c-3.1,0-6.1-0.6-8.8-1.8c-2.7-1.2-5.1-2.8-7.2-4.8
		c-2.1-2-3.7-4.4-4.9-7.2s-1.8-5.7-1.8-8.8s0.6-6.1,1.8-8.8c1.2-2.7,2.8-5.1,4.9-7.2c2.1-2,4.5-3.7,7.2-4.8c2.7-1.2,5.7-1.8,8.8-1.8
		c3.1,0,6,0.6,8.8,1.8c2.8,1.2,5.2,2.8,7.2,4.8c2,2,3.7,4.4,4.9,7.2c1.2,2.7,1.8,5.7,1.8,8.8c0,0.6-0.2,1.2-0.6,1.6
		c-0.4,0.4-0.9,0.6-1.6,0.6L434.8,150.8L434.8,150.8z M470.5,147c-0.2-2.3-0.7-4.5-1.7-6.5c-1-2-2.3-3.8-3.9-5.3
		c-1.6-1.5-3.5-2.7-5.6-3.5c-2.1-0.9-4.3-1.3-6.7-1.3c-2.4,0-4.6,0.4-6.7,1.3c-2.1,0.9-4,2-5.5,3.5c-1.6,1.5-2.9,3.3-3.9,5.3
		c-1,2-1.6,4.2-1.7,6.4L470.5,147L470.5,147z"/>
	<path class="st0" d="M524.6,168.6c0,0.6-0.2,1.2-0.7,1.6c-0.4,0.4-1,0.6-1.6,0.6s-1.2-0.2-1.6-0.6c-0.4-0.4-0.6-1-0.6-1.6v-6.3
		c-2.1,2.8-4.7,5-7.8,6.6c-3.1,1.6-6.5,2.4-10.3,2.4c-3.1,0-6-0.6-8.8-1.8c-2.8-1.2-5.2-2.8-7.2-4.9c-2.1-2.1-3.7-4.5-4.9-7.2
		c-1.2-2.7-1.8-5.7-1.8-8.8c0-3.1,0.6-6.1,1.8-8.8c1.2-2.8,2.8-5.2,4.9-7.2s4.5-3.7,7.2-4.8c2.8-1.2,5.7-1.8,8.8-1.8
		c3.7,0,7.2,0.8,10.3,2.4c3.1,1.6,5.7,3.8,7.8,6.6v-22.9c0-0.6,0.2-1.2,0.6-1.6c0.4-0.4,1-0.6,1.6-0.6s1.2,0.2,1.6,0.6
		c0.4,0.4,0.7,1,0.7,1.6V168.6z M485.2,155.7c0.9,2.2,2.2,4.1,3.8,5.7c1.6,1.6,3.5,2.9,5.7,3.9s4.6,1.5,7.1,1.5c2.6,0,5-0.5,7.2-1.5
		c2.2-1,4.1-2.3,5.7-3.9c1.6-1.6,2.9-3.5,3.8-5.7c0.9-2.2,1.4-4.5,1.4-7c0-2.5-0.5-4.8-1.4-7c-0.9-2.2-2.2-4.1-3.8-5.7
		c-1.6-1.6-3.5-2.9-5.7-3.8c-2.2-0.9-4.6-1.4-7.1-1.4s-4.9,0.5-7.1,1.4c-2.2,0.9-4.1,2.2-5.7,3.8c-1.6,1.6-2.9,3.5-3.8,5.7
		c-0.9,2.2-1.4,4.5-1.4,7C483.8,151.2,484.3,153.5,485.2,155.7z"/>
	<path class="st0" d="M536.4,150.8c0.2,2.3,0.8,4.4,1.8,6.4c1,2,2.3,3.7,3.9,5.1c1.6,1.5,3.4,2.6,5.4,3.5s4.2,1.3,6.6,1.3
		c2.7,0,5.3-0.6,7.6-1.7c2.4-1.1,4.3-2.6,5.7-4.5c0.8-0.6,1.5-0.8,2.3-0.6c0.4,0.1,0.7,0.4,1,0.9c0.4,0.4,0.5,0.9,0.5,1.5
		c0,0.6-0.3,1.1-0.8,1.6c-1.8,2.1-4.1,3.8-6.9,5.1c-2.7,1.3-5.9,2-9.5,2c-3.1,0-6.1-0.6-8.8-1.8c-2.7-1.2-5.1-2.8-7.2-4.8
		c-2.1-2-3.7-4.4-4.9-7.2s-1.8-5.7-1.8-8.8s0.6-6.1,1.8-8.8c1.2-2.7,2.8-5.1,4.9-7.2c2.1-2,4.5-3.7,7.2-4.8c2.7-1.2,5.7-1.8,8.8-1.8
		c3.1,0,6,0.6,8.8,1.8c2.8,1.2,5.2,2.8,7.2,4.8c2,2,3.7,4.4,4.9,7.2c1.2,2.7,1.8,5.7,1.8,8.8c0,0.6-0.2,1.2-0.6,1.6
		c-0.4,0.4-0.9,0.6-1.6,0.6L536.4,150.8L536.4,150.8z M572.1,147c-0.2-2.3-0.7-4.5-1.7-6.5c-1-2-2.3-3.8-3.9-5.3
		c-1.6-1.5-3.5-2.7-5.6-3.5c-2.1-0.9-4.3-1.3-6.7-1.3s-4.6,0.4-6.7,1.3c-2.1,0.9-4,2-5.5,3.5s-2.9,3.3-3.9,5.3c-1,2-1.6,4.2-1.7,6.4
		L572.1,147L572.1,147z"/>
	<path class="st0" d="M585.5,148.5c0,0,0,0.1-0.1,0.2l0,0.1l0,0c0,2.4,0.4,4.6,1.3,6.8c0.9,2.2,2.1,4,3.7,5.7
		c1.5,1.6,3.4,2.9,5.5,3.9s4.4,1.5,6.9,1.5c2.3,0,4.4-0.3,6.5-1c2-0.7,3.9-1.9,5.6-3.4c0.2-0.2,0.5-0.4,0.7-0.5
		c0.3-0.2,0.6-0.3,0.9-0.4c0.3-0.1,0.6-0.1,1,0c0.3,0.1,0.7,0.3,1,0.6c0.5,0.4,0.7,1,0.7,1.6c0,0.7-0.3,1.2-0.8,1.8
		c-1.9,1.9-4.1,3.4-6.8,4.4c-2.7,1-5.5,1.6-8.3,1.6c-3.1,0-6-0.6-8.7-1.7c-2.7-1.2-5.1-2.7-7.1-4.8c-2-2-3.7-4.4-4.8-7.1
		c-1.2-2.7-1.8-5.6-1.8-8.7c0-0.1,0-0.2,0-0.3c0-0.1,0-0.1,0-0.2c0-3.1,0.6-6,1.8-8.7c1.2-2.7,2.8-5.1,4.8-7.2c2-2,4.4-3.7,7.1-4.8
		c2.7-1.2,5.6-1.8,8.7-1.8c2.9,0,5.7,0.5,8.3,1.6s4.9,2.5,6.8,4.4c0.5,0.5,0.8,1.1,0.8,1.8c0,0.7-0.2,1.2-0.7,1.7
		c-0.4,0.3-0.7,0.5-1,0.6c-0.3,0.1-0.7,0.1-1,0s-0.6-0.2-0.9-0.4c-0.3-0.2-0.5-0.4-0.7-0.5c-1.7-1.5-3.5-2.7-5.6-3.4
		s-4.2-1.1-6.5-1.1c-2.4,0-4.7,0.5-6.8,1.5c-2.1,1-4,2.3-5.5,3.9c-1.6,1.6-2.8,3.5-3.7,5.7C585.9,143.9,585.5,146.1,585.5,148.5z"/>
	<path class="st0" d="M625.2,139.9c1.2-2.8,2.8-5.2,4.9-7.2c2.1-2,4.5-3.7,7.2-4.8c2.8-1.2,5.7-1.8,8.8-1.8c3.1,0,6.1,0.6,8.8,1.8
		c2.7,1.2,5.1,2.8,7.2,4.8s3.7,4.5,4.8,7.2c1.2,2.8,1.8,5.7,1.8,8.9c0,3.1-0.6,6-1.8,8.8s-2.8,5.2-4.8,7.2s-4.4,3.7-7.2,4.8
		c-2.7,1.2-5.7,1.8-8.8,1.8c-3.1,0-6-0.6-8.8-1.8c-2.8-1.2-5.2-2.8-7.2-4.8c-2.1-2-3.7-4.4-4.9-7.2c-1.2-2.8-1.8-5.7-1.8-8.8
		C623.4,145.7,624,142.7,625.2,139.9z M629.4,155.8c0.9,2.2,2.2,4.1,3.8,5.7c1.6,1.6,3.5,3,5.7,3.9c2.2,1,4.6,1.5,7.1,1.5
		c2.6,0,5-0.5,7.2-1.5c2.2-1,4.1-2.3,5.7-3.9c1.6-1.6,2.9-3.6,3.8-5.7c0.9-2.2,1.4-4.5,1.4-7c0-2.5-0.5-4.9-1.4-7.1
		c-0.9-2.2-2.2-4.1-3.8-5.8c-1.6-1.6-3.5-2.9-5.7-3.9c-2.2-1-4.6-1.4-7.1-1.4c-2.5,0-4.9,0.5-7.1,1.4c-2.2,1-4.1,2.2-5.7,3.9
		c-1.6,1.6-2.9,3.6-3.8,5.8c-0.9,2.2-1.4,4.6-1.4,7.1C628,151.3,628.4,153.6,629.4,155.8z"/>
</g>
<rect x="35.1" y="82" class="st1" width="170.9" height="108.4"/>
<line class="st1" x1="11.1" y1="82" x2="228" y2="82"/>
<line class="st1" x1="119.6" y1="18" x2="11.1" y2="82"/>
<line class="st1" x1="228" y1="82" x2="119.6" y2="18"/>
</svg>
